<svg width="420" height="420" viewBox="0 0 420 420" fill="none" xmlns="http://www.w3.org/2000/svg">
<rect width="420" height="420" fill="#FDBBAB"/>
<rect x="112" y="120" width="190" height="241" stroke="#5F5AE0" stroke-width="2"/>
<rect x="102" y="110" width="190" height="241" fill="#5F5AE0"/>
<path d="M292 68L291 68L292 68ZM292 110L291 110L291 111L292 111L292 110ZM334 27C356.644 27 375 45.3563 375 68L377 68C377 44.2518 357.748 25 334 25L334 27ZM293 68C293 45.3563 311.356 27 334 27L334 25C310.252 25 291 44.2518 291 68L293 68ZM293 110L293 68L291 68L291 110L293 110ZM334 109L292 109L292 111L334 111L334 109ZM375 68C375 90.6437 356.644 109 334 109L334 111C357.748 111 377 91.7482 377 68L375 68Z" fill="#00BA8D"/>
<path d="M321.622 65.1005C321.307 64.6467 320.684 64.5341 320.23 64.849C319.776 65.1638 319.664 65.7869 319.978 66.2407L321.622 65.1005ZM331.575 81.2L330.754 81.7701C330.948 82.0499 331.271 82.2116 331.612 82.1993C331.952 82.187 332.263 82.0024 332.436 81.7093L331.575 81.2ZM348.061 55.3093C348.342 54.834 348.185 54.2207 347.709 53.9394C347.234 53.6581 346.621 53.8154 346.339 54.2907L348.061 55.3093ZM319.978 66.2407L330.754 81.7701L332.397 80.6299L321.622 65.1005L319.978 66.2407ZM332.436 81.7093L348.061 55.3093L346.339 54.2907L330.715 80.6907L332.436 81.7093Z" fill="#00BA8D"/>
<path d="M302 298L301 298L301 299L302 299L302 298ZM330.5 242C345.688 242 358 254.312 358 269.5L360 269.5C360 253.208 346.792 240 330.5 240L330.5 242ZM303 269.5C303 254.312 315.312 242 330.5 242L330.5 240C314.208 240 301 253.208 301 269.5L303 269.5ZM303 298L303 269.5L301 269.5L301 298L303 298ZM330.5 297L302 297L302 299L330.5 299L330.5 297ZM358 269.5C358 284.688 345.688 297 330.5 297L330.5 299C346.792 299 360 285.792 360 269.5L358 269.5Z" fill="#5B57CA"/>
<path d="M322.364 267.349C322.05 266.895 321.427 266.783 320.973 267.098C320.519 267.413 320.406 268.036 320.721 268.489L322.364 267.349ZM328.855 278.457L328.033 279.027C328.227 279.307 328.551 279.469 328.891 279.456C329.231 279.444 329.542 279.26 329.715 278.966L328.855 278.457ZM340.318 261.052C340.599 260.577 340.442 259.964 339.966 259.682C339.491 259.401 338.878 259.558 338.597 260.034L340.318 261.052ZM320.721 268.489L328.033 279.027L329.676 277.887L322.364 267.349L320.721 268.489ZM329.715 278.966L340.318 261.052L338.597 260.034L327.994 277.948L329.715 278.966Z" fill="#5B57CA"/>
<path d="M166.605 207L142 231.5L166.605 256" stroke="#FFF500" stroke-width="3" stroke-linecap="round" stroke-linejoin="round"/>
<path d="M227.395 207L252 231.5L227.395 256" stroke="#FFF500" stroke-width="3" stroke-linecap="round" stroke-linejoin="round"/>
<line x1="1.5" y1="-1.5" x2="53.3236" y2="-1.5" transform="matrix(-0.501609 0.865095 -0.866951 -0.498393 208.308 207)" stroke="#FFF500" stroke-width="3" stroke-linecap="round" stroke-linejoin="round"/>
<path d="M81 90H153.28C154.824 90 156.115 91.1708 156.266 92.7066L157.766 107.973C161.192 142.841 131.022 171.689 96.3435 166.705L83.5732 164.87C82.0964 164.658 81 163.392 81 161.9V90Z" fill="#5F5AE0"/>
<circle cx="101" cy="110" r="57" stroke="white" stroke-width="2"/>
<rect x="94" y="104" width="64" height="2" rx="1" fill="white"/>
<rect x="94" y="115.721" width="17.2308" height="2" rx="1" fill="white"/>
<rect x="130.923" y="127.442" width="17.2308" height="2" rx="1" fill="white"/>
<rect x="116.974" y="115.721" width="41.0256" height="2" rx="1" fill="white"/>
<rect width="41.0256" height="2" rx="1" transform="matrix(-1 0 0 1 135.026 140.14)" fill="white"/>
<rect x="94" y="127.442" width="32" height="2" rx="1" fill="white"/>
<path d="M191.5 119L193.857 126.255H201.486L195.314 130.739L197.672 137.995L191.5 133.511L185.328 137.995L187.686 130.739L181.514 126.255H189.143L191.5 119Z" fill="#FFF500"/>
<path d="M218.5 119L220.857 126.255H228.486L222.314 130.739L224.672 137.995L218.5 133.511L212.328 137.995L214.686 130.739L208.514 126.255H216.143L218.5 119Z" fill="#FFF500"/>
<path d="M244.5 119L246.857 126.255H254.486L248.314 130.739L250.672 137.995L244.5 133.511L238.328 137.995L240.686 130.739L234.514 126.255H242.143L244.5 119Z" fill="#FFF500"/>
<path d="M270.5 119L272.857 126.255H280.486L274.314 130.739L276.672 137.995L270.5 133.511L264.328 137.995L266.686 130.739L260.514 126.255H268.143L270.5 119Z" fill="#241ED3"/>
</svg>
