<svg width="421" height="595" viewBox="0 0 421 595" fill="none" xmlns="http://www.w3.org/2000/svg">
<g clip-path="url(#clip0)">
<rect width="421" height="595" fill="#00BA8D"/>
<path d="M191.333 387L191.333 421.572C191.333 427.722 188.504 433.53 183.66 437.321L161.839 454.401C158.153 457.286 155.999 461.707 155.999 466.388V466.388C155.999 470.592 152.592 474 148.388 474L-87.9997 474" stroke="#FFF500" stroke-linecap="round" stroke-linejoin="round"/>
<path d="M195.119 387L195.119 423.009C195.119 428.326 193.002 433.425 189.235 437.178L173.242 453.11C169.475 456.862 167.358 461.961 167.358 467.278L167.358 594.998" stroke="#FFF500" stroke-linecap="round" stroke-linejoin="round"/>
<path d="M206.477 387L206.477 431.315L206.172 458.972L206.172 594.998" stroke="#FFF500" stroke-linecap="round" stroke-linejoin="round"/>
<path d="M202.691 387L202.691 428.097C202.691 430.229 202.35 432.347 201.681 434.371L194.563 455.916C193.894 457.94 193.553 460.058 193.553 462.19L193.553 594.998" stroke="#FFF500" stroke-linecap="round" stroke-linejoin="round"/>
<path d="M198.904 387L198.904 425.045C198.904 429.127 197.655 433.112 195.324 436.463L183.251 453.824C180.92 457.175 179.671 461.16 179.671 465.243L179.671 467C179.671 478.046 170.717 487 159.671 487L110.499 487C104.977 487 100.499 491.477 100.499 497L100.499 594.998" stroke="#FFF500" stroke-linecap="round" stroke-linejoin="round"/>
<path d="M123.5 487L57.2501 487C53.3841 487 50.2501 490.134 50.2501 494V494C50.2501 497.866 47.1161 501 43.2501 501L-15.9999 501C-19.8659 501 -22.9999 504.134 -22.9999 508V508" stroke="#FFF500" stroke-linecap="round" stroke-linejoin="round"/>
<path d="M226.667 387L226.667 421.572C226.667 427.722 229.497 433.53 234.34 437.321L254.328 452.966C259.171 456.757 262 462.565 262 468.715L262 595" stroke="#FFF500" stroke-linecap="round" stroke-linejoin="round"/>
<path d="M222.881 387L222.881 423.006C222.881 428.323 224.999 433.422 228.766 437.175L244.759 453.107C248.526 456.859 250.643 461.958 250.643 467.276L250.643 59508" stroke="#FFF500" stroke-linecap="round" stroke-linejoin="round"/>
<path d="M211.524 387L211.829 594.998" stroke="#FFF500" stroke-linecap="round" stroke-linejoin="round"/>
<path d="M215.31 387L215.31 429.492C215.31 430.705 215.42 431.916 215.64 433.109L221.435 464.618C223.18 474.109 231.455 481 241.105 481L367.5 481C378.546 481 387.5 489.954 387.5 501L387.5 507.5L387.5 595" stroke="#FFF500" stroke-linecap="round" stroke-linejoin="round"/>
<path d="M219.096 387L219.096 425.045C219.096 429.127 220.345 433.112 222.676 436.464L232.361 450.391C236.1 455.767 242.233 458.972 248.781 458.972L507 458.972" stroke="#FFF500" stroke-linecap="round" stroke-linejoin="round"/>
<circle cx="83.0002" cy="474" r="3" fill="#FFF500"/>
<circle cx="333" cy="481" r="3" fill="#FFF500"/>
<circle cx="400" cy="459" r="3" fill="#FFF500"/>
<circle cx="194" cy="461" r="3" fill="#FFF500"/>
<circle cx="321" cy="459" r="2" fill="#FFF500"/>
<circle cx="211.5" cy="450.5" r="2.5" fill="#FFF500"/>
<circle cx="206" cy="478" r="2" fill="#FFF500"/>
<circle cx="341" cy="459" r="2" fill="#FFF500"/>
<circle cx="386" cy="459" r="2" fill="#FFF500"/>
<path d="M265.347 0V164.214C265.347 170.218 262.65 175.905 257.999 179.704L250.707 185.66C246.057 189.458 243.359 195.145 243.359 201.149V223.5" stroke="#FFF500" stroke-linecap="round" stroke-linejoin="round"/>
<path d="M270.234 0V167.438C270.234 173.367 267.603 178.991 263.052 182.791L255.835 188.817C251.283 192.616 248.653 198.24 248.653 204.169V223.271" stroke="#FFF500" stroke-linecap="round" stroke-linejoin="round"/>
<path d="M261.276 0V167.438C261.276 173.367 258.645 178.991 254.094 182.791L246.876 188.817C242.325 192.616 239.695 198.24 239.695 204.169V223.271" stroke="#FFF500" stroke-linecap="round" stroke-linejoin="round"/>
<path d="M275.527 0V170.758C275.527 176.78 272.813 182.482 268.139 186.28L260.927 192.14C256.253 195.938 253.539 201.64 253.539 207.662V223.271" stroke="#FFF500" stroke-linecap="round" stroke-linejoin="round"/>
<path d="M257.204 0V170.758C257.204 176.78 254.49 182.482 249.816 186.28L242.604 192.14C237.93 195.938 235.216 201.64 235.216 207.662V223.271" stroke="#FFF500" stroke-linecap="round" stroke-linejoin="round"/>
<path d="M280.82 0V173.954C280.82 179.976 278.107 185.678 273.434 189.475L266.219 195.338C261.546 199.136 258.832 204.837 258.832 210.859V223.271" stroke="#FFF500" stroke-linecap="round" stroke-linejoin="round"/>
<path d="M253.539 0V173.954C253.539 179.976 250.826 185.678 246.152 189.475L238.938 195.338C234.264 199.136 231.551 204.837 231.551 210.859V223.271" stroke="#FFF500" stroke-linecap="round" stroke-linejoin="round"/>
<path d="M285.707 0V177.487C285.707 183.415 283.077 189.037 278.528 192.837L271.305 198.87C266.755 202.67 264.126 208.292 264.126 214.22V230.271" stroke="#FFF500" stroke-linecap="round" stroke-linejoin="round"/>
<path d="M248.653 0V177.487C248.653 183.415 246.023 189.037 241.474 192.837L234.251 198.87C229.701 202.67 227.072 208.292 227.072 214.22V223.271" stroke="#FFF500" stroke-linecap="round" stroke-linejoin="round"/>
<path d="M291 0V180.714C291 186.724 288.298 192.415 283.641 196.213L276.371 202.142C271.714 205.941 269.012 211.632 269.012 217.641V233.271" stroke="#FFF500" stroke-linecap="round" stroke-linejoin="round"/>
<path d="M244.988 0V180.714C244.988 186.724 242.286 192.415 237.629 196.213L230.359 202.142C225.702 205.941 223 211.632 223 217.641V223.271" stroke="#FFF500" stroke-linecap="round" stroke-linejoin="round"/>
<path d="M156.653 0V107.822C156.653 111.2 157.509 114.524 159.14 117.482L176.153 148.325C177.785 151.283 178.641 154.606 178.641 157.985V223.5" stroke="#FFF500" stroke-linecap="round" stroke-linejoin="round"/>
<path d="M151.767 0V114.784C151.767 118.1 152.591 121.364 154.166 124.282L170.948 155.383C172.523 158.301 173.347 161.565 173.347 164.88V222.993" stroke="#FFF500" stroke-linecap="round" stroke-linejoin="round"/>
<path d="M160.725 0V114.784C160.725 118.1 161.549 121.364 163.124 124.282L179.906 155.383C181.481 158.301 182.306 161.565 182.306 164.88V222.993" stroke="#FFF500" stroke-linecap="round" stroke-linejoin="round"/>
<path d="M146.473 0V122.392C146.473 125.786 147.337 129.124 148.982 132.091L165.952 162.694C167.598 165.662 168.461 169 168.461 172.393V222.993" stroke="#FFF500" stroke-linecap="round" stroke-linejoin="round"/>
<path d="M164.797 0V122.392C164.797 125.786 165.66 129.124 167.306 132.091L184.275 162.694C185.921 165.662 186.785 169 186.785 172.393V222.993" stroke="#FFF500" stroke-linecap="round" stroke-linejoin="round"/>
<path d="M141.18 0V129.485C141.18 132.878 142.043 136.216 143.688 139.183L160.659 169.793C162.305 172.761 163.168 176.098 163.168 179.491V222.993" stroke="#FFF500" stroke-linecap="round" stroke-linejoin="round"/>
<path d="M168.461 0V129.485C168.461 132.878 169.324 136.216 170.97 139.183L187.941 169.793C189.586 172.761 190.449 176.098 190.449 179.491V222.993" stroke="#FFF500" stroke-linecap="round" stroke-linejoin="round"/>
<path d="M136.294 0V137.085C136.294 140.399 137.117 143.662 138.691 146.58L155.477 177.698C157.05 180.615 157.874 183.878 157.874 187.193V222.993" stroke="#FFF500" stroke-linecap="round" stroke-linejoin="round"/>
<path d="M173.347 0V137.085C173.347 140.399 174.171 143.662 175.745 146.58L192.531 177.698C194.104 180.615 194.928 183.878 194.928 187.193V222.993" stroke="#FFF500" stroke-linecap="round" stroke-linejoin="round"/>
<path d="M131 0V144.458C131 147.84 131.858 151.168 133.494 154.128L150.495 184.905C152.13 187.866 152.988 191.193 152.988 194.575V233" stroke="#FFF500" stroke-linecap="round" stroke-linejoin="round"/>
<path d="M177.012 0V144.458C177.012 147.84 177.87 151.168 179.506 154.128L196.507 184.905C198.142 187.866 199 191.193 199 194.575V222.993" stroke="#FFF500" stroke-linecap="round" stroke-linejoin="round"/>
<circle cx="281.5" cy="146.5" r="2.5" fill="#FFF500"/>
<circle cx="131" cy="149" r="3" fill="#FFF500"/>
<circle cx="152" cy="172" r="3" fill="#FFF500"/>
<circle cx="155.5" cy="143.5" r="1.5" fill="#FFF500"/>
<circle cx="136.5" cy="87.5" r="1.5" fill="#FFF500"/>
<circle cx="171" cy="156" r="3" fill="#FFF500"/>
<circle cx="178.5" cy="200.5" r="2.5" fill="#FFF500"/>
<circle cx="253.5" cy="215.5" r="2.5" fill="#FFF500"/>
<path d="M-88 348L13.3502 348C19.7296 348 25.7262 344.957 29.4925 339.808L57.0077 302.192C60.774 297.043 66.7707 294 73.15 294L134 294" stroke="#FFF500" stroke-linecap="round" stroke-linejoin="round"/>
<path d="M-88 360L20.9285 360C27.2224 360 33.1491 357.037 36.9264 352.003L64.691 314.997C68.4682 309.963 74.3949 307 80.6888 307L134 307" stroke="#FFF500" stroke-linecap="round" stroke-linejoin="round"/>
<path d="M-88 338L20.4623 338C26.7787 338 32.7239 335.016 36.4985 329.952L64.0017 293.049C67.7763 287.984 73.7215 285 80.038 285L134 285" stroke="#FFF500" stroke-linecap="round" stroke-linejoin="round"/>
<path d="M-88 373L28.4517 373C34.8373 373 40.839 369.951 44.6045 364.794L72.0479 327.206C75.8134 322.049 81.8151 319 88.2007 319L134 319" stroke="#FFF500" stroke-linecap="round" stroke-linejoin="round"/>
<path d="M-88 328L27.9315 328C34.2653 328 40.2246 325 43.9971 319.912L72.0427 282.088C75.8152 277 81.7745 274 88.1083 274H134" stroke="#FFF500" stroke-linecap="round" stroke-linejoin="round"/>
<path d="M-87.9999 386L35.5044 386C41.8894 386 47.8907 382.951 51.6562 377.795L79.106 340.205C82.8716 335.049 88.8728 332 95.2579 332L134 332" stroke="#FFF500" stroke-linecap="round" stroke-linejoin="round"/>
<path d="M-87.9999 319L34.4257 319C40.7627 319 46.7248 315.997 50.4968 310.905L78.5036 273.095C82.2755 268.003 88.2376 265 94.5747 265H134" stroke="#FFF500" stroke-linecap="round" stroke-linejoin="round"/>
<path d="M-88 398L43.1026 398C49.3952 398 55.3209 395.039 59.0983 390.006L86.878 352.994C90.6553 347.961 96.581 345 102.874 345H134" stroke="#FFF500" stroke-linecap="round" stroke-linejoin="round"/>
<path d="M-88 307L43.1026 307C49.3952 307 55.3209 304.039 59.0983 299.006L86.878 261.994C90.6554 256.961 96.581 254 102.874 254L134 254" stroke="#FFF500" stroke-linecap="round" stroke-linejoin="round"/>
<path d="M-88 411L50.397 411C56.7698 411 62.761 407.963 66.5283 402.823L94.1195 365.177C97.8867 360.037 103.878 357 110.251 357L133.495 357" stroke="#FFF500" stroke-linecap="round" stroke-linejoin="round"/>
<path d="M144 244L110.5 244C104.205 244 98.2773 246.964 94.5002 252L66.0002 290C62.2231 295.036 56.2953 298 50.0002 298L-21.5325 298C-32.4745 298 -43.0485 294.049 -51.3089 286.873L-63.0908 276.638C-71.7022 269.158 -66.4117 255 -55.0049 255V255C-43.4786 255 -38.2548 269.407 -47.1024 276.794L-60.6019 288.066C-68.289 294.484 -77.9855 298 -87.9998 298V298" stroke="#FFF500" stroke-linecap="round" stroke-linejoin="round"/>
<circle cx="21.0001" cy="386" r="2" fill="#FFF500"/>
<circle cx="49.0001" cy="315" r="3" fill="#FFF500"/>
<circle cx="101" cy="307" r="3" fill="#FFF500"/>
<path d="M507 249.084L402.686 249.084C398.29 249.084 394.018 250.532 390.528 253.204L362.012 275.036C358.522 277.708 354.249 279.156 349.853 279.156L287 279.156" stroke="#FFF500" stroke-linecap="round" stroke-linejoin="round"/>
<path d="M507 242.401L395.805 242.401C391.482 242.401 387.275 243.802 383.815 246.393L355.069 267.924C351.609 270.515 347.402 271.916 343.079 271.916L287.5 271.916" stroke="#FFF500" stroke-linecap="round" stroke-linejoin="round"/>
<path d="M507 254.653L395.805 254.653C391.482 254.653 387.275 256.053 383.815 258.645L355.069 280.175C351.609 282.767 347.402 284.168 343.079 284.168L287.5 284.168" stroke="#FFF500" stroke-linecap="round" stroke-linejoin="round"/>
<path d="M507 235.162L388.334 235.162C383.921 235.162 379.632 236.621 376.135 239.312L347.849 261.083C344.353 263.774 340.064 265.234 335.651 265.234L287.5 265.234" stroke="#FFF500" stroke-linecap="round" stroke-linejoin="round"/>
<path d="M507 260.222L388.334 260.222C383.921 260.222 379.632 261.681 376.135 264.372L347.849 286.143C344.353 288.834 340.064 290.293 335.651 290.293L287.5 290.293" stroke="#FFF500" stroke-linecap="round" stroke-linejoin="round"/>
<path d="M507 227.922L454.053 227.922C452.643 227.922 451.5 226.779 451.5 225.37V225.37C451.5 223.311 449.188 222.099 447.495 223.27L442.279 226.878C441.296 227.558 440.13 227.922 438.935 227.922L381.345 227.922C376.932 227.922 372.644 229.381 369.147 232.072L340.854 253.844C337.358 256.535 333.069 257.994 328.657 257.994L287.5 257.994" stroke="#FFF500" stroke-linecap="round" stroke-linejoin="round"/>
<path d="M505.5 265.234L381.345 265.234C376.932 265.234 372.644 266.693 369.147 269.383L340.854 291.156C337.358 293.846 333.069 295.305 328.657 295.305L287.5 295.305" stroke="#FFF500" stroke-linecap="round" stroke-linejoin="round"/>
<path d="M507 221.24L466.039 221.24C462.428 221.24 459.5 218.312 459.5 214.7V214.7C459.5 208.887 452.482 205.964 448.355 210.059L440.369 217.983C438.266 220.069 435.425 221.24 432.463 221.24L373.831 221.24C369.509 221.24 365.304 222.639 361.844 225.23L333.081 246.765C329.621 249.355 325.416 250.755 321.094 250.755L287.5 250.755" stroke="#FFF500" stroke-linecap="round" stroke-linejoin="round"/>
<path d="M506.5 271.916L373.831 271.916C369.509 271.916 365.304 273.316 361.844 275.906L333.081 297.441C329.621 300.031 325.416 301.431 321.094 301.431L287.5 301.431" stroke="#FFF500" stroke-linecap="round" stroke-linejoin="round"/>
<path d="M506 214L481.403 214C475.105 214 470 208.895 470 202.597V202.597C470 192.162 457.144 187.208 450.142 194.946L438.318 208.014C434.869 211.825 429.969 214 424.829 214L366.588 214C362.188 214 357.911 215.451 354.419 218.128L325.967 239.943C322.475 242.621 318.197 244.072 313.797 244.072L274 244.072" stroke="#FFF500" stroke-linecap="round" stroke-linejoin="round"/>
<path d="M507 276.928L366.588 276.928C362.188 276.928 357.911 278.379 354.419 281.057L325.967 302.872C322.475 305.549 318.197 307 313.797 307L287.5 307" stroke="#FFF500" stroke-linecap="round" stroke-linejoin="round"/>
<circle cx="421" cy="235" r="3" fill="#FFF500"/>
<circle cx="400" cy="221" r="2" fill="#FFF500"/>
<path d="M53 67H105V142H53V67Z" fill="#5B57CA"/>
<path d="M55 69H107V144H55V69Z" fill="#5B57CA"/>
<path d="M57 71H109V146H57V71Z" fill="#5B57CA"/>
<path d="M59 73H111V148H59V73Z" fill="#5B57CA"/>
<path d="M61 75H113V150H61V75Z" fill="#5B57CA"/>
<path d="M63 77H115V152H63V77Z" fill="#5B57CA"/>
<path d="M89.1483 127.475L89.1481 127.475L89.1481 127.475L88.4709 127.387L88.5924 128.059L88.5924 128.059L88.5924 128.059L88.5925 128.06L88.593 128.063L88.5961 128.081C88.5989 128.099 88.6031 128.126 88.6082 128.163C88.6183 128.236 88.6319 128.347 88.6446 128.489C88.67 128.774 88.6917 129.184 88.6754 129.677C88.6428 130.668 88.458 131.976 87.8588 133.276C87.2626 134.57 86.2525 135.865 84.5477 136.843C82.838 137.823 80.3997 138.5 76.9243 138.5H76.8649H76.8054H76.7457H76.6859H76.626H76.566H76.5059H76.4456H76.3852H76.3247H76.2641H76.2033H76.1425H76.0815H76.0204H75.9591H75.8978H75.8364H75.7748H75.7131H75.6514H75.5895H75.5275H75.4654H75.4031H75.3408H75.2784H75.2159H75.1532H75.0905H75.0277H74.9647H74.9017H74.8385H74.7753H74.712H74.6486H74.585H74.5214H74.4577H74.3939H74.3301H74.2661H74.202H74.1379H74.0736H74.0093H73.9449H73.8804H73.8158H73.7512H73.6864H73.6216H73.5567H73.4917H73.4267H73.3616H73.2964H73.2311H73.1657H73.1003H73.0348H72.9692H72.9036H72.8379H72.7721H72.7063H72.6404H72.5744H72.5084H72.4423H72.3761H72.3099H72.2437H72.1773H72.1109H72.0445H71.978H71.9114H71.8448H71.7781H71.7114H71.6446H71.5778H71.5109H71.444H71.3771H71.31H71.243H71.1759H71.1087H71.0415H70.9743H70.907H70.8397H70.7724H70.705H70.6376H70.5701H70.5026H70.4351H70.3675H70.2999H70.2323H70.1647H70.097H70.0293H69.9615H69.8938H69.826H69.7581H69.6903H69.6224H69.5546H69.4867H69.4187H69.3508H69.2828H69.2149H69.1469H69.0789H69.0109H68.9428H68.8748H68.8067H68.7387H68.6706H68.6025H68.5344H68.4663H68.3982H68.3301H68.262H68.1939H68.1258H68.0577H67.9896H67.9215H67.8534H67.7853H67.7172H67.6491H67.581H67.5129H67.4448H67.3768H67.3087H67.2407H67.1726H67.1046H67.0366H66.9686H66.9007H66.8327H66.7648H66.6969H66.629H66.5611H66.4933H66.4254H66.3576H66.2898H66.2221H66.1544H66.0866H66.019H65.9513H65.8837H65.8161H65.7486H65.6811H65.6136H65.5461H65.4787H65.4114H65.344H65.2767H65.2095H65.1423H65.0751H65.0079H64.9409H64.8738H64.8068H64.7399H64.673H64.6061H64.5393H64.4726H64.4059H64.3392H64.2726H64.2061H64.1396H64.0732H64.0068H63.9405H63.8742H63.808H63.7419H63.6758H63.6098H63.5439H63.478H63.4122H63.3464H63.2807H63.2151H63.1496H63.0841H63.0187H62.9534H62.8882H62.823H62.7579H62.6928H62.6279H62.563H62.4982H62.4335H62.3689H62.3044H62.2399H62.1755H62.1112H62.047H61.9829H61.9189H61.8549H61.7911H61.7273H61.6636H61.6001H61.5366H61.4732H61.4099H61.3467H61.2836H61.2206H61.1577H61.0949H61.0322H60.9696H60.9071H60.8447H60.7824H60.7203H60.6582H60.5962H60.5344H60.4726H60.411H60.3495H60.2881H60.2268H60.1656H60.1045H60.0436H59.9828H59.9221H59.8615H59.801H59.7407H59.6804H59.6203H59.5604H59.5005H59.4408H59.3812H59.3217H59.2624H59.2032H59.1441H59.0852H59.0263H58.9677H58.9091H58.8507H58.7924H58.7343H58.6763H58.6185H58.5608H58.5032H58.4458H58.3885H58.3313H58.2743H58.2175H58.1608H58.1042H58.0478H57.9916H57.9355H57.8795H57.8237H57.7681H57.7126H57.6573H57.6021H57.5471H57.4923H57.4376H57.383H57.3287H57.2744H57.2204H57.1665H57.1128H57.0593H57.0059H56.9527H56.8996H56.8468H56.7941H56.7415H56.6892H56.637H56.585H56.5332H56.4815H56.43H56.3788H56.3276H56.2767H56.226H56.1754H56.125H56.0748H56.0248H55.975H55.9253H55.8759H55.8266H55.7776H55.7287H55.68H55.6315H55.5832H55.5351H55.4872H55.4395H55.392H55.3447H55.2976H55.2507H55.204H55.1575H55.1112H55.0651H55.0192H54.9736H54.9281H54.8828H54.8378H54.7929H54.7483H54.7039H54.6597H54.6157H54.5719H54.5284H54.4851H54.4419H54.399H54.3564H54.3139H54.2717H54.2297H54.1879H54.1463H54.105H54.0639H54.023H53.9823H53.9419H53.9017H53.8618H53.8221H53.7826H53.7433H53.7043H53.6655H53.627H53.5887H53.5506H53.5128H53.4752H53.4379H53.4008H53.3639H53.3273H53.2909H53.2548H53.219H53.1833H53.148H53.1129H53.078H53.0434H53.009H52.9749H52.9411H52.9075H52.8742H52.8411H52.8083H52.7757H52.7435H52.7114H52.6797H52.6482H52.6169H52.586H52.5553H52.5249H52.4947H52.4648H52.4352H52.4059H52.3768H52.348H52.3195H52.2912H52.2633H52.2356H52.2082H52.181H52.1542H52.1276H52.1013H52.0753H52.0496H52.0242H51.999H51.9742H51.9496H51.9253H51.9013H51.8776H51.8542H51.8311H51.8083H51.7858H51.7636H51.7416H51.72H51.6987H51.6777H51.6569H51.6365H51.6164H51.5966H51.5771H51.5578H51.5389H51.5204H51.5021H51.5V64.5H102.5V64.5031V64.5334V64.5646V64.5966V64.6295V64.6632V64.6978V64.7331V64.7694V64.8064V64.8443V64.883V64.9225V64.9628V65.0039V65.0459V65.0886V65.1321V65.1765V65.2216V65.2676V65.3143V65.3618V65.4101V65.4592V65.509V65.5596V65.611V65.6632V65.7161V65.7698V65.8242V65.8794V65.9353V65.992V66.0494V66.1076V66.1665V66.2261V66.2865V66.3476V66.4094V66.472V66.5353V66.5992V66.6639V66.7293V66.7954V66.8622V66.9298V66.998V67.0669V67.1364V67.2067V67.2777V67.3493V67.4216V67.4946V67.5682V67.6426V67.7175V67.7932V67.8695V67.9464V68.024V68.1023V68.1812V68.2607V68.3409V68.4217V68.5032V68.5852V68.6679V68.7512V68.8352V68.9197V69.0049V69.0907V69.177V69.264V69.3516V69.4398V69.5286V69.6179V69.7079V69.7984V69.8895V69.9812V70.0734V70.1663V70.2597V70.3536V70.4481V70.5432V70.6389V70.735V70.8318V70.929V71.0269V71.1252V71.2241V71.3235V71.4235V71.524V71.625V71.7265V71.8285V71.9311V72.0341V72.1377V72.2417V72.3463V72.4514V72.5569V72.663V72.7695V72.8765V72.984V73.092V73.2004V73.3093V73.4187V73.5286V73.6389V73.7496V73.8609V73.9725V74.0847V74.1972V74.3102V74.4237V74.5376V74.6519V74.7666V74.8818V74.9974V75.1134V75.2298V75.3467V75.4639V75.5816V75.6996V75.8181V75.9369V76.0562V76.1758V76.2959V76.4163V76.5371V76.6582V76.7798V76.9017V77.024V77.1466V77.2696V77.393V77.5167V77.6408V77.7652V77.89V78.0151V78.1406V78.2663V78.3925V78.5189V78.6457V78.7728V78.9002V79.0279V79.156V79.2843V79.413V79.5419V79.6712V79.8008V79.9306V80.0608V80.1912V80.3219V80.4529V80.5842V80.7158V80.8476V80.9797V81.1121V81.2447V81.3775V81.5107V81.6441V81.7777V81.9116V82.0457V82.1801V82.3147V82.4495V82.5846V82.7199V82.8554V82.9911V83.127V83.2632V83.3996V83.5362V83.6729V83.8099V83.9471V84.0845V84.222V84.3598V84.4977V84.6359V84.7742V84.9126V85.0513V85.1901V85.3291V85.4682V85.6075V85.747V85.8866V86.0264V86.1663V86.3063V86.4465V86.5868V86.7273V86.8679V87.0086V87.1494V87.2904V87.4314V87.5726V87.7139V87.8553V87.9969V88.1385V88.2802V88.422V88.5639V88.7059V88.8479V88.9901V89.1323V89.2746V89.417V89.5595V89.702V89.8445V89.9872V90.1299V90.2726V90.4154V90.5582V90.7011V90.8441V90.987V91.13V91.273V91.4161V91.5592V91.7023V91.8454V91.9885V92.1316V92.2748V92.4179V92.5611V92.7042V92.8474V92.9905V93.1337V93.2768V93.4199V93.5629V93.706V93.849V93.992V94.135V94.2779V94.4208V94.5636V94.7064V94.8491V94.9918V95.1344V95.277V95.4195V95.562V95.7043V95.8466V95.9889V96.131V96.2731V96.4151V96.5569V96.6987V96.8404V96.982V97.1236V97.2649V97.4062V97.5474V97.6885V97.8294V97.9703V98.111V98.2515V98.392V98.5323V98.6725V98.8125V98.9524V99.0922V99.2318V99.3712V99.5105V99.6496V99.7886V99.9274V100.066V100.204V100.343V100.481V100.619V100.757V100.894V101.031V101.169V101.306V101.442V101.579V101.715V101.851V101.987V102.123V102.259V102.394V102.529V102.664V102.798V102.933V103.067V103.201V103.334V103.468V103.601V103.734V103.866V103.998V104.131V104.262V104.394V104.525V104.656V104.787V104.917V105.047V105.177V105.307V105.436V105.565V105.694V105.822V105.95V106.078V106.205V106.332V106.459V106.585V106.711V106.837V106.962V107.088V107.212V107.337V107.461V107.584V107.708V107.831V107.953V108.076V108.198V108.319V108.44V108.561V108.681V108.801V108.921V109.04V109.159V109.277V109.395V109.513V109.63V109.747V109.863V109.979V110.095V110.21V110.325V110.439V110.553V110.666V110.779V110.892V111.004V111.116V111.227V111.337V111.448V111.558V111.667V111.776V111.884V111.992V112.1V112.207V112.313V112.419V112.525V112.63V112.734V112.838V112.942V113.045V113.147V113.249V113.351V113.452V113.552V113.652V113.751V113.85V113.948V114.046V114.144V114.24V114.336V114.432V114.527V114.621V114.715V114.809V114.901V114.994V115.085V115.176V115.267V115.357V115.446V115.535V115.623V115.71V115.797V115.884V115.969V116.055V116.139V116.223V116.306V116.389V116.471V116.552V116.633V116.713V116.793V116.871V116.95V117.027V117.104V117.18V117.256V117.331V117.405V117.479V117.552V117.624V117.696V117.766V117.837C102.5 120.713 101.664 122.717 100.447 124.124C99.2239 125.539 97.5792 126.393 95.8987 126.896C94.2182 127.4 92.5284 127.546 91.2517 127.564C90.6151 127.573 90.0853 127.55 89.7161 127.525C89.5316 127.513 89.3875 127.5 89.2906 127.49C89.2421 127.485 89.2055 127.481 89.1815 127.479L89.1551 127.476L89.1492 127.475L89.1483 127.475Z" stroke="#FFF500"/>
<path d="M51 64L51.5 64L51.5 64.5L51 64.5L51 64ZM32 64L32 63.5L32 64ZM32 26.5C21.7827 26.5 13.5 34.7827 13.5 45L12.5 45C12.5 34.2304 21.2304 25.5 32 25.5L32 26.5ZM50.5 45C50.5 34.7827 42.2173 26.5 32 26.5L32 25.5C42.7696 25.5 51.5 34.2304 51.5 45L50.5 45ZM50.5 64L50.5 45L51.5 45L51.5 64L50.5 64ZM32 63.5L51 63.5L51 64.5L32 64.5L32 63.5ZM13.5 45C13.5 55.2173 21.7827 63.5 32 63.5L32 64.5C21.2304 64.5 12.5 55.7696 12.5 45L13.5 45Z" fill="#FFF500"/>
<rect x="22.7714" y="42.8286" width="4.34286" height="4.34286" rx="2.17143" fill="#FFF500"/>
<rect x="29.8286" y="42.8286" width="4.34286" height="4.34286" rx="2.17143" fill="#FFF500"/>
<rect x="36.8857" y="42.8286" width="4.34286" height="4.34286" rx="2.17143" fill="#FFF500"/>
<line x1="77.5" y1="81.5" x2="77.5" y2="121.5" stroke="#FFF500" stroke-linecap="round" stroke-linejoin="round"/>
<line x1="95.5" y1="101.5" x2="59.5" y2="101.5" stroke="#FFF500" stroke-linecap="round" stroke-linejoin="round"/>
<line x1="85.5563" y1="109.263" x2="70" y2="93.7071" stroke="#FFF500" stroke-linecap="round" stroke-linejoin="round"/>
<line x1="85.2634" y1="93.7071" x2="69.7071" y2="109.263" stroke="#FFF500" stroke-linecap="round" stroke-linejoin="round"/>
<path d="M78.5 152V232.5V232.5C78.5 244.029 92.3913 249.857 100.617 241.778L102.4 240.027C105.028 237.446 108.564 236 112.247 236H151" stroke="#FFF500"/>
<circle cx="78.5" cy="152.5" r="3.5" fill="#FFF500"/>
<rect x="310" y="75" width="78" height="59" fill="#5B57CA"/>
<rect x="310" y="75" width="39" height="21" fill="#FF0F00"/>
<path d="M322.599 80L317 85.5991L322.599 91.1981" stroke="black" stroke-linecap="round" stroke-linejoin="round"/>
<path d="M336.432 80L342.031 85.5991L336.432 91.1981" stroke="black" stroke-linecap="round" stroke-linejoin="round"/>
<line x1="332.272" y1="80.683" x2="326.514" y2="90.6558" stroke="black" stroke-linecap="round" stroke-linejoin="round"/>
<rect x="291" y="38" width="78" height="59" stroke="#FFF500"/>
<path d="M369 76L368.5 76L368.5 76.5L369 76.5L369 76ZM388 76L388 76.5L388 76ZM369.5 76L369.5 57L368.5 57L368.5 76L369.5 76ZM388 75.5L369 75.5L369 76.5L388 76.5L388 75.5ZM406.5 57C406.5 67.2173 398.217 75.5 388 75.5L388 76.5C398.77 76.5 407.5 67.7695 407.5 57L406.5 57ZM388 38.5C398.217 38.5 406.5 46.7827 406.5 57L407.5 57C407.5 46.2304 398.77 37.5 388 37.5L388 38.5ZM369.5 57C369.5 46.7827 377.783 38.5 388 38.5L388 37.5C377.23 37.5 368.5 46.2304 368.5 57L369.5 57Z" fill="#5B57CA"/>
<rect width="4.34286" height="4.34286" rx="2.17143" transform="matrix(-1 0 0 1 397.229 54.8286)" fill="#5B57CA"/>
<rect width="4.34286" height="4.34286" rx="2.17143" transform="matrix(-1 0 0 1 390.171 54.8286)" fill="#5B57CA"/>
<rect width="4.34286" height="4.34286" rx="2.17143" transform="matrix(-1 0 0 1 383.343 55)" fill="#5B57CA"/>
<circle cx="212" cy="292" r="178" fill="#FFF500" fill-opacity="0.1"/>
<circle cx="212" cy="292" r="142" fill="#FFF500" fill-opacity="0.1"/>
<circle cx="210" cy="297" r="103" fill="#FFF500" fill-opacity="0.87"/>
<path d="M198.962 407.569L111.188 365.806C107.252 363.934 106.074 358.892 108.771 355.469C112.999 350.104 120.031 347.795 126.617 349.61L189.421 366.914C197.241 369.068 205.599 367.965 212.592 363.854L281.272 323.484C286.183 320.597 283.218 313.06 277.657 314.292L261.66 317.837C254.556 319.411 247.302 320.205 240.025 320.205L201.784 320.205C196.506 320.205 191.936 316.537 190.794 311.384C189.482 305.463 193.097 299.567 198.969 298.05L229.361 290.198C243.697 286.495 257.439 280.789 270.182 273.248L288.411 262.461C305.93 252.095 326.194 247.321 346.498 248.779L426.762 254.54L426.762 350.504L370.247 350.504C362.121 350.504 354.079 352.155 346.609 355.357L223.67 408.053C215.747 411.449 206.746 411.273 198.962 407.569Z" fill="#5B57CA"/>
<path d="M401 251.5C401 248.739 403.239 246.5 406 246.5H507V379.972L405.21 363.674C402.784 363.286 401 361.193 401 358.737V251.5Z" fill="#5F5AE0"/>
</g>
<defs>
<clipPath id="clip0">
<rect width="421" height="595" fill="white"/>
</clipPath>
</defs>
</svg>
