<svg width="595" height="421" viewBox="0 0 595 421" fill="none" xmlns="http://www.w3.org/2000/svg">
<g clip-path="url(#clip0)">
<rect width="595" height="421" fill="#FF6666"/>
<path d="M279.333 300L279.333 334.572C279.333 340.722 276.503 346.53 271.66 350.321L249.839 367.401C246.153 370.286 243.999 374.707 243.999 379.388V379.388C243.999 383.592 240.591 387 236.388 387L0.000100783 387" stroke="#FFF500" stroke-linecap="round" stroke-linejoin="round"/>
<path d="M283.119 300L283.119 336.009C283.119 341.326 281.002 346.425 277.235 350.178L261.242 366.109C257.475 369.862 255.357 374.961 255.357 380.278L255.357 421" stroke="#FFF500" stroke-linecap="round" stroke-linejoin="round"/>
<path d="M294.477 300L294.477 344.315L294.172 371.972L294.172 421" stroke="#FFF500" stroke-linecap="round" stroke-linejoin="round"/>
<path d="M290.691 300L290.691 341.097C290.691 343.229 290.35 345.347 289.681 347.371L282.563 368.916C281.894 370.94 281.553 373.058 281.553 375.19L281.553 421" stroke="#FFF500" stroke-linecap="round" stroke-linejoin="round"/>
<path d="M286.904 300L286.904 338.045C286.904 342.127 285.655 346.112 283.324 349.464L271.251 366.824C268.92 370.175 267.671 374.16 267.671 378.243L267.671 380C267.671 391.046 258.717 400 247.671 400L198.499 400C192.977 400 188.499 404.477 188.499 410L188.499 420.5" stroke="#FFF500" stroke-linecap="round" stroke-linejoin="round"/>
<path d="M211.5 400L145.25 400C141.384 400 138.25 403.134 138.25 407V407C138.25 410.866 135.116 414 131.25 414L71.9999 414C68.1339 414 64.9999 417.134 64.9999 421V421" stroke="#FFF500" stroke-linecap="round" stroke-linejoin="round"/>
<path d="M314.667 300L314.667 334.572C314.667 340.722 317.497 346.53 322.34 350.321L342.328 365.966C347.171 369.757 350 375.565 350 381.715L350 421" stroke="#FFF500" stroke-linecap="round" stroke-linejoin="round"/>
<path d="M310.881 300L310.881 336.006C310.881 341.323 312.999 346.422 316.766 350.175L332.758 366.107C336.526 369.859 338.643 374.958 338.643 380.276L338.643 420.997" stroke="#FFF500" stroke-linecap="round" stroke-linejoin="round"/>
<path d="M299.524 300L299.829 421" stroke="#FFF500" stroke-linecap="round" stroke-linejoin="round"/>
<path d="M303.31 300L303.31 342.492C303.31 343.705 303.42 344.916 303.64 346.109L309.435 377.618C311.18 387.109 319.454 394 329.105 394L455.5 394C466.546 394 475.5 402.954 475.5 414L475.5 420.5" stroke="#FFF500" stroke-linecap="round" stroke-linejoin="round"/>
<path d="M307.096 300L307.096 338.045C307.096 342.127 308.345 346.112 310.676 349.464L320.361 363.391C324.1 368.767 330.233 371.972 336.781 371.972L595 371.972" stroke="#FFF500" stroke-linecap="round" stroke-linejoin="round"/>
<circle cx="171" cy="387" r="3" fill="#FFF500"/>
<circle cx="421" cy="394" r="3" fill="#FFF500"/>
<circle cx="488" cy="372" r="3" fill="#FFF500"/>
<circle cx="282" cy="374" r="3" fill="#FFF500"/>
<circle cx="409" cy="372" r="2" fill="#FFF500"/>
<circle cx="299.5" cy="363.5" r="2.5" fill="#FFF500"/>
<circle cx="294" cy="391" r="2" fill="#FFF500"/>
<circle cx="429" cy="372" r="2" fill="#FFF500"/>
<circle cx="474" cy="372" r="2" fill="#FFF500"/>
<path d="M353.347 0V77.214C353.347 83.2185 350.65 88.9052 345.999 92.7036L338.707 98.6597C334.057 102.458 331.359 108.145 331.359 114.149V136.5" stroke="#FFF500" stroke-linecap="round" stroke-linejoin="round"/>
<path d="M358.234 0V80.4382C358.234 86.3672 355.603 91.9906 351.052 95.7906L343.835 101.816C339.283 105.616 336.653 111.24 336.653 117.169V136.271" stroke="#FFF500" stroke-linecap="round" stroke-linejoin="round"/>
<path d="M349.275 0V80.4382C349.275 86.3672 346.645 91.9906 342.094 95.7906L334.876 101.816C330.325 105.616 327.695 111.24 327.695 117.169V136.271" stroke="#FFF500" stroke-linecap="round" stroke-linejoin="round"/>
<path d="M363.527 0V83.7579C363.527 89.7804 360.813 95.4823 356.139 99.2801L348.927 105.14C344.253 108.938 341.539 114.64 341.539 120.662V136.271" stroke="#FFF500" stroke-linecap="round" stroke-linejoin="round"/>
<path d="M345.204 0V83.7579C345.204 89.7804 342.49 95.4823 337.816 99.2801L330.604 105.14C325.929 108.938 323.216 114.64 323.216 120.662V136.271" stroke="#FFF500" stroke-linecap="round" stroke-linejoin="round"/>
<path d="M368.82 0V86.9542C368.82 92.9761 366.107 98.6775 361.434 102.475L354.219 108.338C349.546 112.136 346.832 117.837 346.832 123.859V136.271" stroke="#FFF500" stroke-linecap="round" stroke-linejoin="round"/>
<path d="M341.539 0V86.9542C341.539 92.9761 338.826 98.6775 334.152 102.475L326.938 108.338C322.264 112.136 319.551 117.837 319.551 123.859V136.271" stroke="#FFF500" stroke-linecap="round" stroke-linejoin="round"/>
<path d="M373.707 0V90.4873C373.707 96.4149 371.077 102.037 366.528 105.837L359.305 111.87C354.755 115.67 352.126 121.292 352.126 127.22V143.271" stroke="#FFF500" stroke-linecap="round" stroke-linejoin="round"/>
<path d="M336.653 0V90.4873C336.653 96.4149 334.023 102.037 329.474 105.837L322.251 111.87C317.701 115.67 315.072 121.292 315.072 127.22V136.271" stroke="#FFF500" stroke-linecap="round" stroke-linejoin="round"/>
<path d="M379 -0.5V93.7145C379 99.7239 376.298 105.415 371.641 109.213L364.371 115.142C359.714 118.941 357.012 124.632 357.012 130.641V146.271" stroke="#FFF500" stroke-linecap="round" stroke-linejoin="round"/>
<path d="M332.988 0V93.7145C332.988 99.7239 330.286 105.415 325.629 109.213L318.359 115.142C313.702 118.941 311 124.632 311 130.641V136.271" stroke="#FFF500" stroke-linecap="round" stroke-linejoin="round"/>
<path d="M244.653 0V20.8219C244.653 24.2002 245.509 27.5236 247.14 30.4817L264.153 61.3247C265.785 64.2828 266.641 67.6062 266.641 70.9845V136.5" stroke="#FFF500" stroke-linecap="round" stroke-linejoin="round"/>
<path d="M239.766 0V27.7841C239.766 31.0999 240.591 34.3638 242.166 37.2819L258.948 68.3826C260.523 71.3007 261.347 74.5646 261.347 77.8804V135.993" stroke="#FFF500" stroke-linecap="round" stroke-linejoin="round"/>
<path d="M248.725 0V27.7841C248.725 31.0999 249.549 34.3638 251.124 37.2819L267.906 68.3826C269.481 71.3007 270.305 74.5646 270.305 77.8804V135.993" stroke="#FFF500" stroke-linecap="round" stroke-linejoin="round"/>
<path d="M234.473 0V35.3925C234.473 38.7859 235.337 42.1236 236.982 45.0914L253.952 75.6943C255.598 78.6621 256.461 81.9997 256.461 85.3932V135.993" stroke="#FFF500" stroke-linecap="round" stroke-linejoin="round"/>
<path d="M252.796 0V35.3925C252.796 38.7859 253.66 42.1236 255.306 45.0914L272.275 75.6943C273.921 78.6621 274.784 81.9997 274.784 85.3932V135.993" stroke="#FFF500" stroke-linecap="round" stroke-linejoin="round"/>
<path d="M229.18 0V42.4853C229.18 45.8783 230.043 49.2155 231.688 52.183L248.659 82.7934C250.305 85.7608 251.168 89.0981 251.168 92.4911V135.993" stroke="#FFF500" stroke-linecap="round" stroke-linejoin="round"/>
<path d="M256.461 0V42.4853C256.461 45.8783 257.324 49.2155 258.97 52.183L275.941 82.7934C277.586 85.7608 278.449 89.0981 278.449 92.4911V135.993" stroke="#FFF500" stroke-linecap="round" stroke-linejoin="round"/>
<path d="M224.293 0V50.0846C224.293 53.3994 225.117 56.6622 226.691 59.5796L243.477 90.6979C245.05 93.6153 245.874 96.8781 245.874 100.193V135.993" stroke="#FFF500" stroke-linecap="round" stroke-linejoin="round"/>
<path d="M261.347 0V50.0846C261.347 53.3994 262.171 56.6622 263.745 59.5796L280.531 90.6979C282.104 93.6153 282.928 96.8781 282.928 100.193V135.993" stroke="#FFF500" stroke-linecap="round" stroke-linejoin="round"/>
<path d="M219 0V57.4577C219 60.8402 219.858 64.1675 221.494 67.1283L238.495 97.9047C240.13 100.866 240.988 104.193 240.988 107.575V146" stroke="#FFF500" stroke-linecap="round" stroke-linejoin="round"/>
<path d="M265.012 0V57.4577C265.012 60.8402 265.87 64.1675 267.505 67.1283L284.507 97.9047C286.142 100.866 287 104.193 287 107.575V135.993" stroke="#FFF500" stroke-linecap="round" stroke-linejoin="round"/>
<circle cx="369.5" cy="59.5" r="2.5" fill="#FFF500"/>
<circle cx="219" cy="62" r="3" fill="#FFF500"/>
<circle cx="240" cy="85" r="3" fill="#FFF500"/>
<circle cx="243.5" cy="56.5" r="1.5" fill="#FFF500"/>
<circle cx="224.5" cy="0.5" r="1.5" fill="#FFF500"/>
<circle cx="259" cy="69" r="3" fill="#FFF500"/>
<circle cx="266.5" cy="113.5" r="2.5" fill="#FFF500"/>
<circle cx="341.5" cy="128.5" r="2.5" fill="#FFF500"/>
<path d="M-0.000119688 261L101.35 261C107.729 261 113.726 257.957 117.492 252.808L145.008 215.192C148.774 210.043 154.771 207 161.15 207L222 207" stroke="#FFF500" stroke-linecap="round" stroke-linejoin="round"/>
<path d="M-0.000119733 273L108.928 273C115.222 273 121.149 270.037 124.926 265.003L152.691 227.997C156.468 222.963 162.395 220 168.689 220L222 220" stroke="#FFF500" stroke-linecap="round" stroke-linejoin="round"/>
<path d="M-0.000119733 251L108.462 251C114.779 251 120.724 248.016 124.498 242.952L152.002 206.048C155.776 200.984 161.721 198 168.038 198L222 198" stroke="#FFF500" stroke-linecap="round" stroke-linejoin="round"/>
<path d="M-0.000119688 286L116.452 286C122.837 286 128.839 282.951 132.604 277.794L160.048 240.206C163.813 235.049 169.815 232 176.201 232L222 232" stroke="#FFF500" stroke-linecap="round" stroke-linejoin="round"/>
<path d="M-0.000119688 241L115.931 241C122.265 241 128.225 238 131.997 232.912L160.043 195.088C163.815 190 169.774 187 176.108 187L222 187" stroke="#FFF500" stroke-linecap="round" stroke-linejoin="round"/>
<path d="M-5.86533e-05 299L123.504 299C129.889 299 135.891 295.951 139.656 290.795L167.106 253.205C170.871 248.049 176.873 245 183.258 245L222 245" stroke="#FFF500" stroke-linecap="round" stroke-linejoin="round"/>
<path d="M-5.86533e-05 232L122.426 232C128.763 232 134.725 228.997 138.497 223.905L166.503 186.095C170.275 181.003 176.238 178 182.575 178H222" stroke="#FFF500" stroke-linecap="round" stroke-linejoin="round"/>
<path d="M-0.000119733 311L131.102 311C137.395 311 143.321 308.038 147.098 303.006L174.878 265.994C178.655 260.961 184.581 258 190.873 258H222" stroke="#FFF500" stroke-linecap="round" stroke-linejoin="round"/>
<path d="M-0.000119733 220L131.102 220C137.395 220 143.321 217.038 147.098 212.006L174.878 174.994C178.655 169.961 184.581 167 190.873 167L222 167" stroke="#FFF500" stroke-linecap="round" stroke-linejoin="round"/>
<path d="M-0.000119688 324L138.397 324C144.77 324 150.761 320.963 154.528 315.823L182.119 278.177C185.887 273.037 191.878 270 198.251 270L221.495 270" stroke="#FFF500" stroke-linecap="round" stroke-linejoin="round"/>
<path d="M232 157L198.5 157C192.205 157 186.277 159.964 182.5 165L154 203C150.223 208.036 144.295 211 138 211L66.4673 211C55.5254 211 44.9514 207.049 36.691 199.873L24.9091 189.638C16.2977 182.158 21.5882 168 32.995 168V168C44.5213 168 49.7451 182.407 40.8974 189.794L27.398 201.066C19.7109 207.484 10.0144 211 6.34035e-05 211V211" stroke="#FFF500" stroke-linecap="round" stroke-linejoin="round"/>
<circle cx="59" cy="211" r="2" fill="#FFF500"/>
<circle cx="109" cy="299" r="2" fill="#FFF500"/>
<circle cx="15" cy="324" r="2" fill="#FFF500"/>
<circle cx="28" cy="192" r="3" fill="#FFF500"/>
<circle cx="137" cy="228" r="3" fill="#FFF500"/>
<circle cx="189" cy="220" r="3" fill="#FFF500"/>
<circle cx="68" cy="286" r="3" fill="#FFF500"/>
<path d="M595 162.084L490.686 162.084C486.29 162.084 482.017 163.532 478.528 166.204L450.011 188.036C446.522 190.708 442.249 192.156 437.853 192.156L375 192.156" stroke="#FFF500" stroke-linecap="round" stroke-linejoin="round"/>
<path d="M595 155.401L483.805 155.401C479.482 155.401 475.275 156.802 471.815 159.393L443.069 180.924C439.609 183.515 435.402 184.916 431.079 184.916L375.5 184.916" stroke="#FFF500" stroke-linecap="round" stroke-linejoin="round"/>
<path d="M595 167.653L483.805 167.653C479.482 167.653 475.275 169.053 471.815 171.645L443.069 193.175C439.609 195.767 435.402 197.168 431.079 197.168L375.5 197.168" stroke="#FFF500" stroke-linecap="round" stroke-linejoin="round"/>
<path d="M595 148.162L476.333 148.162C471.921 148.162 467.632 149.621 464.135 152.312L435.849 174.083C432.352 176.774 428.064 178.234 423.651 178.234L375.5 178.234" stroke="#FFF500" stroke-linecap="round" stroke-linejoin="round"/>
<path d="M595 173.222L476.333 173.222C471.921 173.222 467.632 174.681 464.135 177.372L435.849 199.143C432.352 201.834 428.064 203.293 423.651 203.293L375.5 203.293" stroke="#FFF500" stroke-linecap="round" stroke-linejoin="round"/>
<path d="M595 140.922L542.053 140.922C540.643 140.922 539.5 139.779 539.5 138.37V138.37C539.5 136.311 537.188 135.099 535.495 136.27L530.279 139.878C529.296 140.558 528.13 140.922 526.935 140.922L469.344 140.922C464.932 140.922 460.644 142.381 457.147 145.072L428.854 166.844C425.358 169.535 421.069 170.994 416.657 170.994L375.5 170.994" stroke="#FFF500" stroke-linecap="round" stroke-linejoin="round"/>
<path d="M593.5 178.234L469.344 178.234C464.932 178.234 460.644 179.693 457.147 182.383L428.854 204.156C425.358 206.846 421.069 208.305 416.657 208.305L375.5 208.305" stroke="#FFF500" stroke-linecap="round" stroke-linejoin="round"/>
<path d="M595 134.24L554.039 134.24C550.428 134.24 547.5 131.312 547.5 127.7V127.7C547.5 121.887 540.482 118.964 536.355 123.059L528.369 130.983C526.266 133.069 523.425 134.24 520.463 134.24L461.831 134.24C457.509 134.24 453.303 135.639 449.844 138.23L421.081 159.764C417.621 162.355 413.416 163.754 409.094 163.754L375.5 163.754" stroke="#FFF500" stroke-linecap="round" stroke-linejoin="round"/>
<path d="M594.5 184.916L461.831 184.916C457.509 184.916 453.303 186.316 449.844 188.906L421.081 210.441C417.621 213.031 413.416 214.431 409.094 214.431L375.5 214.431" stroke="#FFF500" stroke-linecap="round" stroke-linejoin="round"/>
<path d="M594 127L569.403 127C563.105 127 558 121.895 558 115.597V115.597C558 105.162 545.144 100.208 538.142 107.946L526.318 121.014C522.869 124.825 517.969 127 512.828 127L454.588 127C450.188 127 445.911 128.451 442.419 131.128L413.967 152.943C410.475 155.621 406.197 157.072 401.797 157.072L362 157.072" stroke="#FFF500" stroke-linecap="round" stroke-linejoin="round"/>
<path d="M595 189.928L454.588 189.928C450.188 189.928 445.911 191.379 442.419 194.056L413.967 215.872C410.475 218.549 406.197 220 401.797 220L375.5 220" stroke="#FFF500" stroke-linecap="round" stroke-linejoin="round"/>
<circle cx="509" cy="148" r="3" fill="#FFF500"/>
<circle cx="595" cy="127" r="3" fill="#FFF500"/>
<circle cx="557" cy="148" r="2" fill="#FFF500"/>
<circle cx="488" cy="134" r="2" fill="#FFF500"/>
<path d="M89 59H141V134H89V59Z" fill="#5B57CA"/>
<path d="M91 61H143V136H91V61Z" fill="#5B57CA"/>
<path d="M93 63H145V138H93V63Z" fill="#5B57CA"/>
<path d="M95 65H147V140H95V65Z" fill="#5B57CA"/>
<path d="M97 67H149V142H97V67Z" fill="#5B57CA"/>
<path d="M99 69H151V144H99V69Z" fill="#5B57CA"/>
<path d="M125.148 119.475L125.148 119.475L125.148 119.475L124.471 119.387L124.592 120.059L124.592 120.059L124.592 120.059L124.592 120.06L124.593 120.063L124.596 120.081C124.599 120.099 124.603 120.126 124.608 120.163C124.618 120.236 124.632 120.347 124.645 120.489C124.67 120.774 124.692 121.184 124.675 121.677C124.643 122.668 124.458 123.976 123.859 125.276C123.263 126.57 122.252 127.865 120.548 128.843C118.838 129.823 116.4 130.5 112.924 130.5H112.865H112.805H112.746H112.686H112.626H112.566H112.506H112.446H112.385H112.325H112.264H112.203H112.142H112.081H112.02H111.959H111.898H111.836H111.775H111.713H111.651H111.589H111.527H111.465H111.403H111.341H111.278H111.216H111.153H111.09H111.028H110.965H110.902H110.839H110.775H110.712H110.649H110.585H110.521H110.458H110.394H110.33H110.266H110.202H110.138H110.074H110.009H109.945H109.88H109.816H109.751H109.686H109.622H109.557H109.492H109.427H109.362H109.296H109.231H109.166H109.1H109.035H108.969H108.904H108.838H108.772H108.706H108.64H108.574H108.508H108.442H108.376H108.31H108.244H108.177H108.111H108.044H107.978H107.911H107.845H107.778H107.711H107.645H107.578H107.511H107.444H107.377H107.31H107.243H107.176H107.109H107.042H106.974H106.907H106.84H106.772H106.705H106.638H106.57H106.503H106.435H106.368H106.3H106.232H106.165H106.097H106.029H105.962H105.894H105.826H105.758H105.69H105.622H105.555H105.487H105.419H105.351H105.283H105.215H105.147H105.079H105.011H104.943H104.875H104.807H104.739H104.671H104.603H104.534H104.466H104.398H104.33H104.262H104.194H104.126H104.058H103.99H103.921H103.853H103.785H103.717H103.649H103.581H103.513H103.445H103.377H103.309H103.241H103.173H103.105H103.037H102.969H102.901H102.833H102.765H102.697H102.629H102.561H102.493H102.425H102.358H102.29H102.222H102.154H102.087H102.019H101.951H101.884H101.816H101.749H101.681H101.614H101.546H101.479H101.411H101.344H101.277H101.209H101.142H101.075H101.008H100.941H100.874H100.807H100.74H100.673H100.606H100.539H100.473H100.406H100.339H100.273H100.206H100.14H100.073H100.007H99.9405H99.8742H99.808H99.7419H99.6758H99.6098H99.5439H99.478H99.4122H99.3464H99.2807H99.2151H99.1496H99.0841H99.0187H98.9534H98.8882H98.823H98.7579H98.6928H98.6279H98.563H98.4982H98.4335H98.3689H98.3044H98.2399H98.1755H98.1112H98.047H97.9829H97.9189H97.8549H97.7911H97.7273H97.6636H97.6001H97.5366H97.4732H97.4099H97.3467H97.2836H97.2206H97.1577H97.0949H97.0322H96.9696H96.9071H96.8447H96.7824H96.7203H96.6582H96.5962H96.5344H96.4726H96.411H96.3495H96.2881H96.2268H96.1656H96.1045H96.0436H95.9828H95.9221H95.8615H95.801H95.7407H95.6804H95.6203H95.5604H95.5005H95.4408H95.3812H95.3217H95.2624H95.2032H95.1441H95.0852H95.0263H94.9677H94.9091H94.8507H94.7924H94.7343H94.6763H94.6185H94.5608H94.5032H94.4458H94.3885H94.3313H94.2743H94.2175H94.1608H94.1042H94.0478H93.9916H93.9355H93.8795H93.8237H93.7681H93.7126H93.6573H93.6021H93.5471H93.4923H93.4376H93.383H93.3287H93.2744H93.2204H93.1665H93.1128H93.0593H93.0059H92.9527H92.8996H92.8468H92.7941H92.7415H92.6892H92.637H92.585H92.5332H92.4815H92.43H92.3788H92.3276H92.2767H92.226H92.1754H92.125H92.0748H92.0248H91.975H91.9253H91.8759H91.8266H91.7776H91.7287H91.68H91.6315H91.5832H91.5351H91.4872H91.4395H91.392H91.3447H91.2976H91.2507H91.204H91.1575H91.1112H91.0651H91.0192H90.9736H90.9281H90.8828H90.8378H90.7929H90.7483H90.7039H90.6597H90.6157H90.5719H90.5284H90.4851H90.4419H90.399H90.3564H90.3139H90.2717H90.2297H90.1879H90.1463H90.105H90.0639H90.023H89.9823H89.9419H89.9017H89.8618H89.8221H89.7826H89.7433H89.7043H89.6655H89.627H89.5887H89.5506H89.5128H89.4752H89.4379H89.4008H89.3639H89.3273H89.2909H89.2548H89.219H89.1833H89.148H89.1129H89.078H89.0434H89.009H88.9749H88.9411H88.9075H88.8742H88.8411H88.8083H88.7757H88.7435H88.7114H88.6797H88.6482H88.6169H88.586H88.5553H88.5249H88.4947H88.4648H88.4352H88.4059H88.3768H88.348H88.3195H88.2912H88.2633H88.2356H88.2082H88.181H88.1542H88.1276H88.1013H88.0753H88.0496H88.0242H87.999H87.9742H87.9496H87.9253H87.9013H87.8776H87.8542H87.8311H87.8083H87.7858H87.7636H87.7416H87.72H87.6987H87.6777H87.6569H87.6365H87.6164H87.5966H87.5771H87.5578H87.5389H87.5204H87.5021H87.5V56.5H138.5V56.5031V56.5334V56.5646V56.5966V56.6295V56.6632V56.6978V56.7331V56.7694V56.8064V56.8443V56.883V56.9225V56.9628V57.0039V57.0459V57.0886V57.1321V57.1765V57.2216V57.2676V57.3143V57.3618V57.4101V57.4592V57.509V57.5596V57.611V57.6632V57.7161V57.7698V57.8242V57.8794V57.9353V57.992V58.0494V58.1076V58.1665V58.2261V58.2865V58.3476V58.4094V58.472V58.5353V58.5992V58.6639V58.7293V58.7954V58.8622V58.9298V58.998V59.0669V59.1364V59.2067V59.2777V59.3493V59.4216V59.4946V59.5682V59.6426V59.7175V59.7932V59.8695V59.9464V60.024V60.1023V60.1812V60.2607V60.3409V60.4217V60.5032V60.5852V60.6679V60.7512V60.8352V60.9197V61.0049V61.0907V61.177V61.264V61.3516V61.4398V61.5286V61.6179V61.7079V61.7984V61.8895V61.9812V62.0734V62.1663V62.2597V62.3536V62.4481V62.5432V62.6389V62.735V62.8318V62.929V63.0269V63.1252V63.2241V63.3235V63.4235V63.524V63.625V63.7265V63.8285V63.9311V64.0341V64.1377V64.2417V64.3463V64.4514V64.5569V64.663V64.7695V64.8765V64.984V65.092V65.2004V65.3093V65.4187V65.5286V65.6389V65.7496V65.8609V65.9725V66.0847V66.1972V66.3102V66.4237V66.5376V66.6519V66.7666V66.8818V66.9974V67.1134V67.2298V67.3467V67.4639V67.5816V67.6996V67.8181V67.9369V68.0562V68.1758V68.2959V68.4163V68.5371V68.6582V68.7798V68.9017V69.024V69.1466V69.2696V69.393V69.5167V69.6408V69.7652V69.89V70.0151V70.1406V70.2663V70.3925V70.5189V70.6457V70.7728V70.9002V71.0279V71.156V71.2843V71.413V71.5419V71.6712V71.8008V71.9306V72.0608V72.1912V72.3219V72.4529V72.5842V72.7158V72.8476V72.9797V73.1121V73.2447V73.3775V73.5107V73.6441V73.7777V73.9116V74.0457V74.1801V74.3147V74.4495V74.5846V74.7199V74.8554V74.9911V75.127V75.2632V75.3996V75.5362V75.6729V75.8099V75.9471V76.0845V76.222V76.3598V76.4977V76.6359V76.7742V76.9126V77.0513V77.1901V77.3291V77.4682V77.6075V77.747V77.8866V78.0264V78.1663V78.3063V78.4465V78.5868V78.7273V78.8679V79.0086V79.1494V79.2904V79.4314V79.5726V79.7139V79.8553V79.9969V80.1385V80.2802V80.422V80.5639V80.7059V80.8479V80.9901V81.1323V81.2746V81.417V81.5595V81.702V81.8445V81.9872V82.1299V82.2726V82.4154V82.5582V82.7011V82.8441V82.987V83.13V83.273V83.4161V83.5592V83.7023V83.8454V83.9885V84.1316V84.2748V84.4179V84.5611V84.7042V84.8474V84.9905V85.1337V85.2768V85.4199V85.5629V85.706V85.849V85.992V86.135V86.2779V86.4208V86.5636V86.7064V86.8491V86.9918V87.1344V87.277V87.4195V87.562V87.7043V87.8466V87.9889V88.131V88.2731V88.4151V88.5569V88.6987V88.8404V88.982V89.1236V89.2649V89.4062V89.5474V89.6885V89.8294V89.9703V90.111V90.2515V90.392V90.5323V90.6725V90.8125V90.9524V91.0922V91.2318V91.3712V91.5105V91.6496V91.7886V91.9274V92.066V92.2045V92.3428V92.4809V92.6188V92.7565V92.8941V93.0314V93.1686V93.3056V93.4423V93.5789V93.7153V93.8514V93.9873V94.1231V94.2585V94.3938V94.5289V94.6637V94.7983V94.9326V95.0667V95.2006V95.3342V95.4675V95.6007V95.7335V95.8661V95.9984V96.1305V96.2623V96.3939V96.5251V96.6561V96.7868V96.9172V97.0473V97.1772V97.3067V97.4359V97.5649V97.6935V97.8218V97.9499V98.0776V98.205V98.332V98.4588V98.5852V98.7113V98.837V98.9625V99.0876V99.2123V99.3367V99.4607V99.5844V99.7078V99.8307V99.9534V100.076V100.198V100.319V100.44V100.561V100.681V100.801V100.921V101.04V101.159V101.277V101.395V101.513V101.63V101.747V101.863V101.979V102.095V102.21V102.325V102.439V102.553V102.666V102.779V102.892V103.004V103.116V103.227V103.337V103.448V103.558V103.667V103.776V103.884V103.992V104.1V104.207V104.313V104.419V104.525V104.63V104.734V104.838V104.942V105.045V105.147V105.249V105.351V105.452V105.552V105.652V105.751V105.85V105.948V106.046V106.144V106.24V106.336V106.432V106.527V106.621V106.715V106.809V106.901V106.994V107.085V107.176V107.267V107.357V107.446V107.535V107.623V107.71V107.797V107.884V107.969V108.055V108.139V108.223V108.306V108.389V108.471V108.552V108.633V108.713V108.793V108.871V108.95V109.027V109.104V109.18V109.256V109.331V109.405V109.479V109.552V109.624V109.696V109.766V109.837C138.5 112.713 137.664 114.717 136.447 116.124C135.224 117.539 133.579 118.393 131.899 118.896C130.218 119.4 128.528 119.546 127.252 119.564C126.615 119.573 126.085 119.55 125.716 119.525C125.532 119.513 125.388 119.5 125.291 119.49C125.242 119.485 125.205 119.481 125.181 119.479L125.155 119.476L125.149 119.475L125.148 119.475Z" stroke="#FFF500"/>
<path d="M87 56L87.5 56L87.5 56.5L87 56.5L87 56ZM68 18.5C57.7827 18.5 49.5 26.7827 49.5 37L48.5 37C48.5 26.2304 57.2304 17.5 68 17.5L68 18.5ZM86.5 37C86.5 26.7827 78.2173 18.5 68 18.5L68 17.5C78.7696 17.5 87.5 26.2304 87.5 37L86.5 37ZM86.5 56L86.5 37L87.5 37L87.5 56L86.5 56ZM68 55.5L87 55.5L87 56.5L68 56.5L68 55.5ZM49.5 37C49.5 47.2173 57.7827 55.5 68 55.5L68 56.5C57.2304 56.5 48.5 47.7696 48.5 37L49.5 37Z" fill="#FFF500"/>
<rect x="58.7714" y="34.8286" width="4.34286" height="4.34286" rx="2.17143" fill="#FFF500"/>
<rect x="65.8286" y="34.8286" width="4.34286" height="4.34286" rx="2.17143" fill="#FFF500"/>
<rect x="72.8857" y="34.8286" width="4.34286" height="4.34286" rx="2.17143" fill="#FFF500"/>
<line x1="113.5" y1="73.5" x2="113.5" y2="113.5" stroke="#FFF500" stroke-linecap="round" stroke-linejoin="round"/>
<line x1="131.5" y1="93.5" x2="95.5" y2="93.5" stroke="#FFF500" stroke-linecap="round" stroke-linejoin="round"/>
<line x1="121.556" y1="101.263" x2="106" y2="85.7071" stroke="#FFF500" stroke-linecap="round" stroke-linejoin="round"/>
<line x1="121.263" y1="85.7071" x2="105.707" y2="101.263" stroke="#FFF500" stroke-linecap="round" stroke-linejoin="round"/>
<path d="M114.5 145V177.5C114.5 188.546 123.454 197.5 134.5 197.5H148.021C154.304 197.5 160.222 194.547 164.001 189.526L188.499 156.974C192.278 151.953 198.196 149 204.479 149H239" stroke="#FFF500"/>
<circle cx="114.5" cy="144.5" r="3.5" fill="#FFF500"/>
<circle cx="298" cy="210" r="98" fill="#FF6666"/>
<path d="M279.853 282.957L235.469 254.44C231.767 252.062 231.44 246.774 234.819 243.957C236.586 242.485 238.998 242.053 241.165 242.821L292.502 261.019C297.017 262.62 301.956 262.547 306.421 260.813L370.482 235.948C373.615 234.732 377.149 235.171 379.889 237.117L397.529 249.641L307.159 285.593C298.165 289.171 287.997 288.189 279.853 282.957Z" fill="#0D06C1"/>
<path d="M265.677 304.644L211.694 256.867C207.902 253.511 207.973 247.571 211.845 244.307C214.166 242.349 217.372 241.816 220.203 242.917L291.959 270.818C299.645 273.807 308.223 273.499 315.675 269.969L376.792 241.014C381.447 238.808 387.016 240.5 389.658 244.922L400.183 262.54L298.082 309.44C287.284 314.4 274.575 312.519 265.677 304.644Z" fill="#241ED3"/>
<path d="M273.073 305.778L196.528 265.84C191.993 263.474 190.335 257.812 192.877 253.374C195 249.669 199.432 247.962 203.491 249.288L290.421 277.665C298.786 280.396 307.928 279.317 315.426 274.713L375.768 237.668C380.743 234.614 387.265 236.453 389.912 241.656L399.583 260.665L299.426 306.464C291.007 310.314 281.281 310.061 273.073 305.778Z" fill="#403ADD"/>
<rect x="418" y="56" width="78" height="59" fill="#5B57CA"/>
<rect x="418" y="56" width="39" height="21" fill="#FF0F00"/>
<path d="M430.599 61L425 66.5991L430.599 72.1981" stroke="black" stroke-linecap="round" stroke-linejoin="round"/>
<path d="M444.432 61L450.031 66.5991L444.432 72.1981" stroke="black" stroke-linecap="round" stroke-linejoin="round"/>
<line x1="440.272" y1="61.683" x2="434.514" y2="71.6558" stroke="black" stroke-linecap="round" stroke-linejoin="round"/>
<rect x="379" y="18" width="78" height="59" stroke="#FFF500"/>
<path d="M496 56L495.5 56L495.5 56.5L496 56.5L496 56ZM515 56L515 55.5L515 56ZM515 18.5C525.217 18.5 533.5 26.7827 533.5 37L534.5 37C534.5 26.2304 525.77 17.5 515 17.5L515 18.5ZM496.5 37C496.5 26.7827 504.783 18.5 515 18.5L515 17.5C504.23 17.5 495.5 26.2304 495.5 37L496.5 37ZM496.5 56L496.5 37L495.5 37L495.5 56L496.5 56ZM515 55.5L496 55.5L496 56.5L515 56.5L515 55.5ZM533.5 37C533.5 47.2173 525.217 55.5 515 55.5L515 56.5C525.77 56.5 534.5 47.7696 534.5 37L533.5 37Z" fill="#5B57CA"/>
<rect width="4.34286" height="4.34286" rx="2.17143" transform="matrix(-1 0 0 1 524.229 34.8286)" fill="#5B57CA"/>
<rect width="4.34286" height="4.34286" rx="2.17143" transform="matrix(-1 0 0 1 517.171 34.8286)" fill="#5B57CA"/>
<rect width="4.34286" height="4.34286" rx="2.17143" transform="matrix(-1 0 0 1 510.343 35)" fill="#5B57CA"/>
<circle cx="300" cy="205" r="178" fill="#FFF500" fill-opacity="0.1"/>
<circle cx="300" cy="205" r="142" fill="#FFF500" fill-opacity="0.1"/>
<circle cx="298" cy="210" r="103" fill="#FFF500" fill-opacity="0.87"/>
<path d="M286.962 320.569L199.187 278.806C195.252 276.934 194.074 271.892 196.771 268.469C200.999 263.104 208.031 260.795 214.617 262.61L277.421 279.914C285.24 282.068 293.599 280.965 300.592 276.854L369.272 236.484C374.183 233.597 371.218 226.06 365.657 227.292L349.66 230.837C342.556 232.411 335.301 233.205 328.025 233.205L289.784 233.205C284.506 233.205 279.936 229.537 278.794 224.384C277.482 218.463 281.097 212.567 286.969 211.05L317.361 203.198C331.697 199.495 345.439 193.789 358.182 186.248L373.495 177.187C392.812 165.756 415.413 161.156 437.661 164.128L491.447 171.312C520.598 175.206 538.24 205.558 527.196 232.815L526.147 235.403C519.265 252.389 502.768 263.504 484.441 263.504L458.247 263.504C450.121 263.504 442.079 265.155 434.609 268.357L311.67 321.053C303.747 324.449 294.746 324.273 286.962 320.569Z" fill="#5B57CA"/>
</g>
<defs>
<clipPath id="clip0">
<rect width="595" height="421" fill="white"/>
</clipPath>
</defs>
</svg>
