<svg width="595" height="421" viewBox="0 0 595 421" fill="none" xmlns="http://www.w3.org/2000/svg">
<g clip-path="url(#clip0)">
<rect width="595" height="421" fill="#56CCF2"/>
<path d="M392.834 164.705L411 8.13783e-06L330.828 -3.50442e-06L346.302 156.191C348.325 176.614 341.041 196.861 326.472 211.315L314.805 222.888C310.111 227.545 311.609 235.471 317.679 238.093C325.66 241.542 330.828 249.405 330.828 258.1L330.828 288.307C330.828 289.973 331.407 291.586 332.465 292.872L333.052 293.585C335.395 296.432 339.329 297.403 342.726 295.972C345.018 295.007 347.664 295.492 349.465 297.207L351.537 299.179C354.53 302.029 359.054 302.534 362.601 300.414C364.706 299.156 367.321 299.11 369.469 300.293L370.507 300.865C373.972 302.773 378.233 302.471 381.394 300.094C383.688 298.37 386.609 297.708 389.422 298.275L389.848 298.361C394.214 299.242 398.493 296.503 399.521 292.169L407.478 258.622C409.774 248.944 409.131 238.802 405.631 229.491L398.625 210.85C393.095 196.138 391.111 180.328 392.834 164.705Z" fill="#FFB7B7"/>
<path d="M265.819 126.96L103 120.322L103 203.378L268.861 184.765C284.59 183 300.352 187.783 312.447 197.991L320.18 204.517C325.186 208.742 332.851 206.939 335.449 200.926C339.056 192.577 347.28 187.172 356.375 187.172L390.924 187.172C392.589 187.172 394.203 186.593 395.489 185.535L396.202 184.948C399.049 182.605 400.019 178.671 398.589 175.274C397.624 172.982 398.109 170.336 399.823 168.535L401.796 166.463C404.645 163.47 405.15 158.946 403.031 155.399C401.773 153.294 401.727 150.679 402.91 148.531L403.482 147.493C405.39 144.028 405.088 139.767 402.711 136.606C400.986 134.312 400.325 131.391 400.892 128.578L400.967 128.208C401.85 123.833 399.059 119.56 394.698 118.61L355.81 110.14C346.399 108.091 336.595 108.803 327.579 112.192L305.075 120.65C292.544 125.36 279.195 127.506 265.819 126.96Z" fill="#683838"/>
<path d="M206.166 256.295L188 421L268.172 421L252.698 264.809C250.675 244.386 257.959 224.139 272.528 209.685L284.195 198.112C288.889 193.455 287.391 185.529 281.321 182.907C273.34 179.458 268.172 171.595 268.172 162.9L268.172 129.693C268.172 128.027 267.593 126.414 266.535 125.128L265.948 124.415C263.605 121.568 259.671 120.597 256.274 122.028C253.982 122.993 251.336 122.508 249.535 120.793L247.463 118.821C244.47 115.971 239.946 115.466 236.399 117.586C234.294 118.844 231.679 118.89 229.531 117.707L228.493 117.135C225.028 115.227 220.767 115.529 217.606 117.906C215.312 119.63 212.391 120.292 209.578 119.725L209.187 119.646C204.815 118.763 200.54 121.535 199.56 125.885L191.283 162.642C189.141 172.156 189.828 182.089 193.259 191.217L200.375 210.15C205.905 224.862 207.889 240.672 206.166 256.295Z" fill="#FF7F80"/>
<path d="M329.995 293.024L486 292L486 219.996L323.892 235.664C309.443 237.061 294.972 233.238 283.098 224.889L275.008 219.201C269.726 215.486 262.364 217.564 259.803 223.492C256.043 232.194 247.47 237.828 237.99 237.828L209.076 237.828C207.41 237.828 205.797 238.407 204.511 239.465L203.798 240.052C200.951 242.395 199.98 246.329 201.411 249.726C202.376 252.018 201.891 254.664 200.176 256.465L198.204 258.537C195.354 261.53 194.849 266.054 196.969 269.601C198.227 271.706 198.273 274.321 197.09 276.469L196.518 277.507C194.61 280.972 194.912 285.233 197.289 288.394C199.013 290.688 199.675 293.609 199.108 296.422L199.022 296.848C198.141 301.214 200.88 305.493 205.214 306.521L237.08 314.08C247.798 316.622 259.055 315.554 269.104 311.041L289.681 301.799C302.363 296.103 316.093 293.115 329.995 293.024Z" fill="#391F1F"/>
<path d="M407.329 234.008L399.195 212.367C393.792 197.991 380.042 188.47 364.685 188.47C354.958 188.47 345.625 192.314 338.72 199.164L314.805 222.888C310.111 227.545 311.609 235.471 317.679 238.093C325.66 241.542 330.828 249.405 330.828 258.1L330.828 292.307C330.828 293.973 331.407 295.586 332.465 296.872L333.052 297.585C335.395 300.432 339.329 301.403 342.726 299.972C345.018 299.007 347.664 299.492 349.465 301.207L351.537 303.179C354.53 306.029 359.054 306.534 362.601 304.414C364.706 303.156 367.321 303.11 369.469 304.293L370.507 304.865C373.972 306.773 378.233 306.471 381.394 304.094C383.688 302.37 386.609 301.708 389.422 302.275L389.803 302.352C394.176 303.235 398.45 300.453 399.415 296.098L408.744 253.962C410.216 247.314 409.725 240.382 407.329 234.008Z" fill="#FFB7B7"/>
<path d="M105.678 209.049C105.276 211.223 103.494 212.874 101.296 213.11L7.62939e-06 224L1.0141e-05 108L117.359 115.156C120.356 115.339 122.518 118.104 121.971 121.057L105.678 209.049Z" fill="black"/>
<path d="M321 0H419L410.911 89.4503C410.678 92.0267 408.519 94 405.932 94H335.496C332.94 94 330.795 92.0713 330.524 89.5289L321 0Z" fill="#FF776E"/>
<path d="M459 224.818C459 222.232 460.972 220.072 463.548 219.839L572 210V294C572 296.761 569.761 299 567 299H464C461.239 299 459 296.761 459 294V224.818Z" fill="white"/>
<path d="M482 219.482C482 216.907 483.955 214.753 486.518 214.505L595 204V294C595 296.761 592.761 299 590 299H487C484.239 299 482 296.761 482 294V219.482Z" fill="#0000FF"/>
<path d="M188 336C188 333.239 190.239 331 193 331H264C266.761 331 269 333.239 269 336V365H188V336Z" fill="#9F9F9F"/>
<path d="M181 357C181 354.239 183.239 352 186 352H271C273.761 352 276 354.239 276 357V421H181V357Z" fill="#C4C4C4"/>
</g>
<defs>
<clipPath id="clip0">
<rect width="595" height="421" fill="white"/>
</clipPath>
</defs>
</svg>
