<svg width="420" height="420" viewBox="0 0 420 420" fill="none" xmlns="http://www.w3.org/2000/svg">
<rect width="420" height="420" fill="#5B57CA"/>
<circle cx="89.5" cy="148.5" r="24" fill="#FF9999"/>
<circle cx="89.5" cy="148.5" r="14" stroke="#FFF500"/>
<path d="M51 148.5C51 127.237 68.237 110 89.5 110" stroke="#FFF500" stroke-linecap="round"/>
<circle cx="169.5" cy="64.5" r="17" fill="black"/>
<circle cx="225" cy="159" r="15" fill="black"/>
<circle cx="305" cy="176" r="16" fill="#FFF500"/>
<circle cx="245" cy="29" r="5" fill="#FFF500"/>
<circle cx="257" cy="29" r="4.5" stroke="#FFF500"/>
<circle cx="269" cy="29" r="4.5" stroke="#FFF500"/>
<circle cx="281" cy="29" r="4.5" stroke="#FFF500"/>
<circle cx="167.5" cy="125.5" r="2.5" fill="#FFF500"/>
<circle cx="170.5" cy="132.5" r="2.5" fill="#FFF500"/>
<circle cx="173.5" cy="139.5" r="2.5" fill="#FFF500"/>
<circle cx="250" cy="195" r="3" fill="#FFF500"/>
<circle cx="257" cy="195" r="2" fill="#FFF500"/>
<circle cx="219" cy="195" r="2" fill="#FFF500"/>
<circle cx="262" cy="195" r="1" fill="#FFF500"/>
<circle cx="214" cy="195" r="1" fill="#FFF500"/>
<circle cx="242" cy="195" r="3" fill="#FFF500"/>
<circle cx="234" cy="195" r="3" fill="#FFF500"/>
<circle cx="226" cy="195" r="3" fill="#FFF500"/>
<circle cx="175.5" cy="145.5" r="1.5" fill="#FFF500"/>
<circle cx="329.5" cy="107.5" r="54.5" fill="black"/>
<path fill-rule="evenodd" clip-rule="evenodd" d="M316 265C316 245.67 300.33 230 281 230C261.67 230 246 245.67 246 265L246 300L281 300C300.33 300 316 284.33 316 265Z" fill="black"/>
<path d="M246 300L245.5 300L245.5 300.5L246 300.5L246 300ZM281 230.5C300.054 230.5 315.5 245.946 315.5 265L316.5 265C316.5 245.394 300.606 229.5 281 229.5L281 230.5ZM246.5 265C246.5 245.946 261.946 230.5 281 230.5L281 229.5C261.394 229.5 245.5 245.394 245.5 265L246.5 265ZM246.5 300L246.5 265L245.5 265L245.5 300L246.5 300ZM281 299.5L246 299.5L246 300.5L281 300.5L281 299.5ZM315.5 265C315.5 284.054 300.054 299.5 281 299.5L281 300.5C300.606 300.5 316.5 284.606 316.5 265L315.5 265Z" fill="#FFF500"/>
<rect x="-0.5" y="0.5" width="7" height="7" rx="3.5" transform="matrix(-1 0 0 1 297 261)" stroke="white"/>
<rect x="-0.5" y="0.5" width="7" height="7" rx="3.5" transform="matrix(-1 0 0 1 284 261)" stroke="white"/>
<rect x="-0.5" y="0.5" width="7" height="7" rx="3.5" transform="matrix(-1 0 0 1 271 261)" stroke="white"/>
<circle cx="165.5" cy="119.5" r="1.5" fill="#FFF500"/>
<circle cx="329.5" cy="107.5" r="35.5" stroke="#FFF500"/>
<circle cx="169.5" cy="299.5" r="56" fill="#FFF500"/>
<path d="M246 300C246 338.108 214.884 369 176.5 369C138.116 369 107.5 338.108 107.5 300" stroke="#FFF500"/>
<path d="M197.5 66L190.1 53.3141C184.264 43.3098 172.072 38.9609 161.222 43.0133V43.0133C148.744 47.6738 142.523 61.669 147.422 74.0551L228.039 277.858C238.272 303.727 229.38 333.238 206.559 349.148L203.873 351.02C178.032 369.035 142.661 363.999 122.874 339.489L120.747 336.854C98.9592 309.866 104.887 269.826 133.245 249.855V249.855C145.043 241.547 159.245 237 173.674 237H228.169C253.521 237 274.86 218.027 277.826 192.849L288.305 103.889C289.403 94.5691 293.609 85.8908 300.245 79.255L301.235 78.2651C316.276 63.2241 340.423 62.481 356.36 76.5686V76.5686C372 90.3929 374.478 113.878 362.069 130.662L320.496 186.89C316.725 191.991 310.758 195 304.414 195H184.003C167.704 195 152.428 187.055 143.068 173.711L113.33 131.311C109.555 125.93 104.068 121.987 97.7631 120.127V120.127C85.4425 116.491 72.1202 121.494 65.1107 132.259V132.259C52.2354 152.031 66.2305 178.5 89.8257 178.5H225.273C240.463 178.5 250.108 162.234 242.822 148.907L197.5 66Z" stroke="#FFF500"/>
<path d="M229.922 125.842L235.056 135.73L235.944 135.27L230.809 125.381L229.922 125.842ZM224.875 70.625V105.17H225.875V70.625H224.875ZM244.5 28.5V51H245.5V28.5H244.5ZM244.5 51C244.5 56.1432 240.331 60.3125 235.188 60.3125V61.3125C240.883 61.3125 245.5 56.6954 245.5 51H244.5ZM225.875 70.625C225.875 65.4818 230.044 61.3125 235.188 61.3125V60.3125C229.492 60.3125 224.875 64.9296 224.875 70.625H225.875ZM230.809 125.381C227.567 119.137 225.875 112.205 225.875 105.17H224.875C224.875 112.366 226.606 119.456 229.922 125.842L230.809 125.381Z" fill="#FFF500"/>
<circle cx="329.5" cy="107.5" r="25.5" fill="#FFF500"/>
<line x1="169.869" y1="284" x2="169.869" y2="316.729" stroke="#FF6666"/>
<line x1="184.536" y1="300.465" x2="155" y2="300.465" stroke="#FF6666"/>
<line x1="176.41" y1="306.915" x2="163.427" y2="293.933" stroke="#FF6666"/>
<line x1="176.319" y1="293.933" x2="163.336" y2="306.915" stroke="#FF6666"/>
<path d="M230.638 154.354C230.833 154.158 230.833 153.842 230.638 153.646C230.443 153.451 230.126 153.451 229.931 153.646L230.638 154.354ZM219.646 163.931C219.451 164.126 219.451 164.443 219.646 164.638C219.842 164.833 220.158 164.833 220.354 164.638L219.646 163.931ZM229.931 153.646L219.646 163.931L220.354 164.638L230.638 154.354L229.931 153.646Z" fill="white"/>
<path d="M229.931 164.638C230.126 164.833 230.443 164.833 230.638 164.638C230.833 164.443 230.833 164.126 230.638 163.931L229.931 164.638ZM220.354 153.646C220.158 153.451 219.842 153.451 219.646 153.646C219.451 153.842 219.451 154.158 219.646 154.354L220.354 153.646ZM230.638 163.931L220.354 153.646L219.646 154.354L229.931 164.638L230.638 163.931Z" fill="white"/>
</svg>
