<svg width="420" height="420" viewBox="0 0 420 420" fill="none" xmlns="http://www.w3.org/2000/svg">
<rect width="420" height="420" fill="#56CCF2"/>
<circle cx="279" cy="262" r="8" fill="#FF0F00"/>
<rect x="168" y="232" width="99" height="125" stroke="white" stroke-width="2"/>
<rect x="250" y="64" width="99" height="125" fill="white"/>
<rect x="260" y="74" width="99" height="125" fill="black"/>
<rect x="178" y="242" width="99" height="125" stroke="black" stroke-width="2"/>
<line x1="213.707" y1="247.618" x2="183.421" y2="277.904" stroke="white" stroke-width="2"/>
<line x1="183.421" y1="247.466" x2="213.707" y2="277.751" stroke="white" stroke-width="2"/>
<rect x="178" y="242" width="40" height="40" stroke="white" stroke-width="2"/>
<path d="M249 125.803L140.087 125.803C110.768 125.803 87 149.571 87 178.89C87 208.209 110.768 231.977 140.087 231.977L168.5 231.977" stroke="white" stroke-width="2" stroke-linecap="round" stroke-linejoin="round"/>
<path d="M236.492 112L250.349 125.857L236.492 139.714" stroke="white" stroke-width="2"/>
<path d="M359.043 198C376.692 198 391 212.327 391 230C391 247.673 376.692 262 359.043 262L279 262" stroke="black" stroke-width="2"/>
<path d="M287.258 270.253L279 261.995L287.258 253.736" stroke="black" stroke-width="2"/>
<rect x="92.3524" y="53" width="99" height="125" transform="rotate(15 92.3524 53)" fill="#FFF500"/>
<line x1="124.149" y1="91" x2="124.149" y2="160.811" stroke="#FF6666"/>
<line x1="156" y1="125.554" x2="93" y2="125.554" stroke="#FF6666"/>
<line x1="139.068" y1="139.478" x2="111.376" y2="111.786" stroke="#FF6666"/>
<line x1="138.072" y1="111.786" x2="110.381" y2="139.478" stroke="#FF6666"/>
<path d="M309.022 95.5984C309.246 94.5425 310.754 94.5425 310.978 95.5985L315.167 115.294C315.328 116.047 316.243 116.344 316.815 115.829L331.781 102.358C332.583 101.635 333.802 102.521 333.363 103.507L325.176 121.904C324.863 122.607 325.428 123.385 326.194 123.305L346.22 121.203C347.293 121.09 347.759 122.524 346.824 123.064L329.387 133.134C328.721 133.519 328.721 134.481 329.387 134.866L346.824 144.936C347.759 145.476 347.293 146.91 346.22 146.797L326.194 144.695C325.428 144.615 324.863 145.393 325.176 146.096L333.363 164.493C333.802 165.479 332.583 166.365 331.781 165.642L316.815 152.171C316.243 151.656 315.328 151.953 315.167 152.706L310.978 172.402C310.754 173.457 309.246 173.457 309.022 172.402L304.833 152.706C304.672 151.953 303.757 151.656 303.185 152.171L288.219 165.642C287.417 166.365 286.198 165.479 286.637 164.493L294.824 146.096C295.137 145.393 294.572 144.615 293.806 144.695L273.78 146.797C272.707 146.91 272.241 145.476 273.176 144.936L290.613 134.866C291.279 134.481 291.279 133.519 290.613 133.134L273.176 123.064C272.241 122.524 272.707 121.09 273.78 121.203L293.806 123.305C294.572 123.385 295.137 122.607 294.824 121.904L286.637 103.507C286.198 102.521 287.417 101.635 288.219 102.358L303.185 115.829C303.757 116.344 304.672 116.047 304.833 115.294L309.022 95.5984Z" fill="#FFF500"/>
<circle cx="250" cy="126" r="8" fill="#FFF500"/>
<path d="M214.583 295.726C251.268 291.077 263.068 310.278 227.923 310.278C192.778 310.278 199.448 302.234 227.923 302.234C256.398 302.234 254.603 322.455 227.923 322.455C210.479 322.455 207.4 316.283 227.666 316.283C245.173 316.283 250.99 329 222.514 329" stroke="#FFF500"/>
</svg>
