<svg width="420" height="420" viewBox="0 0 420 420" fill="none" xmlns="http://www.w3.org/2000/svg">
<g clip-path="url(#clip0)">
<rect width="420" height="420" fill="#FDBBAB"/>
<path d="M361.635 243.977L281.771 315.914C276.309 320.834 267.893 320.395 262.973 314.933C257.687 309.064 258.644 299.909 265.031 295.262L351.94 232.017C355.132 229.695 359.562 230.158 362.203 233.091C365.052 236.254 364.798 241.128 361.635 243.977Z" fill="#0D06C1"/>
<path d="M330.825 259.549L301.221 297.717C296.129 304.281 286.789 305.711 279.967 300.969C271.708 295.228 270.95 283.291 278.416 276.552L310.067 247.982C311.212 246.949 312.233 245.787 313.111 244.519L343.126 201.157C346.072 196.902 351.911 195.846 356.16 198.8C360.161 201.581 361.358 206.967 358.911 211.181L330.825 259.549Z" fill="#241ED3"/>
<path d="M325.982 247.711L306.008 291.312C302.532 298.898 293.818 302.548 285.974 299.703C276.41 296.235 272.456 284.849 277.812 276.2L300.968 238.803C301.78 237.492 302.437 236.091 302.927 234.629L323.785 172.387C325.474 167.346 330.983 164.686 335.981 166.498C340.447 168.118 343.019 172.798 341.993 177.437L327.327 243.703C327.021 245.083 326.571 246.426 325.982 247.711Z" fill="#403ADD"/>
<path d="M306.295 234.532L306.609 280.106C306.666 288.324 303.349 296.205 297.433 301.909L267.994 330.294C260.352 337.662 256.035 347.821 256.035 358.437L256.035 368.911C256.035 385.381 244.735 399.701 228.715 403.53C206.362 408.873 184.88 391.948 184.845 368.965L184.778 325.36L184.898 248.589C184.908 242.049 188.114 235.928 193.485 232.196L217.041 215.827C220.658 213.313 225.602 214.02 228.371 217.445C230.86 220.525 230.861 224.925 228.372 228.006L220.399 237.877C216.737 242.41 215.235 248.316 216.286 254.048L218.426 265.732C219.842 273.459 225.715 279.607 233.37 281.376C247.239 284.581 261.422 277.442 267.111 264.394L273.386 250.003C276.461 242.95 272.772 234.785 265.447 232.431L234.923 222.62C231.018 221.365 228.727 217.328 229.65 213.332C230.577 209.321 234.432 206.697 238.503 207.305L289.251 214.89C298.995 216.346 306.227 224.68 306.295 234.532Z" fill="#5B57CA"/>
<path fill-rule="evenodd" clip-rule="evenodd" d="M229.429 199.97L229.429 216.737C229.429 217.684 228.234 218.101 227.646 217.358L226.75 216.229C222.956 211.444 217.185 208.655 211.079 208.655L131.734 208.655C131.728 208.655 131.721 208.655 131.715 208.655C77.7484 208.655 34 164.906 34 110.94C34 56.9737 77.7484 13.2253 131.715 13.2253C185.681 13.2253 229.429 56.9737 229.429 110.94L229.429 199.97Z" fill="#FF7F80"/>
<path fill-rule="evenodd" clip-rule="evenodd" d="M162.009 49.5447C159.78 48.9533 157.745 50.9933 158.341 53.2209L162.123 67.3353C162.389 68.3273 162.145 69.4067 161.36 70.0689C158.407 72.5593 154.491 73.6087 150.689 72.9283C149.678 72.7474 148.926 71.9347 148.661 70.9426L144.922 56.9916C144.326 54.7641 141.543 54.0149 139.909 55.6416L134.573 60.951C133.811 61.7089 133.513 62.8162 133.791 63.854L138.73 82.2844C139.008 83.3222 139.82 84.1321 140.858 84.4076L146.016 85.7762C149.478 86.6946 152.184 89.3942 153.111 92.8536L175.529 176.518C176.742 181.046 181.397 183.733 185.925 182.52C190.453 181.306 193.14 176.652 191.927 172.124L169.509 88.4596C168.582 85.0002 169.576 81.3092 172.115 78.783L175.898 75.0188C176.659 74.2609 176.958 73.1536 176.679 72.1158L171.741 53.6854C171.463 52.6476 170.651 51.8377 169.613 51.5622L162.009 49.5447Z" fill="#FFF500"/>
<rect width="9.70085" height="96.5235" rx="4.85043" transform="matrix(-0.965926 0.258819 0.258819 0.965926 164.457 84.5964)" fill="#F3E900"/>
<path d="M229 89L228.5 89L229 89ZM229 149L228.5 149L228.5 149.5L229 149.5L229 149ZM289 29.5C321.861 29.5 348.5 56.1391 348.5 89L349.5 89C349.5 55.5868 322.413 28.5 289 28.5L289 29.5ZM229.5 89C229.5 56.139 256.139 29.5 289 29.5L289 28.5C255.587 28.5 228.5 55.5868 228.5 89L229.5 89ZM229.5 149L229.5 89L228.5 89L228.5 149L229.5 149ZM289 148.5L229 148.5L229 149.5L289 149.5L289 148.5ZM348.5 89C348.5 121.861 321.861 148.5 289 148.5L289 149.5C322.413 149.5 349.5 122.413 349.5 89L348.5 89Z" fill="white"/>
<path d="M104.519 39C97.8179 39 92.3859 44.432 92.3859 51.1328L92.3859 107.282L116.651 107.282L116.651 51.1328C116.651 44.432 111.219 39 104.519 39Z" fill="#FFF500"/>
<rect width="2.82158" height="53.0456" rx="1.41079" transform="matrix(1 -5.18986e-09 -5.18986e-09 -1 97.4647 102.203)" fill="#F3EA00"/>
<rect width="2.82158" height="53.0456" rx="1.41079" transform="matrix(1 -5.18986e-09 -5.18986e-09 -1 108.751 102.203)" fill="#F3EA00"/>
<rect width="2.82158" height="53.0456" rx="1.41079" transform="matrix(1 -5.18986e-09 -5.18986e-09 -1 103.108 102.203)" fill="#F3EA00"/>
<path d="M99.9072 173.842C99.81 174.45 100.279 175 100.895 175L108.707 175C109.322 175 109.792 174.45 109.694 173.842L107.635 160.971C107.627 160.918 107.622 160.866 107.622 160.813L107.622 110.668C107.622 109.11 106.359 107.846 104.801 107.846C103.242 107.846 101.979 109.11 101.979 110.668L101.979 160.813C101.979 160.866 101.975 160.918 101.967 160.971L99.9072 173.842Z" fill="#E6E6E6"/>
<path d="M99.9072 173.842C99.81 174.45 100.279 175 100.895 175L108.707 175C109.322 175 109.792 174.45 109.694 173.842L107.757 161.734C107.679 161.249 107.261 160.892 106.77 160.892L102.832 160.892C102.341 160.892 101.922 161.249 101.844 161.734L99.9072 173.842Z" fill="white"/>
<rect width="31.0373" height="5.07884" rx="2.53942" transform="matrix(1 -5.18986e-09 -5.18986e-09 -1 89 110.668)" fill="#F3EA00"/>
<path fill-rule="evenodd" clip-rule="evenodd" d="M285.056 76.9093C284.964 77.2544 285.063 77.6226 285.315 77.8753L297.296 89.8558C297.548 90.1084 297.917 90.207 298.262 90.1146L314.627 85.7294C314.972 85.6369 315.242 85.3674 315.334 85.0223L319.72 68.6567C319.812 68.3116 319.713 67.9434 319.461 67.6907L307.48 55.7102C307.228 55.4576 306.86 55.3589 306.514 55.4514L290.149 59.8366C289.804 59.929 289.534 60.1986 289.442 60.5437L285.056 76.9093ZM299.681 62.4589C293.813 64.0313 290.33 70.063 291.903 75.9311C293.475 81.7992 299.507 85.2816 305.375 83.7093C311.243 82.1369 314.725 76.1052 313.153 70.2371C311.581 64.3689 305.549 60.8865 299.681 62.4589Z" fill="#FFF500"/>
<path d="M277.594 122.098C277.873 122.575 277.713 123.187 277.236 123.466L266.018 130.035C265.541 130.314 264.929 130.153 264.649 129.677L245.955 97.7467C245.676 97.2701 245.837 96.6575 246.313 96.3784L257.532 89.8103C258.008 89.5312 258.621 89.6914 258.9 90.168L277.594 122.098Z" fill="#FFF500"/>
<rect x="291.708" y="125.423" width="35.2918" height="9.43143" rx="1" transform="rotate(149.652 291.708 125.423)" fill="#FFF500"/>
<rect x="283.831" y="130.034" width="17.0374" height="9.43143" rx="1" transform="rotate(149.652 283.831 130.034)" fill="#F3EA00"/>
</g>
<defs>
<clipPath id="clip0">
<rect width="420" height="420" fill="white"/>
</clipPath>
</defs>
</svg>
