<svg width="1080" height="1080" viewBox="0 0 1080 1080" fill="none" xmlns="http://www.w3.org/2000/svg">
<g clip-path="url(#clip0)">
<rect width="1080" height="1080" fill="#503521"/>
<ellipse cx="402.5" cy="401" rx="402.5" ry="402" fill="url(#paint0_radial)" style="mix-blend-mode:multiply"/>
<g filter="url(#filter0_di)">
<path d="M685.5 685.664C605.143 766.112 474.857 766.112 394.5 685.664L249 540L394.5 394.336C474.857 313.888 605.143 313.888 685.5 394.336L831 540L685.5 685.664Z" fill="white"/>
</g>
<path d="M648.074 673.806C624.586 692.777 596.518 705.231 566.692 709.916L550.677 607.967C562.607 606.092 573.834 601.111 583.23 593.522L648.074 673.806Z" fill="#FFF500"/>
<path d="M396.999 444.424C405.195 432.162 414.933 421.005 425.975 411.228L494.39 488.491C489.973 492.402 486.078 496.865 482.8 501.77L396.999 444.424Z" fill="#FDBBAB"/>
<path d="M575.86 708.22C556.266 712.397 536.093 713.119 516.251 710.353L530.5 608.141C538.437 609.248 546.507 608.959 554.344 607.288L575.86 708.22Z" fill="#00BA8D"/>
<path d="M710.373 563.601C704.114 608.787 680.161 649.635 643.784 677.16L581.514 594.864C596.064 583.854 605.646 567.515 608.149 549.44L710.373 563.601Z" fill="#FF7A00"/>
<path d="M518.211 710.614C472.962 704.836 431.861 681.318 403.951 645.236L485.58 582.094C496.744 596.527 513.185 605.934 531.285 608.246L518.211 710.614Z" fill="#FDBBAB"/>
<path d="M406.539 648.5C396.879 636.617 388.849 623.498 382.662 609.49L477.065 567.796C479.54 573.399 482.752 578.647 486.616 583.4L406.539 648.5Z" fill="#826B55"/>
<path d="M391.044 626C374.499 597.343 366.571 564.522 368.212 531.472C369.852 498.422 380.992 466.548 400.294 439.67L484.117 499.868C476.397 510.619 471.941 523.369 471.285 536.589C470.628 549.809 473.799 562.937 480.417 574.4L391.044 626Z" fill="#00BA8D"/>
<path d="M544.084 368.049C570.596 368.678 596.602 375.43 620.072 387.775L572.029 479.11C562.641 474.172 552.238 471.471 541.634 471.219L544.084 368.049Z" fill="#00BA8D"/>
<path d="M420.536 416.257C438.798 398.626 460.737 385.256 484.777 377.106C508.818 368.956 534.364 366.228 559.584 369.119L547.833 471.647C537.746 470.491 527.527 471.582 517.911 474.842C508.295 478.102 499.519 483.45 492.214 490.503L420.536 416.257Z" fill="#FFF500"/>
<path d="M613.069 384.292C650.763 401.981 680.761 432.742 697.496 470.869L602.998 512.348C596.304 497.097 584.305 484.792 569.228 477.717L613.069 384.292Z" fill="#FF7A00"/>
<path d="M688.956 454C710.061 490.554 716.987 533.592 708.418 574.922L607.367 553.969C610.795 537.437 608.024 520.222 599.583 505.6L688.956 454Z" fill="#00BA8D"/>
<path d="M546.263 711.886C516.091 712.985 486.161 706.123 459.481 691.989L491.689 631.194C507.696 639.674 525.655 643.791 543.758 643.132L546.263 711.886Z" fill="#FFF500"/>
<path d="M482.862 377.768C496.773 372.868 511.257 369.779 525.956 368.574L531.574 437.145C522.754 437.867 514.064 439.721 505.717 442.661L482.862 377.768Z" fill="#FDBBAB"/>
<path d="M467.836 696.129C449.65 687.724 433.073 676.206 418.852 662.095L467.311 613.257C475.844 621.723 485.79 628.634 496.701 633.677L467.836 696.129Z" fill="#00BA8D"/>
<path d="M662.2 661.042C630.097 693.452 586.435 711.781 540.818 711.998L540.491 643.199C567.861 643.069 594.058 632.071 613.32 612.625L662.2 661.042Z" fill="#FF7A00"/>
<path d="M420.263 663.479C387.515 631.723 368.722 588.258 368.02 542.647L436.812 541.588C437.233 568.955 448.509 595.034 468.158 614.088L420.263 663.479Z" fill="#FDBBAB"/>
<path d="M368.135 546.811C367.528 531.509 368.968 516.195 372.416 501.275L439.45 516.765C437.381 525.717 436.517 534.906 436.881 544.087L368.135 546.811Z" fill="#826B55"/>
<path d="M369.224 519.513C373.166 486.659 386.501 455.638 407.63 430.172C428.759 404.706 456.786 385.875 488.349 375.939L509.009 441.563C490.072 447.525 473.256 458.824 460.578 474.103C447.9 489.383 439.899 507.995 437.535 527.708L369.224 519.513Z" fill="#00BA8D"/>
<path d="M646.369 404.835C667.209 421.235 683.974 442.232 695.355 466.184L633.213 495.71C626.384 481.339 616.325 468.741 603.822 458.901L646.369 404.835Z" fill="#00BA8D"/>
<path d="M518.587 369.338C543.774 366.178 569.348 368.632 593.475 376.524C617.601 384.416 639.682 397.55 658.132 414.985L610.879 464.991C599.809 454.53 586.561 446.65 572.085 441.914C557.609 437.179 542.264 435.707 527.152 437.603L518.587 369.338Z" fill="#FDBBAB"/>
<path d="M691.839 459.197C711.399 495.955 716.962 538.56 707.495 579.107L640.497 563.464C646.177 539.136 642.84 513.573 631.103 491.518L691.839 459.197Z" fill="#FF7A00"/>
<path d="M710.776 560.487C705.748 602.395 685.486 640.992 653.847 668.93L608.308 617.358C627.292 600.595 639.449 577.437 642.465 552.292L710.776 560.487Z" fill="#00BA8D"/>
<path d="M709.916 513.308C714.602 543.135 711.353 573.669 700.498 601.842L668.398 589.474C677.083 566.935 679.681 542.508 675.933 518.647L709.916 513.308Z" fill="#FFF500"/>
<path d="M385.729 616.055C379.207 602.826 374.414 588.814 371.467 574.362L405.174 567.49C407.531 579.051 411.366 590.261 416.583 600.844L385.729 616.055Z" fill="#FDBBAB"/>
<path d="M703.613 593.054C697.433 612.112 687.972 629.943 675.655 645.743L648.524 624.595C658.378 611.954 665.947 597.689 670.89 582.443L703.613 593.054Z" fill="#00BA8D"/>
<path d="M645.625 404.253C681.628 432.267 705.027 473.435 710.676 518.701L676.541 522.961C672.022 486.748 653.302 453.813 624.5 431.402L645.625 404.253Z" fill="#FF7A00"/>
<path d="M676.862 644.177C649.233 680.475 608.315 704.31 563.112 710.44L558.49 676.352C594.652 671.448 627.386 652.38 649.49 623.341L676.862 644.177Z" fill="#FDBBAB"/>
<path d="M567.233 709.83C552.113 712.255 536.736 712.65 521.511 711.003L525.209 676.803C537.389 678.12 549.69 677.804 561.787 675.864L567.233 709.83Z" fill="#826B55"/>
<path d="M540 712C506.91 712 474.522 702.455 446.72 684.509C418.919 666.564 396.884 640.979 383.258 610.824L414.607 596.66C425.507 620.783 443.135 641.251 465.376 655.607C487.617 669.964 513.528 677.6 540 677.6V712Z" fill="#00BA8D"/>
<path d="M393.128 450.487C406.929 427.843 425.779 408.696 448.205 394.543L466.564 423.634C448.623 434.957 433.543 450.274 422.502 468.39L393.128 450.487Z" fill="#00BA8D"/>
<path d="M373.103 581.588C366.966 556.957 366.356 531.272 371.318 506.377C376.28 481.483 386.691 457.995 401.804 437.599L429.443 458.079C417.353 474.396 409.024 493.186 405.055 513.102C401.085 533.018 401.573 553.565 406.483 573.27L373.103 581.588Z" fill="#00BA8D"/>
<path d="M441.687 398.867C475.853 375.067 517.492 364.469 558.879 369.039L555.103 403.231C521.994 399.575 488.683 408.054 461.35 427.093L441.687 398.867Z" fill="#FF7A00"/>
<path d="M540 368C582.209 368 622.944 383.52 654.452 411.607L631.561 437.286C606.355 414.816 573.767 402.4 540 402.4V368Z" fill="#00BA8D"/>
<g filter="url(#filter1_i)">
<circle cx="540.5" cy="539.5" r="69.5" fill="black"/>
</g>
</g>
<defs>
<filter id="filter0_di" x="125" y="278" width="734" height="564" filterUnits="userSpaceOnUse" color-interpolation-filters="sRGB">
<feFlood flood-opacity="0" result="BackgroundImageFix"/>
<feColorMatrix in="SourceAlpha" type="matrix" values="0 0 0 0 0 0 0 0 0 0 0 0 0 0 0 0 0 0 127 0"/>
<feOffset dx="-48" dy="20"/>
<feGaussianBlur stdDeviation="38"/>
<feColorMatrix type="matrix" values="0 0 0 0 0 0 0 0 0 0 0 0 0 0 0 0 0 0 0.1 0"/>
<feBlend mode="normal" in2="BackgroundImageFix" result="effect1_dropShadow"/>
<feBlend mode="normal" in="SourceGraphic" in2="effect1_dropShadow" result="shape"/>
<feColorMatrix in="SourceAlpha" type="matrix" values="0 0 0 0 0 0 0 0 0 0 0 0 0 0 0 0 0 0 127 0" result="hardAlpha"/>
<feOffset dx="16" dy="-16"/>
<feGaussianBlur stdDeviation="24"/>
<feComposite in2="hardAlpha" operator="arithmetic" k2="-1" k3="1"/>
<feColorMatrix type="matrix" values="0 0 0 0 0.992157 0 0 0 0 0.733333 0 0 0 0 0.670588 0 0 0 1 0"/>
<feBlend mode="normal" in2="shape" result="effect2_innerShadow"/>
</filter>
<filter id="filter1_i" x="455" y="454" width="155" height="155" filterUnits="userSpaceOnUse" color-interpolation-filters="sRGB">
<feFlood flood-opacity="0" result="BackgroundImageFix"/>
<feBlend mode="normal" in="SourceGraphic" in2="BackgroundImageFix" result="shape"/>
<feColorMatrix in="SourceAlpha" type="matrix" values="0 0 0 0 0 0 0 0 0 0 0 0 0 0 0 0 0 0 127 0" result="hardAlpha"/>
<feOffset dx="-16" dy="-16"/>
<feGaussianBlur stdDeviation="20"/>
<feComposite in2="hardAlpha" operator="arithmetic" k2="-1" k3="1"/>
<feColorMatrix type="matrix" values="0 0 0 0 0.3125 0 0 0 0 0.206016 0 0 0 0 0.128906 0 0 0 1 0"/>
<feBlend mode="normal" in2="shape" result="effect1_innerShadow"/>
</filter>
<radialGradient id="paint0_radial" cx="0" cy="0" r="1" gradientUnits="userSpaceOnUse" gradientTransform="translate(297 63) rotate(65.4328) scale(769.675 750.758)">
<stop offset="0.848886" stop-color="#FDBBAB" stop-opacity="0"/>
<stop offset="1" stop-color="#F3A7A7"/>
</radialGradient>
<clipPath id="clip0">
<rect width="1080" height="1080" fill="white"/>
</clipPath>
</defs>
</svg>
