<svg width="420" height="420" viewBox="0 0 420 420" fill="none" xmlns="http://www.w3.org/2000/svg">
<rect width="420" height="420" fill="#5B57CA"/>
<path d="M226.293 100.384C225.902 100.775 225.902 101.408 226.293 101.799C226.683 102.189 227.317 102.189 227.707 101.799L226.293 100.384ZM314.5 13.5916L303.346 16.5801L311.511 24.7451L314.5 13.5916ZM227.707 101.799L308.843 20.6626L307.429 19.2484L226.293 100.384L227.707 101.799Z" fill="#FFF500"/>
<rect x="162" y="238" width="103" height="132" stroke="#241ED3"/>
<circle cx="228" cy="100" r="43" fill="#FFF500" fill-opacity="0.9"/>
<path d="M217.87 273V225.137C217.87 206.475 223.466 188.242 233.935 172.793L240.503 163.101C246.692 153.968 250 143.19 250 132.158V132.158C250 101.695 225.305 77 194.842 77H183.955C147.48 77 117.911 106.569 117.911 143.045V144.204C117.911 147.413 117.145 150.575 115.677 153.428L105.066 174.05C103.536 177.024 105.3 180.632 108.586 181.251L109.763 181.473C114.488 182.364 117.911 186.492 117.911 191.3V208.187C117.911 216.16 125.766 221.759 133.304 219.157V219.157C137.072 217.856 141 220.655 141 224.642V253" stroke="white" stroke-width="2" stroke-linecap="round"/>
<rect x="157" y="243" width="103" height="132" fill="#241ED3"/>
<path d="M208.5 297L214.274 287H202.726L208.5 297ZM280 346C280 346.552 280.448 347 281 347C281.552 347 282 346.552 282 346H280ZM323.851 204.893L322.998 205.414L323.851 204.893ZM309.605 181.581L310.458 181.06L309.605 181.581ZM305.5 164.75V170.545H307.5V164.75H305.5ZM308.752 182.102L322.998 205.414L324.704 204.371L310.458 181.06L308.752 182.102ZM319.585 211.5H316.5V213.5H319.585V211.5ZM305.5 222.5V239.5H307.5V222.5H305.5ZM280 265V346H282V265H280ZM209.5 288V275.089H207.5V288H209.5ZM202.398 237.885L182.447 187.532L180.587 188.269L200.538 238.621L202.398 237.885ZM209.5 275.089C209.5 262.351 207.09 249.727 202.398 237.885L200.538 238.621C205.138 250.23 207.5 262.603 207.5 275.089H209.5ZM176 164.237C176 172.465 177.556 180.619 180.587 188.269L182.447 187.532C179.509 180.117 178 172.213 178 164.237H176ZM289.5 255.5C284.253 255.5 280 259.753 280 265H282C282 260.858 285.358 257.5 289.5 257.5V255.5ZM305.5 239.5C305.5 248.337 298.337 255.5 289.5 255.5V257.5C299.441 257.5 307.5 249.441 307.5 239.5H305.5ZM316.5 211.5C310.425 211.5 305.5 216.425 305.5 222.5H307.5C307.5 217.529 311.529 213.5 316.5 213.5V211.5ZM322.998 205.414C324.627 208.08 322.708 211.5 319.585 211.5V213.5C324.27 213.5 327.148 208.369 324.704 204.371L322.998 205.414ZM305.5 170.545C305.5 174.623 306.625 178.623 308.752 182.102L310.458 181.06C308.524 177.894 307.5 174.255 307.5 170.545H305.5ZM241.493 101C276.706 101 305.5 129.547 305.5 164.75H307.5C307.5 128.432 277.8 99 241.493 99V101ZM241.493 99C205.468 99 176 128.203 176 164.237H178C178 129.318 206.562 101 241.493 101V99Z" fill="white"/>
<path d="M281 282L275.226 292L286.774 292L281 282ZM319 373C319 373.552 319.448 374 320 374C320.552 374 321 373.552 321 373L319 373ZM280 291L280 293.119L282 293.119L282 291L280 291ZM319 353.192L319 373L321 373L321 353.192L319 353.192ZM280 293.119C280 306.498 287.872 318.624 300.093 324.069L300.907 322.242C289.408 317.119 282 305.708 282 293.119L280 293.119ZM300.093 324.069C311.592 329.193 319 340.603 319 353.192L321 353.192C321 339.814 313.128 327.687 300.907 322.242L300.093 324.069Z" fill="white"/>
<path d="M142.5 267C142.5 266.172 141.828 265.5 141 265.5C140.172 265.5 139.5 266.172 139.5 267L142.5 267ZM139.5 283.5C139.5 284.328 140.172 285 141 285C141.828 285 142.5 284.328 142.5 283.5L139.5 283.5ZM139.5 267.516C139.5 268.344 140.172 269.016 141 269.016C141.828 269.016 142.5 268.344 142.5 267.516L139.5 267.516ZM142.5 274.734C142.5 273.906 141.828 273.234 141 273.234C140.172 273.234 139.5 273.906 139.5 274.734L142.5 274.734ZM139.5 275.766C139.5 276.594 140.172 277.266 141 277.266C141.828 277.266 142.5 276.594 142.5 275.766L139.5 275.766ZM142.5 282.984C142.5 282.156 141.828 281.484 141 281.484C140.172 281.484 139.5 282.156 139.5 282.984L142.5 282.984ZM139.5 267L139.5 267.516L142.5 267.516L142.5 267L139.5 267ZM139.5 274.734L139.5 275.766L142.5 275.766L142.5 274.734L139.5 274.734ZM139.5 282.984L139.5 283.5L142.5 283.5L142.5 282.984L139.5 282.984Z" fill="white"/>
<circle cx="281" cy="170" r="5" fill="#FFF500"/>
<circle cx="133" cy="148" r="4" fill="#FFF500"/>
<circle cx="358" cy="153" r="5" fill="#FFF500"/>
<circle cx="340" cy="153" r="3" fill="#FFF500"/>
<circle cx="371" cy="153" r="3" fill="#FFF500"/>
<circle cx="141" cy="253" r="8" fill="#0D06C1"/>
<circle cx="281" cy="346" r="10" fill="#FFF500"/>
<circle cx="381" cy="153" r="3" fill="#FFF500"/>
<circle cx="391" cy="153" r="3" fill="#FFF500"/>
<circle cx="27.5074" cy="120.507" r="3" transform="rotate(10.762 27.5074 120.507)" fill="#FFF500"/>
<circle cx="37.3316" cy="122.375" r="3" transform="rotate(10.762 37.3316 122.375)" fill="#FFF500"/>
<circle cx="47.1557" cy="124.242" r="3" transform="rotate(10.762 47.1557 124.242)" fill="#FFF500"/>
<circle cx="358" cy="187" r="5" fill="#FFF500"/>
<path d="M356.5 154C357.052 154 357.5 153.552 357.5 153C357.5 152.448 357.052 152 356.5 152V154ZM409 187L399 181.226V192.774L409 187ZM280.752 186C272.066 186 265 178.85 265 170H263C263 179.927 270.934 188 280.752 188V186ZM265 170C265 161.15 272.066 154 280.752 154V152C270.934 152 263 160.073 263 170H265ZM280.752 154H356.5V152H280.752V154ZM280.752 188H400V186H280.752V188Z" fill="#FFF500"/>
<path d="M281 160C286.523 160 291 164.477 291 170C291 175.523 286.523 180 281 180" stroke="#FFF500" stroke-width="2" stroke-linecap="round" stroke-linejoin="round"/>
<path d="M143.213 137C149.071 142.858 149.071 152.355 143.213 158.213C137.355 164.071 127.858 164.071 122 158.213" stroke="#FFF500" stroke-width="2" stroke-linecap="round" stroke-linejoin="round"/>
<circle cx="141" cy="253" r="4" fill="white"/>
<circle cx="281" cy="346" r="4" fill="#0D06C1"/>
<circle cx="320" cy="374" r="8" fill="#0D06C1"/>
<circle cx="228" cy="100" r="14" fill="#FFF500"/>
<path d="M32 57.2761L34.9886 68.4296L43.1536 60.2646L32 57.2761ZM56.1857 125.017C55.643 124.915 55.1199 125.272 55.0174 125.814C54.9148 126.357 55.2716 126.88 55.8143 126.983L56.1857 125.017ZM128.083 153.359L128.791 152.652L128.083 153.359ZM134.684 140.867L134.498 141.85L134.684 140.867ZM128.791 152.652L39.0711 62.9329L37.6569 64.3471L127.376 154.067L128.791 152.652ZM134.869 139.885L56.1857 125.017L55.8143 126.983L134.498 141.85L134.869 139.885ZM137.782 152.701C135.278 155.152 131.268 155.13 128.791 152.652L127.376 154.067C130.629 157.319 135.893 157.348 139.181 154.131L137.782 152.701ZM139.181 154.131C144.031 149.385 141.537 141.145 134.869 139.885L134.498 141.85C139.577 142.81 141.476 149.087 137.782 152.701L139.181 154.131Z" fill="#FFF500"/>
<path d="M194.737 325L184 335.5L194.737 346" stroke="#FFF500" stroke-width="2" stroke-linecap="round" stroke-linejoin="round"/>
<path d="M221.263 325L232 335.5L221.263 346" stroke="#FFF500" stroke-width="2" stroke-linecap="round" stroke-linejoin="round"/>
<line x1="1" y1="-1" x2="22.6041" y2="-1" transform="matrix(-0.508388 0.861128 -0.870788 -0.491659 212.934 325)" stroke="#FFF500" stroke-width="2" stroke-linecap="round" stroke-linejoin="round"/>
<circle cx="208.5" cy="305.5" r="8.5" fill="#FFF500"/>
<circle cx="320" cy="374" r="4" fill="#FFF500"/>
</svg>
