<svg width="420" height="420" viewBox="0 0 420 420" fill="none" xmlns="http://www.w3.org/2000/svg">
<rect width="420" height="420" fill="#00BA8D"/>
<circle cx="210" cy="231" r="136" fill="#56CCF2"/>
<circle cx="210" cy="231" r="125" stroke="white" stroke-width="2"/>
<ellipse cx="210.5" cy="231" rx="62.5" ry="125" stroke="white" stroke-width="2"/>
<path d="M299.484 142.742C250.473 191.753 171.011 191.753 122 142.742" stroke="white" stroke-width="2"/>
<path d="M122 319.742C171.011 270.731 250.473 270.731 299.484 319.742" stroke="white" stroke-width="2"/>
<line x1="211" y1="105" x2="211" y2="357" stroke="white" stroke-width="2"/>
<line x1="336" y1="232" x2="84" y2="232" stroke="white" stroke-width="2"/>
<circle cx="199" cy="67" r="16" fill="#403ADD"/>
<circle cx="222" cy="67" r="16" fill="#5B57CA"/>
<path fill-rule="evenodd" clip-rule="evenodd" d="M210.5 78.1243C213.286 75.2451 215 71.3227 215 67C215 62.6773 213.286 58.7549 210.5 55.8757C207.714 58.7549 206 62.6773 206 67C206 71.3227 207.714 75.2451 210.5 78.1243Z" fill="#FFF500"/>
<path d="M243.728 209.073C241.52 206.263 242.012 202.202 244.829 200.002V200.002C247.645 197.802 251.719 198.296 253.927 201.106L255.087 202.581C257.769 205.992 256.391 211.015 252.341 212.586V212.586C249.679 213.619 246.651 212.791 244.888 210.548L243.728 209.073Z" fill="#0D06C1"/>
<path d="M263.848 203.718C267.678 205.929 268.99 210.826 266.779 214.656L255.852 233.583C253.294 238.012 247.631 239.529 243.201 236.972V236.972C238.409 234.205 237.097 227.88 240.394 223.435L253.413 205.882C255.837 202.615 260.325 201.684 263.848 203.718V203.718Z" fill="#241ED3"/>
<path d="M182.111 242.785L185.545 247.91C189.583 253.94 196.571 257.308 203.803 256.712L253.969 252.58C257.357 252.301 260.426 250.474 262.287 247.629L279.875 220.746C282.183 217.217 281.464 212.517 278.207 209.84C274.822 207.056 269.852 207.401 266.883 210.625L245.07 234.309L217.817 233.412C210.696 233.178 204.238 229.173 200.862 222.899L199.578 220.512L182.111 242.785Z" fill="#403ADD"/>
<path d="M185.687 263.651C189.004 264.98 190.608 268.743 189.269 272.057V272.057C187.93 275.37 184.155 276.979 180.838 275.65L179.096 274.953C175.067 273.339 173.75 268.3 176.471 264.915V264.915C178.26 262.689 181.297 261.893 183.945 262.953L185.687 263.651Z" fill="#0D06C1"/>
<path d="M170.94 278.348C166.518 278.348 162.933 274.763 162.933 270.341L162.933 248.487C162.933 243.372 167.079 239.226 172.193 239.226V239.226C177.728 239.226 182.026 244.048 181.393 249.546L178.895 271.257C178.429 275.298 175.008 278.348 170.94 278.348V278.348Z" fill="#241ED3"/>
<path d="M225.5 195L217.926 191.174C211.38 187.868 203.549 188.41 197.521 192.586L156.261 221.165C153.467 223.101 151.722 226.217 151.533 229.611L149.743 261.687C149.508 265.897 152.481 269.608 156.64 270.299C160.964 271.016 165.095 268.233 166.055 263.956L173.103 232.539L197.153 219.689C203.437 216.331 211.032 216.57 217.093 220.316L219.398 221.741L225.5 195Z" fill="#403ADD"/>
<path d="M238.819 285.42L262.997 273.385C267.262 271.262 268.046 265.509 264.505 262.316C262.801 260.779 260.434 260.21 258.218 260.806L245.021 264.354C234.529 267.176 223.341 263.772 216.19 255.585L215.13 254.371C209.643 248.088 215.026 238.394 223.258 239.735L254.406 244.81C258.621 245.497 262.691 242.955 263.92 238.867C265.185 234.664 263.044 230.186 258.977 228.528L191.313 200.936C167.255 191.125 141.362 186.634 115.413 187.772L82.3308 189.222C64.4325 190.006 50.3334 204.735 50.3334 222.648C50.3334 244.083 70.1954 260.017 91.1197 255.367L113.123 250.478C126.155 247.582 139.785 249.116 151.854 254.837L216.822 285.629C223.801 288.936 231.909 288.86 238.819 285.42Z" fill="#5B57CA"/>
<path d="M274.416 219.589L223.207 193.867L205.875 199.949L223.966 218.835C229.76 224.884 226.01 234.928 217.674 235.69L175.541 239.542C171.4 239.921 168.08 243.114 167.544 247.232C166.952 251.781 169.925 256.04 174.406 257.061L264.799 277.657C277.95 280.654 291.394 282.166 304.877 282.166L329.008 282.166C346.134 282.166 360 268.316 360 251.209C360 231.406 341.674 216.639 322.307 220.837L308.262 223.882C296.828 226.361 284.881 224.845 274.416 219.589Z" fill="#403ADD"/>
<path d="M254.401 244.794L193.354 234.721C193.13 234.684 192.929 234.565 192.789 234.387C182.462 221.246 196.252 202.95 211.728 209.26L259.164 228.604C263.125 230.219 265.21 234.581 263.978 238.675L263.923 238.86C262.692 242.95 258.617 245.49 254.401 244.794Z" fill="#5B57CA"/>
<circle cx="210.5" cy="329.5" r="12.5" fill="#FFF500"/>
<circle cx="261.5" cy="294.5" r="6.5" fill="#FFF500"/>
<circle cx="187" cy="315" r="8" fill="#FFF500"/>
<circle cx="189" cy="334" r="3" fill="#FFF500"/>
<circle cx="121.5" cy="319.5" r="4.5" fill="#FFF500"/>
<circle cx="157.5" cy="294.5" r="4.5" fill="#FFF500"/>
<circle cx="299.5" cy="319.5" r="4.5" fill="#FFF500"/>
<circle cx="210.5" cy="356.5" r="4.5" fill="#FFF500"/>
<circle cx="162.5" cy="312.5" r="4.5" fill="#FFF500"/>
<circle cx="210.5" cy="106.5" r="7.5" fill="#FFF500"/>
<circle cx="210.5" cy="179.5" r="4.5" fill="#FFF500"/>
<circle cx="156.5" cy="165.5" r="4.5" fill="#FFF500"/>
<circle cx="263.5" cy="167.5" r="4.5" fill="#FFF500"/>
<circle cx="298.5" cy="142.5" r="4.5" fill="#FFF500"/>
<circle cx="298.5" cy="142.5" r="16.5" stroke="#FFF500"/>
<circle cx="121.5" cy="142.5" r="4.5" fill="#FFF500"/>
<line x1="122.023" y1="44" x2="122.023" y2="102.136" stroke="white"/>
<line x1="148.464" y1="72.8589" x2="96" y2="72.8589" stroke="white"/>
<line x1="134.304" y1="84.4295" x2="111.244" y2="61.3689" stroke="white"/>
<line x1="133.593" y1="61.3688" x2="110.533" y2="84.4295" stroke="white"/>
<line x1="274.793" y1="16" x2="274.793" y2="44" stroke="white"/>
<line x1="287.268" y1="30.1586" x2="262" y2="30.1586" stroke="white"/>
<line x1="280.265" y1="35.6554" x2="269.159" y2="24.5487" stroke="white"/>
<line x1="280.289" y1="24.5486" x2="269.183" y2="35.6554" stroke="white"/>
<rect x="214" y="365" width="3" height="7" transform="rotate(90 214 365)" fill="#FFF500"/>
<rect x="214" y="93" width="3" height="7" transform="rotate(90 214 93)" fill="#FFF500"/>
</svg>
