<svg width="595" height="421" viewBox="0 0 595 421" fill="none" xmlns="http://www.w3.org/2000/svg">
<g clip-path="url(#clip0)">
<rect width="595" height="421" fill="white"/>
<path d="M185.37 85.6386L197.617 96.4542C199.355 97.9889 199.972 100.433 199.17 102.609C198.013 105.752 194.38 107.19 191.385 105.692L175.852 97.9258C167.74 93.87 157.964 98.4107 155.83 107.225L150.42 129.572C149.302 134.187 145.093 137.38 140.348 137.212L106 136L142.691 89.4806C153.177 76.1861 172.679 74.4305 185.37 85.6386Z" fill="#681919"/>
<path d="M185.015 57.1762L228.488 84.649C231.122 86.3133 232.241 89.5876 231.176 92.5155C229.961 95.8585 226.322 97.6454 222.934 96.5639L189.159 85.7846C172.586 80.4954 155.003 90.366 150.888 107.269L143.164 139.002C141.584 145.492 134.207 148.638 128.429 145.286L99.5 128.5L144.539 65.1531C153.771 52.167 171.546 48.6642 185.015 57.1762Z" fill="#682323"/>
<path d="M178.508 52.6241L235.019 67.0963C238.244 67.9223 240.5 70.8285 240.5 74.1578C240.5 78.3931 236.903 81.7368 232.679 81.4277L183.831 77.8535C169.212 76.7838 155.96 86.4354 152.493 100.678L143.138 139.109C141.566 145.568 134.247 148.723 128.472 145.433L100.5 129.5L146.573 64.3622C153.756 54.2077 166.459 49.5383 178.508 52.6241Z" fill="#682E2E"/>
<path d="M175.034 44.1873L238.545 47.0906C243.556 47.3197 247.5 51.4485 247.5 56.4641C247.5 61.5087 243.512 65.6505 238.471 65.8407L191.274 67.6217C177.579 68.1385 165.976 77.8698 163.082 91.2651L153.6 135.152C152.111 142.043 158.029 148.27 164.987 147.133L218.529 138.384C223.49 137.574 228.354 140.289 230.268 144.937C232.386 150.079 230.255 155.989 225.344 158.599L132.413 207.968C114.924 217.259 96.0222 223.6 76.4686 226.736L0 239V146H47.5965C65.5758 146 82.6075 137.937 94.0037 124.031L150.461 55.1404C156.464 47.8152 165.573 43.7548 175.034 44.1873Z" fill="#683838"/>
<path d="M0 146H42V233.72C42 236.845 39.9282 239.592 36.923 240.451L0 251V146Z" fill="black"/>
<path d="M211.613 314.253L195.056 361.886C192.788 368.411 186.357 372.544 179.479 371.895L152.515 369.351V336.666C152.515 332.959 155.52 329.953 159.228 329.953C163.491 329.953 166.674 333.876 165.797 338.048L163.755 347.751C163.366 349.6 164.777 351.338 166.666 351.338C168.075 351.338 169.29 350.35 169.578 348.971L171.543 339.558C172.988 332.634 166.984 326.439 160.018 327.666L147.039 329.953L123 293H196.5C207.507 293 215.227 303.856 211.613 314.253Z" fill="#FF7F80"/>
<path d="M162.726 329.187C162.386 326.293 165.155 324.019 167.928 324.914L168.604 325.132C169.193 325.323 169.819 325.374 170.431 325.281L175.278 324.547C178.751 324.022 180.985 328.12 178.663 330.754C174.943 334.972 173.562 340.762 174.975 346.205L175.985 350.093C176.409 351.725 174.808 353.151 173.236 352.542C170.833 351.61 168.167 351.61 165.764 352.542L165.477 352.653C163.905 353.262 162.253 351.972 162.462 350.3L163.815 339.465C163.855 339.146 163.856 338.823 163.819 338.503L162.726 329.187Z" fill="#FF6666"/>
<path d="M182.322 292L279.659 292C284.724 292 288.741 296.268 288.435 301.324C288.182 305.499 285.022 308.918 280.88 309.498L177.117 324.048C164.47 325.822 156.702 338.833 161.142 350.808L166.804 366.079C168.205 369.856 167.977 374.045 166.176 377.649C162.923 384.154 155.369 387.26 148.481 384.923L96.1132 367.161C82.2473 362.458 67.4433 361.209 52.9854 363.522L0 372L0 292L54.3087 292L182.322 292Z" fill="#FF9999"/>
<path d="M0 292H54V383C54 386.866 50.866 390 47 390H0V292Z" fill="#0000FF"/>
<path d="M424.51 178.788C422.738 183.192 417.731 185.326 413.327 183.554C408.923 181.783 406.789 176.776 408.561 172.372L409.468 170.117C411.618 164.771 418.316 163.014 422.814 166.614C425.775 168.984 426.832 173.015 425.417 176.533L424.51 178.788Z" fill="#FF6666"/>
<path d="M404.964 159.297C404.964 153.447 409.707 148.704 415.557 148.704H444.707C451.476 148.704 456.964 154.192 456.964 160.962C456.964 168.284 450.586 173.973 443.311 173.14L414.351 169.821C409.003 169.208 404.964 164.681 404.964 159.297Z" fill="#FF7F80"/>
<path d="M517.451 228.704L522.735 218.005C525.961 211.474 525.381 203.705 521.221 197.726L480.978 139.886C478.4 136.181 474.259 133.869 469.752 133.619L427.054 131.247C421.489 130.938 416.583 134.866 415.666 140.364C414.711 146.09 418.4 151.563 424.065 152.829L465.853 162.162L484.675 197.233C488.057 203.535 487.817 211.163 484.044 217.239L480.205 223.424L517.451 228.704Z" fill="#FF9999"/>
<path d="M394.871 247.735L411.562 281.117C414.389 286.77 422.013 287.815 426.256 283.131C428.309 280.865 429.069 277.71 428.271 274.757L422.335 252.776C419.339 241.684 422.942 229.854 431.612 222.315L440.664 214.445C447.729 208.302 458.606 214.367 457.094 223.606L449.553 269.684C448.635 275.295 452.024 280.716 457.47 282.347C463.045 284.017 468.977 281.184 471.183 275.799L512.653 174.555C522.534 150.432 527.057 124.452 525.911 98.4096L521.564 -0.295984L423.464 -0.295983L443.442 89.2144C446.361 102.294 444.818 115.975 439.057 128.075L394.617 221.423C390.645 229.765 390.739 239.471 394.871 247.735Z" fill="#683838"/>
<path d="M482.739 296.875L517.255 228.463L509.17 205.528L479.139 234.168C473.087 239.94 463.045 236.174 462.28 227.845L456.549 165.443C456.044 159.934 451.784 155.514 446.298 154.803C440.261 154.021 434.617 157.953 433.259 163.887L403.171 295.35C400.987 304.892 399.585 314.597 398.979 324.366L392.996 420.839L501.053 420.839L478.513 340.022C474.494 325.616 476.002 310.228 482.739 296.875Z" fill="#FF9999"/>
<path d="M449.575 269.678L462.952 188.961C463.002 188.665 463.16 188.397 463.397 188.212C480.868 174.542 505.136 192.907 496.728 213.435L471.072 276.07C468.929 281.302 463.167 284.053 457.751 282.431L457.48 282.35C452.031 280.718 448.644 275.29 449.575 269.678Z" fill="#683838"/>
</g>
<defs>
<clipPath id="clip0">
<rect width="595" height="421" fill="white"/>
</clipPath>
</defs>
</svg>
