<svg width="1080" height="1080" viewBox="0 0 1080 1080" fill="none" xmlns="http://www.w3.org/2000/svg">
<rect width="1080" height="1080" fill="#5B57CA"/>
<g filter="url(#filter0_i)">
<path d="M542.5 256L801.875 405.75V705.25L542.5 855L283.125 705.25V405.75L542.5 256Z" fill="#FF7A00"/>
</g>
<path d="M336 585L390.077 553.455C396.222 549.871 400 543.293 400 536.179L400 473" stroke="#FFF500" stroke-width="4" stroke-linecap="round"/>
<path d="M347 592L400.31 559.926C406.323 556.309 410 549.806 410 542.789L410 465" stroke="#FFF500" stroke-width="3" stroke-linecap="round"/>
<g filter="url(#filter1_i)">
<path d="M246.386 264.984L307.138 229.909H377.289L438.04 264.984L473.115 325.736V395.886L438.04 456.638L377.289 491.713H307.138L246.386 456.638L211.311 395.886V325.736L246.386 264.984Z" fill="#FF776E"/>
</g>
<path d="M543 480L607.952 517.75V593.25L543 631L478.048 593.25V517.75L543 480Z" fill="#FFF500"/>
<g filter="url(#filter2_i)">
<path d="M677 682L717.267 690.559L750.571 714.756L771.155 750.407L775.458 791.348L762.737 830.5L735.191 861.093L697.583 877.837H656.417L618.809 861.093L591.263 830.5L578.542 791.348L582.845 750.407L603.429 714.756L636.733 690.559L677 682Z" fill="#56CCF2"/>
</g>
<path d="M677 735L716.837 758V804L677 827L637.163 804V758L677 735Z" fill="#FFF500"/>
<path d="M342.5 305L392.296 333.75V391.25L342.5 420L292.704 391.25V333.75L342.5 305Z" fill="#FFF500"/>
<path d="M405.5 383L419.789 391V407L405.5 415L391.211 407V391L405.5 383Z" fill="#FFF500"/>
<path d="M333.5 569L347.789 577V593L333.5 601L319.211 593V577L333.5 569Z" fill="#FFF500"/>
<path d="M624 734L637.856 742V758L624 766L610.144 758V742L624 734Z" fill="#FFF500"/>
<path d="M611 743L553.233 710.675C546.914 707.138 543 700.463 543 693.221V623" stroke="#FFF500" stroke-width="4" stroke-linecap="round"/>
<path d="M387.916 755.851L428.748 779.425C435.139 783.115 443.043 782.986 449.31 779.088L486.857 755.737C492.726 752.087 496.294 745.665 496.294 738.753L496.294 596.693" stroke="#FFF500" stroke-width="4" stroke-linecap="round"/>
<path d="M622 735L565.061 702.393C558.839 698.829 555 692.208 555 685.037V614" stroke="#FFF500" stroke-width="3" stroke-linecap="round"/>
<path d="M367.329 754.198L428.252 789.373C434.513 792.987 442.237 792.942 448.455 789.254L495.494 761.355C501.568 757.753 505.292 751.215 505.292 744.153L505.292 599.641" stroke="#FFF500" stroke-width="3" stroke-linecap="round"/>
<path d="M413 404L469.301 437.828C475.319 441.444 479 447.951 479 454.972L479 592" stroke="#FFF500" stroke-width="4"/>
<path d="M419 393L481.305 430.457C487.32 434.074 491 440.579 491 447.598L491 595" stroke="#FFF500" stroke-width="2"/>
<path d="M494 393L533.358 416.829C539.344 420.453 543 426.941 543 433.938L543 482" stroke="#FFF500" stroke-width="3"/>
<path d="M602 345L552.724 374.51C546.692 378.122 543 384.637 543 391.668L543 451" stroke="#FFF500" stroke-width="3"/>
<path d="M606 519L606 456.38C606 449.327 609.716 442.795 615.778 439.19L658.445 413.82C664.508 410.215 668.224 403.683 668.224 396.629L668.224 359.598C668.224 349.959 673.334 341.029 681.68 336.08L742 301" stroke="#FFF500" stroke-width="3" stroke-linecap="round"/>
<path d="M599 513L599 450.295C599 443.287 602.667 436.791 608.667 433.171L650.649 407.839C656.649 404.219 660.316 397.722 660.316 390.715L660.316 353.598C660.316 343.959 665.351 335.029 673.576 330.08L734 295" stroke="#FFF500" stroke-width="4" stroke-linecap="round"/>
<path d="M853 375L740.585 443.574C734.632 447.206 731 453.675 731 460.648L731 529" stroke="#FFF500" stroke-width="3" stroke-linecap="round"/>
<path fill-rule="evenodd" clip-rule="evenodd" d="M545.822 550.866C545.192 551.496 544.115 551.05 544.115 550.159V531.351C544.115 530.799 543.667 530.351 543.115 530.351C542.563 530.351 542.115 530.799 542.115 531.351V551.492C542.115 552.383 541.038 552.829 540.408 552.199L533.612 545.403C533.221 545.012 532.588 545.012 532.198 545.403C531.807 545.793 531.807 546.426 532.198 546.817L537.932 552.551C538.562 553.181 538.116 554.258 537.225 554.258H521.599C521.047 554.258 520.599 554.706 520.599 555.258C520.599 555.81 521.047 556.258 521.599 556.258H538.016C538.906 556.258 539.353 557.335 538.723 557.965L533.259 563.429C532.869 563.819 532.869 564.452 533.259 564.843C533.65 565.233 534.283 565.233 534.673 564.843L540.408 559.108C541.038 558.478 542.115 558.925 542.115 559.815V578.36C542.115 578.913 542.563 579.36 543.115 579.36C543.667 579.36 544.115 578.913 544.115 578.36V561.149C544.115 560.258 545.192 559.811 545.822 560.441L550.224 564.843C550.614 565.234 551.247 565.234 551.638 564.843C552.029 564.453 552.029 563.819 551.638 563.429L546.174 557.965C545.544 557.335 545.991 556.258 546.881 556.258H563.827C564.379 556.258 564.827 555.81 564.827 555.258C564.827 554.706 564.379 554.258 563.827 554.258H547.672C546.781 554.258 546.335 553.181 546.965 552.551L552.7 546.817C553.09 546.426 553.09 545.793 552.7 545.402C552.309 545.012 551.676 545.012 551.286 545.402L545.822 550.866Z" fill="#FFC27A"/>
<path fill-rule="evenodd" clip-rule="evenodd" d="M679.98 776.428C679.35 777.057 678.273 776.611 678.273 775.72V756.913C678.273 756.361 677.825 755.913 677.273 755.913C676.72 755.913 676.273 756.361 676.273 756.913V777.053C676.273 777.944 675.196 778.39 674.566 777.761L667.769 770.964C667.379 770.574 666.746 770.574 666.355 770.964C665.965 771.355 665.965 771.988 666.355 772.379L672.089 778.113C672.719 778.743 672.273 779.82 671.382 779.82H655.757C655.204 779.82 654.757 780.268 654.757 780.82C654.757 781.372 655.204 781.82 655.757 781.82H672.173C673.064 781.82 673.51 782.897 672.88 783.527L667.417 788.99C667.026 789.381 667.026 790.014 667.417 790.405C667.808 790.795 668.441 790.795 668.831 790.405L674.566 784.67C675.196 784.04 676.273 784.486 676.273 785.377V803.922C676.273 804.474 676.72 804.922 677.273 804.922C677.825 804.922 678.273 804.474 678.273 803.922V786.71C678.273 785.819 679.35 785.373 679.98 786.003L684.381 790.405C684.772 790.795 685.405 790.795 685.796 790.405C686.186 790.014 686.186 789.381 685.796 788.991L680.332 783.527C679.702 782.897 680.148 781.82 681.039 781.82H697.984C698.537 781.82 698.984 781.372 698.984 780.82C698.984 780.268 698.537 779.82 697.984 779.82H681.83C680.939 779.82 680.493 778.743 681.123 778.113L686.857 772.378C687.248 771.988 687.248 771.355 686.857 770.964C686.467 770.574 685.834 770.574 685.443 770.964L679.98 776.428Z" fill="#FF776E"/>
<path fill-rule="evenodd" clip-rule="evenodd" d="M280.785 705.198L219.699 740.466L220.699 742.198L282.785 706.352L347.427 743.673L348.427 741.941L284.785 705.198L346.097 669.799L345.097 668.067L282.785 704.043L223.03 669.543L222.03 671.275L280.785 705.198Z" fill="#FFF500"/>
<path d="M347 592L292.789 624.188C286.72 627.791 283 634.327 283 641.385L283 706" stroke="#FFF500" stroke-width="2" stroke-linecap="round"/>
<path d="M606 519L667.214 555.364C673.281 558.968 676.999 565.502 676.999 572.559L677 743" stroke="#FFF500" stroke-width="3" stroke-linecap="round"/>
<path d="M836 287L699.748 368.359C693.703 371.968 690.001 378.49 690.001 385.53L690 750" stroke="#FFF500" stroke-width="3" stroke-linecap="round"/>
<path fill-rule="evenodd" clip-rule="evenodd" d="M345.419 357.647C344.789 358.277 343.712 357.831 343.712 356.94V330.374C343.712 329.821 343.264 329.374 342.712 329.374C342.16 329.374 341.712 329.821 341.712 330.374V358.06C341.712 358.951 340.635 359.397 340.005 358.767L330.258 349.02C329.868 348.63 329.235 348.63 328.844 349.02C328.454 349.411 328.454 350.044 328.844 350.435L337.642 359.232C338.272 359.862 337.825 360.939 336.934 360.939L314.304 360.939C313.751 360.939 313.304 361.387 313.304 361.939C313.304 362.491 313.751 362.939 314.304 362.939H337.713C338.604 362.939 339.05 364.016 338.42 364.646L329.793 373.273C329.403 373.664 329.403 374.297 329.793 374.688C330.184 375.078 330.817 375.078 331.207 374.688L340.005 365.89C340.635 365.26 341.712 365.706 341.712 366.597V393.082C341.712 393.634 342.16 394.082 342.712 394.082C343.264 394.082 343.712 393.634 343.712 393.082V367.717C343.712 366.826 344.789 366.38 345.419 367.01L353.098 374.688C353.488 375.079 354.121 375.079 354.512 374.688C354.902 374.298 354.902 373.664 354.512 373.274L345.884 364.646C345.254 364.016 345.7 362.939 346.591 362.939H370.699C371.251 362.939 371.699 362.491 371.699 361.939C371.699 361.387 371.251 360.939 370.699 360.939L347.37 360.939C346.479 360.939 346.033 359.862 346.663 359.232L355.461 350.434C355.851 350.044 355.851 349.41 355.461 349.02C355.07 348.629 354.437 348.629 354.047 349.02L345.419 357.647Z" fill="#FDBBAB"/>
<g filter="url(#filter3_i)">
<path d="M754.312 179.109L798.172 167.357L842.032 179.109L874.14 211.217L885.892 255.077L874.14 298.937L842.032 331.045L798.172 342.797L754.312 331.045L722.205 298.937L710.452 255.077L722.205 211.217L754.312 179.109Z" fill="#FFC27A"/>
</g>
<path d="M676.5 644L682.995 655.25H670.005L676.5 644Z" fill="#FFF500"/>
<path d="M676.5 654L682.995 665.25H670.005L676.5 654Z" fill="#FFF500"/>
<path d="M543 684L532.608 666L553.392 666L543 684Z" fill="#FFF500"/>
<path d="M543 667L532.608 649.75L553.392 649.75L543 667Z" fill="#FFF500"/>
<path d="M283 678L272.608 660L293.392 660L283 678Z" fill="#FFF500"/>
<path d="M283 662L272.608 644L293.392 644L283 662Z" fill="#FFF500"/>
<path d="M731.5 558L721.541 540.75L741.459 540.75L731.5 558Z" fill="#FFF500"/>
<path d="M731.5 542L721.541 524.75L741.459 524.75L731.5 542Z" fill="#FFF500"/>
<circle cx="854" cy="374" r="15" fill="#FF776E"/>
<circle cx="487" cy="389" r="9" stroke="#FFF500" stroke-width="3"/>
<ellipse cx="607.5" cy="340" rx="8.5" ry="9" stroke="#FFF500" stroke-width="3"/>
<path fill-rule="evenodd" clip-rule="evenodd" d="M801.921 251.168C801.291 251.798 800.213 251.352 800.213 250.461V231.654C800.213 231.101 799.766 230.654 799.213 230.654C798.661 230.654 798.213 231.101 798.213 231.654V251.794C798.213 252.685 797.136 253.131 796.506 252.501L789.71 245.705C789.32 245.315 788.686 245.315 788.296 245.705C787.905 246.096 787.905 246.729 788.296 247.119L794.03 252.854C794.66 253.483 794.214 254.561 793.323 254.561H777.697C777.145 254.561 776.697 255.008 776.697 255.561C776.697 256.113 777.145 256.561 777.697 256.561H794.114C795.005 256.561 795.451 257.638 794.821 258.268L789.358 263.731C788.967 264.122 788.967 264.755 789.358 265.145C789.748 265.536 790.381 265.536 790.772 265.145L796.506 259.411C797.136 258.781 798.213 259.227 798.213 260.118V278.663C798.213 279.215 798.661 279.663 799.213 279.663C799.766 279.663 800.213 279.215 800.213 278.663V261.451C800.213 260.56 801.291 260.114 801.92 260.744L806.322 265.146C806.713 265.536 807.346 265.536 807.736 265.146C808.127 264.755 808.127 264.122 807.736 263.731L802.273 258.268C801.643 257.638 802.089 256.561 802.98 256.561H819.925C820.477 256.561 820.925 256.113 820.925 255.561C820.925 255.008 820.477 254.561 819.925 254.561H803.771C802.88 254.561 802.434 253.483 803.064 252.854L808.798 247.119C809.189 246.729 809.189 246.095 808.798 245.705C808.408 245.314 807.774 245.314 807.384 245.705L801.921 251.168Z" fill="#56CCF2"/>
<g filter="url(#filter4_i)">
<path d="M214 700L242.283 710.294L257.332 736.359L252.105 766L229.049 785.346H198.951L175.895 766L170.668 736.359L185.717 710.294L214 700Z" fill="#00BA8D"/>
</g>
<g filter="url(#filter5_i)">
<path d="M322 747L329.838 725.145L349.683 713.517L372.25 717.555L386.98 735.371L386.98 758.629L372.25 776.445L349.683 780.483L329.838 768.855L322 747Z" fill="#00BA8D"/>
</g>
<g filter="url(#filter6_i)">
<path d="M223.5 648L237.963 653.381L245.658 667.006L242.986 682.5L231.195 692.613H215.805L204.014 682.5L201.342 667.006L209.037 653.381L223.5 648Z" fill="#56CCF2"/>
</g>
<circle cx="283" cy="704" r="9" fill="#FFF500"/>
<g filter="url(#filter7_i)">
<path d="M347 644L361.695 648.775L370.776 661.275V676.725L361.695 689.225L347 694L332.305 689.225L323.224 676.725V661.275L332.305 648.775L347 644Z" fill="#7A75FF"/>
</g>
<defs>
<filter id="filter0_i" x="267.125" y="240" width="534.749" height="615" filterUnits="userSpaceOnUse" color-interpolation-filters="sRGB">
<feFlood flood-opacity="0" result="BackgroundImageFix"/>
<feBlend mode="normal" in="SourceGraphic" in2="BackgroundImageFix" result="shape"/>
<feColorMatrix in="SourceAlpha" type="matrix" values="0 0 0 0 0 0 0 0 0 0 0 0 0 0 0 0 0 0 127 0" result="hardAlpha"/>
<feOffset dx="-16" dy="-16"/>
<feGaussianBlur stdDeviation="20"/>
<feComposite in2="hardAlpha" operator="arithmetic" k2="-1" k3="1"/>
<feColorMatrix type="matrix" values="0 0 0 0 1 0 0 0 0 0.96 0 0 0 0 0 0 0 0 1 0"/>
<feBlend mode="normal" in2="shape" result="effect1_innerShadow"/>
</filter>
<filter id="filter1_i" x="142.56" y="161.157" width="391.308" height="391.308" filterUnits="userSpaceOnUse" color-interpolation-filters="sRGB">
<feFlood flood-opacity="0" result="BackgroundImageFix"/>
<feBlend mode="normal" in="SourceGraphic" in2="BackgroundImageFix" result="shape"/>
<feColorMatrix in="SourceAlpha" type="matrix" values="0 0 0 0 0 0 0 0 0 0 0 0 0 0 0 0 0 0 127 0" result="hardAlpha"/>
<feOffset dx="-8" dy="-8"/>
<feGaussianBlur stdDeviation="12"/>
<feComposite in2="hardAlpha" operator="arithmetic" k2="-1" k3="1"/>
<feColorMatrix type="matrix" values="0 0 0 0 0.477174 0 0 0 0 0.458333 0 0 0 0 1 0 0 0 1 0"/>
<feBlend mode="normal" in2="shape" result="effect1_innerShadow"/>
</filter>
<filter id="filter2_i" x="568.542" y="663" width="206.915" height="214.837" filterUnits="userSpaceOnUse" color-interpolation-filters="sRGB">
<feFlood flood-opacity="0" result="BackgroundImageFix"/>
<feBlend mode="normal" in="SourceGraphic" in2="BackgroundImageFix" result="shape"/>
<feColorMatrix in="SourceAlpha" type="matrix" values="0 0 0 0 0 0 0 0 0 0 0 0 0 0 0 0 0 0 127 0" result="hardAlpha"/>
<feOffset dx="-10" dy="-19"/>
<feGaussianBlur stdDeviation="13"/>
<feComposite in2="hardAlpha" operator="arithmetic" k2="-1" k3="1"/>
<feColorMatrix type="matrix" values="0 0 0 0 1 0 0 0 0 0.48 0 0 0 0 0 0 0 0 1 0"/>
<feBlend mode="normal" in2="shape" result="effect1_innerShadow"/>
</filter>
<filter id="filter3_i" x="678.345" y="135.249" width="239.655" height="255.655" filterUnits="userSpaceOnUse" color-interpolation-filters="sRGB">
<feFlood flood-opacity="0" result="BackgroundImageFix"/>
<feBlend mode="normal" in="SourceGraphic" in2="BackgroundImageFix" result="shape"/>
<feColorMatrix in="SourceAlpha" type="matrix" values="0 0 0 0 0 0 0 0 0 0 0 0 0 0 0 0 0 0 127 0" result="hardAlpha"/>
<feOffset dy="16"/>
<feGaussianBlur stdDeviation="8"/>
<feComposite in2="hardAlpha" operator="arithmetic" k2="-1" k3="1"/>
<feColorMatrix type="matrix" values="0 0 0 0 0.337255 0 0 0 0 0.8 0 0 0 0 0.94902 0 0 0 1 0"/>
<feBlend mode="normal" in2="shape" result="effect1_innerShadow"/>
</filter>
<filter id="filter4_i" x="170.668" y="700" width="94.6631" height="93.3465" filterUnits="userSpaceOnUse" color-interpolation-filters="sRGB">
<feFlood flood-opacity="0" result="BackgroundImageFix"/>
<feBlend mode="normal" in="SourceGraphic" in2="BackgroundImageFix" result="shape"/>
<feColorMatrix in="SourceAlpha" type="matrix" values="0 0 0 0 0 0 0 0 0 0 0 0 0 0 0 0 0 0 127 0" result="hardAlpha"/>
<feOffset dx="8" dy="8"/>
<feGaussianBlur stdDeviation="4"/>
<feComposite in2="hardAlpha" operator="arithmetic" k2="-1" k3="1"/>
<feColorMatrix type="matrix" values="0 0 0 0 0.952941 0 0 0 0 0.913725 0 0 0 0 0 0 0 0 1 0"/>
<feBlend mode="normal" in2="shape" result="effect1_innerShadow"/>
</filter>
<filter id="filter5_i" x="302" y="713.517" width="84.9797" height="70.9669" filterUnits="userSpaceOnUse" color-interpolation-filters="sRGB">
<feFlood flood-opacity="0" result="BackgroundImageFix"/>
<feBlend mode="normal" in="SourceGraphic" in2="BackgroundImageFix" result="shape"/>
<feColorMatrix in="SourceAlpha" type="matrix" values="0 0 0 0 0 0 0 0 0 0 0 0 0 0 0 0 0 0 127 0" result="hardAlpha"/>
<feOffset dx="-20" dy="4"/>
<feGaussianBlur stdDeviation="10"/>
<feComposite in2="hardAlpha" operator="arithmetic" k2="-1" k3="1"/>
<feColorMatrix type="matrix" values="0 0 0 0 1 0 0 0 0 0.96 0 0 0 0 0 0 0 0 1 0"/>
<feBlend mode="normal" in2="shape" result="effect1_innerShadow"/>
</filter>
<filter id="filter6_i" x="194.342" y="648" width="51.3163" height="48.6129" filterUnits="userSpaceOnUse" color-interpolation-filters="sRGB">
<feFlood flood-opacity="0" result="BackgroundImageFix"/>
<feBlend mode="normal" in="SourceGraphic" in2="BackgroundImageFix" result="shape"/>
<feColorMatrix in="SourceAlpha" type="matrix" values="0 0 0 0 0 0 0 0 0 0 0 0 0 0 0 0 0 0 127 0" result="hardAlpha"/>
<feOffset dx="-8" dy="4"/>
<feGaussianBlur stdDeviation="3.5"/>
<feComposite in2="hardAlpha" operator="arithmetic" k2="-1" k3="1"/>
<feColorMatrix type="matrix" values="0 0 0 0 1 0 0 0 0 0.48 0 0 0 0 0 0 0 0 1 0"/>
<feBlend mode="normal" in2="shape" result="effect1_innerShadow"/>
</filter>
<filter id="filter7_i" x="315.224" y="636" width="55.5528" height="58" filterUnits="userSpaceOnUse" color-interpolation-filters="sRGB">
<feFlood flood-opacity="0" result="BackgroundImageFix"/>
<feBlend mode="normal" in="SourceGraphic" in2="BackgroundImageFix" result="shape"/>
<feColorMatrix in="SourceAlpha" type="matrix" values="0 0 0 0 0 0 0 0 0 0 0 0 0 0 0 0 0 0 127 0" result="hardAlpha"/>
<feOffset dx="-8" dy="-8"/>
<feGaussianBlur stdDeviation="9"/>
<feComposite in2="hardAlpha" operator="arithmetic" k2="-1" k3="1"/>
<feColorMatrix type="matrix" values="0 0 0 0 1 0 0 0 0 0.96 0 0 0 0 0 0 0 0 1 0"/>
<feBlend mode="normal" in2="shape" result="effect1_innerShadow"/>
</filter>
</defs>
</svg>
