<svg width="1080" height="1080" viewBox="0 0 1080 1080" fill="none" xmlns="http://www.w3.org/2000/svg">
<rect width="1080" height="1080" fill="#5B57CA"/>
<path d="M413.286 590L457.351 564.098C463.463 560.506 467.216 553.946 467.216 546.856L467.216 505.764C467.216 498.988 463.785 492.673 458.101 488.985L350.216 419" stroke="#FFF500" stroke-width="4" stroke-linecap="round"/>
<path d="M421.326 596L465.45 569.722C471.505 566.115 475.216 559.587 475.216 552.539L475.216 494.959C475.216 488.081 471.682 481.685 465.859 478.025L359.216 411" stroke="#FFF500" stroke-width="2" stroke-linecap="round"/>
<g filter="url(#filter0_i)">
<path d="M248.816 276.017L290.542 251.927L338.722 251.927L380.448 276.017L404.538 317.743V365.923L380.448 407.649L338.722 431.739L290.542 431.739L248.816 407.649L224.726 365.923V317.743L248.816 276.017Z" fill="#00BA8D"/>
</g>
<path d="M586.716 501L641.709 532.75V596.25L586.716 628L531.723 596.25V532.75L586.716 501Z" fill="#FFF500"/>
<g filter="url(#filter1_i)">
<path d="M700.216 671L733.975 678.219L761.897 698.628L779.154 728.697L782.761 763.228L772.096 796.25L749.002 822.053L717.473 836.175H682.959L651.43 822.053L628.336 796.25L617.671 763.228L621.278 728.697L638.535 698.628L666.457 678.219L700.216 671Z" fill="#FF776E"/>
</g>
<path d="M700.216 716L733.991 735.25V773.75L700.216 793L666.441 773.75V735.25L700.216 716Z" fill="#FFF500"/>
<path d="M350.216 348L372.733 360.75V386.25L350.216 399L327.699 386.25V360.75L350.216 348Z" fill="#FFF500"/>
<path d="M410.716 386L422.407 392.75V406.25L410.716 413L399.025 406.25V392.75L410.716 386Z" fill="#FFF500"/>
<path d="M410.716 576L422.407 582.75V596.25L410.716 603L399.025 596.25V582.75L410.716 576Z" fill="#FFF500"/>
<path d="M655.216 715L667.34 721.75V735.25L655.216 742L643.092 735.25V721.75L655.216 715Z" fill="#FFF500"/>
<path d="M644.216 722L597.419 695.706C591.117 692.165 587.216 685.499 587.216 678.27V621" stroke="#FFF500" stroke-width="4" stroke-linecap="round"/>
<path d="M437.896 744.082L487.369 772.645C493.76 776.335 501.664 776.206 507.931 772.308L555.123 742.958C560.992 739.308 564.561 732.887 564.561 725.975L564.561 596.764" stroke="#FFF500" stroke-width="4" stroke-linecap="round"/>
<path d="M654.216 715L607.419 688.706C601.117 685.165 597.216 678.499 597.216 671.27V614" stroke="#FFF500" stroke-width="2" stroke-linecap="round"/>
<path d="M439.182 731.919L488.902 760.624C495.162 764.239 502.886 764.194 509.104 760.506L545.595 738.863C551.668 735.261 555.392 728.723 555.392 721.661L555.392 601.731" stroke="#FFF500" stroke-width="2" stroke-linecap="round"/>
<path d="M417.216 403L523.251 464.509C529.42 468.087 533.216 474.679 533.216 481.809L533.216 596" stroke="#FFF500" stroke-width="4"/>
<path d="M410.216 389L533.088 458.738C539.348 462.291 543.216 468.934 543.216 476.132L543.216 598" stroke="#FFF500" stroke-width="2"/>
<path d="M546.216 428L577.526 446.837C583.539 450.454 587.216 456.958 587.216 463.975L587.216 502" stroke="#FFF500" stroke-width="2"/>
<path d="M637.216 413L597.011 436.855C590.939 440.458 587.216 446.995 587.216 454.055L587.216 502" stroke="#FFF500" stroke-width="2"/>
<path d="M587.216 369L587.216 403.663L587.216 478" stroke="#FFF500" stroke-width="2"/>
<path d="M700.216 756L628.968 798.514C622.92 802.123 619.216 808.647 619.216 815.689L619.216 901" stroke="#FFF500" stroke-width="2"/>
<path d="M826.216 454L732.226 508.195C726.032 511.766 722.216 518.372 722.216 525.521L722.216 581" stroke="#FFF500" stroke-width="2" stroke-linecap="round"/>
<path fill-rule="evenodd" clip-rule="evenodd" d="M589.117 561.062C588.487 561.692 587.41 561.246 587.41 560.355V543.867C587.41 543.591 587.186 543.367 586.91 543.367C586.634 543.367 586.41 543.591 586.41 543.867V560.793C586.41 561.684 585.333 562.13 584.703 561.5L579.005 555.803C578.81 555.608 578.493 555.608 578.298 555.803C578.103 555.998 578.103 556.315 578.298 556.51L583.585 561.797C584.215 562.427 583.769 563.504 582.878 563.504H568.786C568.51 563.504 568.286 563.728 568.286 564.004C568.286 564.28 568.51 564.504 568.786 564.504H583.26C584.151 564.504 584.597 565.581 583.967 566.211L578.708 571.471C578.513 571.666 578.513 571.982 578.708 572.178C578.903 572.373 579.22 572.373 579.415 572.178L584.703 566.89C585.333 566.26 586.41 566.707 586.41 567.597V584.148C586.41 584.425 586.634 584.648 586.91 584.648C587.186 584.648 587.41 584.425 587.41 584.148V568.036C587.41 567.145 588.487 566.699 589.117 567.329L593.966 572.178C594.161 572.373 594.478 572.373 594.673 572.178C594.869 571.983 594.869 571.666 594.673 571.471L589.414 566.211C588.784 565.581 589.23 564.504 590.121 564.504H605.04C605.317 564.504 605.54 564.28 605.54 564.004C605.54 563.728 605.317 563.504 605.04 563.504H590.503C589.612 563.504 589.166 562.427 589.796 561.797L595.083 556.51C595.279 556.314 595.279 555.998 595.083 555.802C594.888 555.607 594.572 555.607 594.376 555.802L589.117 561.062Z" fill="#5B57CA"/>
<path fill-rule="evenodd" clip-rule="evenodd" d="M702.122 751.058C701.492 751.688 700.414 751.242 700.414 750.351V733.863C700.414 733.587 700.191 733.363 699.914 733.363C699.638 733.363 699.414 733.587 699.414 733.863V750.79C699.414 751.681 698.337 752.127 697.707 751.497L692.01 745.799C691.815 745.604 691.498 745.604 691.303 745.799C691.107 745.995 691.107 746.311 691.303 746.507L696.59 751.794C697.22 752.424 696.774 753.501 695.883 753.501H681.791C681.515 753.501 681.291 753.725 681.291 754.001C681.291 754.277 681.515 754.501 681.791 754.501H696.265C697.156 754.501 697.602 755.578 696.972 756.208L691.713 761.467C691.518 761.662 691.518 761.979 691.713 762.174C691.908 762.369 692.225 762.369 692.42 762.174L697.707 756.887C698.337 756.257 699.414 756.703 699.414 757.594V774.145C699.414 774.421 699.638 774.645 699.914 774.645C700.191 774.645 700.414 774.421 700.414 774.145V758.033C700.414 757.142 701.492 756.695 702.122 757.325L706.971 762.175C707.166 762.37 707.483 762.37 707.678 762.175C707.873 761.979 707.873 761.663 707.678 761.468L702.418 756.208C701.788 755.578 702.235 754.501 703.125 754.501H718.045C718.321 754.501 718.545 754.277 718.545 754.001C718.545 753.725 718.321 753.501 718.045 753.501H703.507C702.617 753.501 702.17 752.424 702.8 751.794L708.088 746.506C708.283 746.311 708.283 745.994 708.088 745.799C707.893 745.604 707.576 745.604 707.381 745.799L702.122 751.058Z" fill="#FF776E"/>
<path fill-rule="evenodd" clip-rule="evenodd" d="M366.969 690.249L314.83 720.352L315.33 721.218L367.969 690.827L422.761 722.461L423.261 721.595L368.969 690.249L420.956 660.235L420.456 659.369L367.969 689.672L317.636 660.612L317.136 661.478L366.969 690.249Z" fill="#FFF500"/>
<g filter="url(#filter2_i)">
<path d="M736.944 237.928L773.888 228.028L810.833 237.928L837.878 264.973L847.777 301.917L837.878 338.862L810.833 365.907L773.888 375.806L736.944 365.907L709.899 338.862L700 301.917L709.899 264.973L736.944 237.928Z" fill="#F2C94C"/>
</g>
<path d="M421.216 596L377.958 621.846C371.916 625.456 368.216 631.976 368.216 639.015L368.216 691" stroke="#FFF500" stroke-width="2" stroke-linecap="round"/>
<path d="M640.216 533L690.418 562.776C696.492 566.378 700.216 572.916 700.216 579.978L700.216 722" stroke="#FFF500" stroke-width="2" stroke-linecap="round"/>
<path fill-rule="evenodd" clip-rule="evenodd" d="M352.063 370.212C351.433 370.842 350.356 370.396 350.356 369.505V355.472C350.356 355.196 350.132 354.972 349.856 354.972C349.579 354.972 349.356 355.196 349.356 355.472V370.011C349.356 370.902 348.278 371.348 347.648 370.718L342.884 365.954C342.689 365.759 342.373 365.759 342.177 365.954C341.982 366.15 341.982 366.466 342.177 366.661L346.495 370.979C347.125 371.609 346.679 372.686 345.788 372.686H333.913C333.637 372.686 333.413 372.91 333.413 373.186C333.413 373.462 333.637 373.686 333.913 373.686H346.175C347.066 373.686 347.512 374.763 346.882 375.393L342.623 379.652C342.428 379.847 342.428 380.164 342.623 380.359C342.819 380.554 343.135 380.554 343.33 380.359L347.648 376.041C348.278 375.411 349.356 375.857 349.356 376.748V390.786C349.356 391.062 349.579 391.286 349.856 391.286C350.132 391.286 350.356 391.062 350.356 390.786V377.254C350.356 376.363 351.433 375.917 352.063 376.547L355.875 380.359C356.07 380.555 356.387 380.555 356.582 380.359C356.777 380.164 356.777 379.847 356.582 379.652L352.323 375.393C351.693 374.763 352.14 373.686 353.031 373.686H365.684C365.961 373.686 366.184 373.462 366.184 373.186C366.184 372.91 365.961 372.686 365.684 372.686H353.417C352.526 372.686 352.08 371.609 352.71 370.979L357.028 366.661C357.224 366.466 357.224 366.149 357.028 365.954C356.833 365.759 356.516 365.759 356.321 365.954L352.063 370.212Z" fill="#00BA8D"/>
<path d="M640.216 533L640.216 482.207C640.216 475.127 643.959 468.575 650.058 464.979L683.137 445.476C689.236 441.88 692.979 435.327 692.979 428.247L692.979 410.882C692.979 403.542 696.999 396.793 703.452 393.297L785.216 349" stroke="#FFF500" stroke-width="2" stroke-linecap="round"/>
<path d="M633.216 530L633.216 479.154C633.216 472.136 636.895 465.631 642.91 462.014L675.211 442.593C681.226 438.976 684.906 432.471 684.906 425.453L684.906 408.109C684.906 400.719 688.981 393.931 695.504 390.457L775.216 348" stroke="#FFF500" stroke-width="4" stroke-linecap="round"/>
<path d="M699.716 639L705.345 648H694.087L699.716 639Z" fill="#FFF500"/>
<path d="M619.216 880L614.02 871H624.412L619.216 880Z" fill="#FFF500"/>
<path d="M587.216 672L578.556 657L595.876 657L587.216 672Z" fill="#FFF500"/>
<path d="M368.216 668L359.556 653L376.876 653L368.216 668Z" fill="#FFF500"/>
<path d="M722.216 606L713.556 591L730.876 591L722.216 606Z" fill="#FFF500"/>
<path d="M699.716 648L705.345 657.75H694.087L699.716 648Z" fill="#FFF500"/>
<path d="M619.216 872L614.02 862.25H624.412L619.216 872Z" fill="#FFF500"/>
<path d="M587.216 659L578.556 644L595.876 644L587.216 659Z" fill="#FFF500"/>
<path d="M368.216 654L359.556 639L376.876 639L368.216 654Z" fill="#FFF500"/>
<path d="M722.216 592L713.556 577L730.876 577L722.216 592Z" fill="#FFF500"/>
<g filter="url(#filter3_i)">
<path d="M619.216 899L653.857 918.75V958.25L619.216 978L584.575 958.25V918.75L619.216 899Z" fill="#FF776E"/>
</g>
<path fill-rule="evenodd" clip-rule="evenodd" d="M616.721 941.622C617.351 940.992 618.428 941.439 618.428 942.329V970.016C618.428 970.292 618.652 970.516 618.928 970.516C619.204 970.516 619.428 970.292 619.428 970.016V942.468C619.428 941.577 620.505 941.131 621.135 941.761L630.58 951.206C630.776 951.401 631.092 951.401 631.288 951.206C631.483 951.011 631.483 950.694 631.288 950.499L621.59 940.802C620.961 940.172 621.407 939.095 622.298 939.095L647.262 939.095C647.538 939.095 647.762 938.871 647.762 938.595C647.762 938.319 647.538 938.095 647.262 938.095L622.663 938.095C621.772 938.095 621.326 937.018 621.956 936.388L631.54 926.804C631.735 926.609 631.735 926.292 631.54 926.097C631.344 925.902 631.028 925.902 630.832 926.097L621.135 935.794C620.505 936.424 619.428 935.978 619.428 935.087V907.717C619.428 907.441 619.204 907.217 618.928 907.217C618.652 907.217 618.428 907.441 618.428 907.717V935.225C618.428 936.116 617.351 936.562 616.721 935.932L606.886 926.097C606.691 925.902 606.374 925.902 606.179 926.097C605.984 926.293 605.984 926.609 606.179 926.804L615.762 936.388C616.392 937.018 615.946 938.095 615.055 938.095H591.139C590.863 938.095 590.639 938.319 590.639 938.595C590.639 938.871 590.863 939.095 591.139 939.095H615.42C616.311 939.095 616.757 940.172 616.128 940.802L606.431 950.498C606.236 950.694 606.236 951.01 606.431 951.206C606.626 951.401 606.943 951.401 607.138 951.206L616.721 941.622Z" fill="#FFF500"/>
<ellipse cx="826.216" cy="453.5" rx="13" ry="12.5" fill="#FDBBAB"/>
<ellipse cx="539.716" cy="424" rx="7.5" ry="7" stroke="#FFF500" stroke-width="2"/>
<ellipse cx="586.716" cy="362" rx="7.5" ry="7" stroke="#FFF500" stroke-width="2"/>
<path d="M774.716 292L802.862 308.25V340.75L774.716 357L746.57 340.75V308.25L774.716 292Z" fill="#FFF500"/>
<circle cx="641.716" cy="409.5" r="7.5" stroke="#FFF500" stroke-width="2"/>
<path fill-rule="evenodd" clip-rule="evenodd" d="M776.63 321.597C776 322.227 774.923 321.781 774.923 320.89V304.402C774.923 304.126 774.699 303.902 774.423 303.902C774.147 303.902 773.923 304.126 773.923 304.402V321.328C773.923 322.219 772.846 322.666 772.216 322.036L766.518 316.338C766.323 316.143 766.007 316.143 765.811 316.338C765.616 316.533 765.616 316.85 765.811 317.045L771.098 322.332C771.728 322.962 771.282 324.039 770.391 324.039H756.299C756.023 324.039 755.799 324.263 755.799 324.539C755.799 324.816 756.023 325.039 756.299 325.039H770.773C771.664 325.039 772.11 326.117 771.48 326.747L766.221 332.006C766.026 332.201 766.026 332.518 766.221 332.713C766.417 332.908 766.733 332.908 766.929 332.713L772.216 327.425C772.846 326.795 773.923 327.242 773.923 328.133V344.684C773.923 344.96 774.147 345.184 774.423 345.184C774.699 345.184 774.923 344.96 774.923 344.684V328.571C774.923 327.68 776 327.234 776.63 327.864L781.479 332.713C781.675 332.909 781.991 332.909 782.186 332.713C782.382 332.518 782.382 332.201 782.186 332.006L776.927 326.747C776.297 326.117 776.743 325.04 777.634 325.04H792.554C792.83 325.04 793.054 324.816 793.054 324.54C793.054 324.263 792.83 324.04 792.554 324.04H778.016C777.125 324.04 776.679 322.962 777.309 322.332L782.597 317.045C782.792 316.849 782.792 316.533 782.597 316.338C782.401 316.142 782.085 316.142 781.89 316.338L776.63 321.597Z" fill="#5B57CA"/>
<g filter="url(#filter4_i)">
<path d="M310.216 686L333.999 694.773L346.654 716.988L342.259 742.25L322.871 758.738H297.561L278.173 742.25L273.778 716.988L286.433 694.773L310.216 686Z" fill="#FDBBAB"/>
</g>
<g filter="url(#filter5_i)">
<path d="M400.216 725.5L403.538 712.255L412.742 702.045L425.721 697.208L439.5 698.852L450.923 706.601L457.373 718.68L457.373 732.32L450.923 744.399L439.5 752.148L425.721 753.792L412.742 748.955L403.538 738.745L400.216 725.5Z" fill="#00BA8D"/>
</g>
<g filter="url(#filter6_i)">
<path d="M317.716 642L330.25 646.562L336.92 658.114L334.604 671.25L324.385 679.824H311.047L300.829 671.25L298.512 658.114L305.182 646.562L317.716 642Z" fill="#FFC27A"/>
</g>
<circle cx="368.716" cy="689.5" r="7.5" fill="#FFF500"/>
<g filter="url(#filter7_i)">
<path d="M421.716 639L434.353 643.011L442.164 653.511V666.489L434.353 676.989L421.716 681L409.079 676.989L401.268 666.489V653.511L409.079 643.011L421.716 639Z" fill="#7A75FF"/>
</g>
<defs>
<filter id="filter0_i" x="216.726" y="243.927" width="187.812" height="187.812" filterUnits="userSpaceOnUse" color-interpolation-filters="sRGB">
<feFlood flood-opacity="0" result="BackgroundImageFix"/>
<feBlend mode="normal" in="SourceGraphic" in2="BackgroundImageFix" result="shape"/>
<feColorMatrix in="SourceAlpha" type="matrix" values="0 0 0 0 0 0 0 0 0 0 0 0 0 0 0 0 0 0 127 0" result="hardAlpha"/>
<feOffset dx="-8" dy="-8"/>
<feGaussianBlur stdDeviation="12"/>
<feComposite in2="hardAlpha" operator="arithmetic" k2="-1" k3="1"/>
<feColorMatrix type="matrix" values="0 0 0 0 0.477174 0 0 0 0 0.458333 0 0 0 0 1 0 0 0 1 0"/>
<feBlend mode="normal" in2="shape" result="effect1_innerShadow"/>
</filter>
<filter id="filter1_i" x="617.671" y="671" width="189.091" height="185.175" filterUnits="userSpaceOnUse" color-interpolation-filters="sRGB">
<feFlood flood-opacity="0" result="BackgroundImageFix"/>
<feBlend mode="normal" in="SourceGraphic" in2="BackgroundImageFix" result="shape"/>
<feColorMatrix in="SourceAlpha" type="matrix" values="0 0 0 0 0 0 0 0 0 0 0 0 0 0 0 0 0 0 127 0" result="hardAlpha"/>
<feOffset dx="24" dy="20"/>
<feGaussianBlur stdDeviation="14"/>
<feComposite in2="hardAlpha" operator="arithmetic" k2="-1" k3="1"/>
<feColorMatrix type="matrix" values="0 0 0 0 1 0 0 0 0 0.48 0 0 0 0 0 0 0 0 1 0"/>
<feBlend mode="normal" in2="shape" result="effect1_innerShadow"/>
</filter>
<filter id="filter2_i" x="700" y="228.028" width="147.778" height="163.778" filterUnits="userSpaceOnUse" color-interpolation-filters="sRGB">
<feFlood flood-opacity="0" result="BackgroundImageFix"/>
<feBlend mode="normal" in="SourceGraphic" in2="BackgroundImageFix" result="shape"/>
<feColorMatrix in="SourceAlpha" type="matrix" values="0 0 0 0 0 0 0 0 0 0 0 0 0 0 0 0 0 0 127 0" result="hardAlpha"/>
<feOffset dy="16"/>
<feGaussianBlur stdDeviation="8"/>
<feComposite in2="hardAlpha" operator="arithmetic" k2="-1" k3="1"/>
<feColorMatrix type="matrix" values="0 0 0 0 0.337255 0 0 0 0 0.8 0 0 0 0 0.94902 0 0 0 1 0"/>
<feBlend mode="normal" in2="shape" result="effect1_innerShadow"/>
</filter>
<filter id="filter3_i" x="584.575" y="899" width="93.282" height="99" filterUnits="userSpaceOnUse" color-interpolation-filters="sRGB">
<feFlood flood-opacity="0" result="BackgroundImageFix"/>
<feBlend mode="normal" in="SourceGraphic" in2="BackgroundImageFix" result="shape"/>
<feColorMatrix in="SourceAlpha" type="matrix" values="0 0 0 0 0 0 0 0 0 0 0 0 0 0 0 0 0 0 127 0" result="hardAlpha"/>
<feOffset dx="24" dy="20"/>
<feGaussianBlur stdDeviation="14"/>
<feComposite in2="hardAlpha" operator="arithmetic" k2="-1" k3="1"/>
<feColorMatrix type="matrix" values="0 0 0 0 1 0 0 0 0 0.48 0 0 0 0 0 0 0 0 1 0"/>
<feBlend mode="normal" in2="shape" result="effect1_innerShadow"/>
</filter>
<filter id="filter4_i" x="273.778" y="686" width="80.8758" height="80.7385" filterUnits="userSpaceOnUse" color-interpolation-filters="sRGB">
<feFlood flood-opacity="0" result="BackgroundImageFix"/>
<feBlend mode="normal" in="SourceGraphic" in2="BackgroundImageFix" result="shape"/>
<feColorMatrix in="SourceAlpha" type="matrix" values="0 0 0 0 0 0 0 0 0 0 0 0 0 0 0 0 0 0 127 0" result="hardAlpha"/>
<feOffset dx="8" dy="8"/>
<feGaussianBlur stdDeviation="4"/>
<feComposite in2="hardAlpha" operator="arithmetic" k2="-1" k3="1"/>
<feColorMatrix type="matrix" values="0 0 0 0 0.952941 0 0 0 0 0.913725 0 0 0 0 0 0 0 0 1 0"/>
<feBlend mode="normal" in2="shape" result="effect1_innerShadow"/>
</filter>
<filter id="filter5_i" x="380.216" y="697.208" width="77.1573" height="60.5844" filterUnits="userSpaceOnUse" color-interpolation-filters="sRGB">
<feFlood flood-opacity="0" result="BackgroundImageFix"/>
<feBlend mode="normal" in="SourceGraphic" in2="BackgroundImageFix" result="shape"/>
<feColorMatrix in="SourceAlpha" type="matrix" values="0 0 0 0 0 0 0 0 0 0 0 0 0 0 0 0 0 0 127 0" result="hardAlpha"/>
<feOffset dx="-20" dy="4"/>
<feGaussianBlur stdDeviation="10"/>
<feComposite in2="hardAlpha" operator="arithmetic" k2="-1" k3="1"/>
<feColorMatrix type="matrix" values="0 0 0 0 1 0 0 0 0 0.96 0 0 0 0 0 0 0 0 1 0"/>
<feBlend mode="normal" in2="shape" result="effect1_innerShadow"/>
</filter>
<filter id="filter6_i" x="291.512" y="642" width="45.4075" height="41.824" filterUnits="userSpaceOnUse" color-interpolation-filters="sRGB">
<feFlood flood-opacity="0" result="BackgroundImageFix"/>
<feBlend mode="normal" in="SourceGraphic" in2="BackgroundImageFix" result="shape"/>
<feColorMatrix in="SourceAlpha" type="matrix" values="0 0 0 0 0 0 0 0 0 0 0 0 0 0 0 0 0 0 127 0" result="hardAlpha"/>
<feOffset dx="-8" dy="4"/>
<feGaussianBlur stdDeviation="3.5"/>
<feComposite in2="hardAlpha" operator="arithmetic" k2="-1" k3="1"/>
<feColorMatrix type="matrix" values="0 0 0 0 1 0 0 0 0 0.48 0 0 0 0 0 0 0 0 1 0"/>
<feBlend mode="normal" in2="shape" result="effect1_innerShadow"/>
</filter>
<filter id="filter7_i" x="393.268" y="631" width="48.8954" height="50" filterUnits="userSpaceOnUse" color-interpolation-filters="sRGB">
<feFlood flood-opacity="0" result="BackgroundImageFix"/>
<feBlend mode="normal" in="SourceGraphic" in2="BackgroundImageFix" result="shape"/>
<feColorMatrix in="SourceAlpha" type="matrix" values="0 0 0 0 0 0 0 0 0 0 0 0 0 0 0 0 0 0 127 0" result="hardAlpha"/>
<feOffset dx="-8" dy="-8"/>
<feGaussianBlur stdDeviation="12"/>
<feComposite in2="hardAlpha" operator="arithmetic" k2="-1" k3="1"/>
<feColorMatrix type="matrix" values="0 0 0 0 1 0 0 0 0 0.48 0 0 0 0 0 0 0 0 1 0"/>
<feBlend mode="normal" in2="shape" result="effect1_innerShadow"/>
</filter>
</defs>
</svg>
