<svg width="1080" height="1080" viewBox="0 0 1080 1080" fill="none" xmlns="http://www.w3.org/2000/svg">
<rect width="1080" height="1080" fill="#5B57CA"/>
<g filter="url(#filter0_i)">
<path d="M540 258L779.889 396.75V674.25L540 813L300.111 674.25V396.75L540 258Z" fill="#00BA8D"/>
</g>
<path d="M349 563L398.132 534.132C404.245 530.539 408 523.979 408 516.888L408 459" stroke="#FFF500" stroke-width="4" stroke-linecap="round"/>
<path d="M358 570L407.251 540.602C413.297 536.993 417 530.471 417 523.429L417 452" stroke="#FFF500" stroke-width="2" stroke-linecap="round"/>
<g filter="url(#filter1_i)">
<path d="M540 454L611.014 494.75V576.25L540 617L468.986 576.25V494.75L540 454Z" fill="#00BA8D"/>
</g>
<g filter="url(#filter2_i)">
<path d="M282.005 282.902L327.871 256.42L380.834 256.42L426.7 282.902L453.182 328.768V381.731L426.7 427.597L380.834 454.079L327.871 454.079L282.005 427.597L255.523 381.731V328.768L282.005 282.902Z" fill="#00BA8D"/>
</g>
<path d="M540 466L600.622 500.75V570.25L540 605L479.378 570.25V500.75L540 466Z" fill="#FFF500"/>
<g filter="url(#filter3_i)">
<path d="M664.5 653L701.716 660.911L732.498 683.275L751.522 716.225L755.499 754.064L743.741 790.25L718.282 818.525L683.524 834.001H645.476L610.718 818.525L585.259 790.25L573.501 754.064L577.478 716.225L596.502 683.275L627.284 660.911L664.5 653Z" fill="#FF776E"/>
</g>
<path d="M664.5 702L701.306 723.25V765.75L664.5 787L627.694 765.75V723.25L664.5 702Z" fill="#FFF500"/>
<path d="M354.5 328L379.182 342.25V370.75L354.5 385L329.818 370.75V342.25L354.5 328Z" fill="#FFF500"/>
<path d="M413 376L425.99 383.5V398.5L413 406L400.01 398.5V383.5L413 376Z" fill="#FFF500"/>
<path d="M346 548L358.99 555.5V570.5L346 578L333.01 570.5V555.5L346 548Z" fill="#FFF500"/>
<path d="M615 701L627.99 708.5V723.5L615 731L602.01 723.5V708.5L615 701Z" fill="#FFF500"/>
<path d="M603 709L550.245 679.526C543.919 675.992 540 669.312 540 662.066V598" stroke="#FFF500" stroke-width="4" stroke-linecap="round"/>
<path d="M376.193 732.866L431.607 764.859C437.998 768.549 445.902 768.42 452.169 764.522L505.991 731.049C511.86 727.399 515.429 720.977 515.429 714.065L515.429 570.928" stroke="#FFF500" stroke-width="4" stroke-linecap="round"/>
<path d="M614 701L561.245 671.526C554.919 667.992 551 661.312 551 654.066V590" stroke="#FFF500" stroke-width="2" stroke-linecap="round"/>
<path d="M377.607 719.497L433.267 751.632C439.528 755.246 447.252 755.201 453.469 751.513L495.553 726.554C501.627 722.951 505.351 716.413 505.351 709.351L505.351 576.388" stroke="#FFF500" stroke-width="2" stroke-linecap="round"/>
<path d="M420 395L471.355 426.077C477.342 429.7 481 436.19 481 443.188L481 570" stroke="#FFF500" stroke-width="4"/>
<path d="M425 385L482.265 419.25C488.303 422.861 492 429.379 492 436.414L492 572" stroke="#FFF500" stroke-width="2"/>
<path d="M495 385L530.383 406.492C536.354 410.119 540 416.599 540 423.586L540 467" stroke="#FFF500" stroke-width="2"/>
<path d="M595 369L549.787 395.854C543.719 399.458 540 405.992 540 413.05L540 467" stroke="#FFF500" stroke-width="2"/>
<path d="M473 318L530.377 352.826C536.352 356.452 540 362.934 540 369.923L540 440" stroke="#FFF500" stroke-width="2"/>
<path d="M540 321L540 358.843L540 440" stroke="#FFF500" stroke-width="2"/>
<path d="M599 501L599 444.114C599 437.038 602.739 430.488 608.833 426.891L647.024 404.348C653.118 400.75 656.857 394.201 656.857 387.124L656.857 353.859C656.857 344.961 661.608 336.718 669.369 332.15L707 310" stroke="#FFF500" stroke-width="2" stroke-linecap="round"/>
<path d="M591 497L591 440.005C591 432.988 594.678 426.483 600.692 422.866L638.094 400.372C644.107 396.755 647.786 390.251 647.786 383.233L647.786 349.859C647.786 340.961 652.449 332.718 660.066 328.15L697 306" stroke="#FFF500" stroke-width="4" stroke-linecap="round"/>
<path d="M664 746L584.767 793.184C578.711 796.79 575 803.319 575 810.368L575 905" stroke="#FFF500" stroke-width="2"/>
<path fill-rule="evenodd" clip-rule="evenodd" d="M542.154 531.951C541.524 532.581 540.447 532.135 540.447 531.244V512.731C540.447 512.455 540.223 512.231 539.947 512.231C539.67 512.231 539.447 512.455 539.447 512.731V531.627C539.447 532.518 538.369 532.964 537.739 532.334L531.272 525.866C531.077 525.671 530.76 525.671 530.565 525.866C530.37 526.062 530.37 526.378 530.565 526.573L536.651 532.66C537.281 533.29 536.835 534.367 535.944 534.367H520.024C519.748 534.367 519.524 534.591 519.524 534.867C519.524 535.143 519.748 535.367 520.024 535.367H536.323C537.214 535.367 537.66 536.444 537.03 537.074L530.946 543.159C530.75 543.354 530.75 543.671 530.946 543.866C531.141 544.061 531.457 544.061 531.653 543.866L537.739 537.779C538.369 537.15 539.447 537.596 539.447 538.487V557.11C539.447 557.386 539.67 557.61 539.947 557.61C540.223 557.61 540.447 557.386 540.447 557.11V538.869C540.447 537.978 541.524 537.532 542.154 538.162L547.858 543.867C548.053 544.062 548.37 544.062 548.565 543.867C548.761 543.672 548.761 543.355 548.565 543.16L542.48 537.074C541.85 536.444 542.296 535.367 543.187 535.367H559.976C560.252 535.367 560.476 535.143 560.476 534.867C560.476 534.591 560.252 534.367 559.976 534.367H543.566C542.675 534.367 542.229 533.29 542.859 532.66L548.946 526.573C549.141 526.378 549.141 526.061 548.946 525.866C548.751 525.671 548.434 525.671 548.239 525.866L542.154 531.951Z" fill="#5B57CA"/>
<path fill-rule="evenodd" clip-rule="evenodd" d="M666.374 740.804C665.744 741.434 664.666 740.988 664.666 740.097V721.584C664.666 721.308 664.443 721.084 664.166 721.084C663.89 721.084 663.666 721.308 663.666 721.584V740.48C663.666 741.371 662.589 741.817 661.959 741.187L655.492 734.72C655.297 734.524 654.98 734.524 654.785 734.72C654.59 734.915 654.59 735.231 654.785 735.427L660.871 741.513C661.501 742.143 661.055 743.22 660.164 743.22H644.244C643.968 743.22 643.744 743.444 643.744 743.72C643.744 743.997 643.968 744.22 644.244 744.22H660.543C661.434 744.22 661.88 745.298 661.25 745.927L655.166 752.012C654.97 752.208 654.97 752.524 655.166 752.719C655.361 752.915 655.677 752.915 655.873 752.719L661.959 746.633C662.589 746.003 663.666 746.449 663.666 747.34V765.963C663.666 766.239 663.89 766.463 664.166 766.463C664.443 766.463 664.666 766.239 664.666 765.963V747.723C664.666 746.832 665.744 746.386 666.374 747.016L672.078 752.72C672.273 752.915 672.59 752.915 672.785 752.72C672.98 752.525 672.98 752.208 672.785 752.013L666.7 745.927C666.07 745.298 666.516 744.22 667.407 744.22H684.196C684.472 744.22 684.696 743.997 684.696 743.72C684.696 743.444 684.472 743.22 684.196 743.22H667.786C666.895 743.22 666.449 742.143 667.079 741.513L673.166 735.426C673.361 735.231 673.361 734.914 673.166 734.719C672.971 734.524 672.654 734.524 672.459 734.719L666.374 740.804Z" fill="#FF776E"/>
<path fill-rule="evenodd" clip-rule="evenodd" d="M298.326 673.634L240.914 706.781L241.414 707.647L299.326 674.211L359.606 709.014L360.106 708.148L300.326 673.634L357.522 640.612L357.022 639.746L299.326 673.056L243.998 641.112L243.498 641.978L298.326 673.634Z" fill="#FFF500"/>
<path d="M358 570L309.667 599.167C303.667 602.787 300 609.283 300 616.29L300 675" stroke="#FFF500" stroke-width="2" stroke-linecap="round"/>
<path d="M599 501L654.321 534.333C660.327 537.952 663.999 544.452 663.999 551.464L664 709" stroke="#FFF500" stroke-width="2" stroke-linecap="round"/>
<path fill-rule="evenodd" clip-rule="evenodd" d="M356.573 353.161C355.943 353.791 354.866 353.345 354.866 352.454V336.639C354.866 336.363 354.642 336.139 354.366 336.139C354.09 336.139 353.866 336.363 353.866 336.639V352.911C353.866 353.801 352.789 354.248 352.159 353.618L346.717 348.176C346.522 347.981 346.205 347.981 346.01 348.176C345.815 348.372 345.815 348.688 346.01 348.883L351.031 353.904C351.661 354.534 351.215 355.612 350.324 355.612H336.841C336.564 355.612 336.341 355.835 336.341 356.112C336.341 356.388 336.564 356.612 336.841 356.612H350.708C351.599 356.612 352.045 357.689 351.415 358.319L346.43 363.303C346.235 363.499 346.235 363.815 346.43 364.011C346.626 364.206 346.942 364.206 347.137 364.011L352.159 358.989C352.789 358.359 353.866 358.805 353.866 359.696V375.558C353.866 375.834 354.09 376.058 354.366 376.058C354.642 376.058 354.866 375.834 354.866 375.558V360.153C354.866 359.262 355.943 358.816 356.573 359.446L361.138 364.011C361.333 364.206 361.649 364.206 361.845 364.011C362.04 363.816 362.04 363.499 361.845 363.304L356.86 358.319C356.23 357.689 356.676 356.612 357.567 356.612H371.865C372.141 356.612 372.365 356.388 372.365 356.112C372.365 355.835 372.141 355.612 371.865 355.612H357.951C357.06 355.612 356.613 354.534 357.243 353.904L362.265 348.883C362.46 348.688 362.46 348.371 362.265 348.176C362.069 347.981 361.753 347.981 361.558 348.176L356.573 353.161Z" fill="#00BA8D"/>
<g filter="url(#filter4_i)">
<path d="M704.921 176.478L745.532 165.596L786.143 176.478L815.872 206.207L826.754 246.818L815.872 287.429L786.143 317.159L745.532 328.041L704.921 317.159L675.191 287.429L664.31 246.818L675.191 206.207L704.921 176.478Z" fill="#F2C94C"/>
</g>
<path d="M664 617L670.062 627.5H657.938L664 617Z" fill="#FFF500"/>
<path d="M575.5 882L569.871 872.25H581.129L575.5 882Z" fill="#FFF500"/>
<path d="M540 654L530.474 637.5L549.526 637.5L540 654Z" fill="#FFF500"/>
<path d="M300 649L290.474 632.5L309.526 632.5L300 649Z" fill="#FFF500"/>
<path d="M715 538L705.474 521.5L724.526 521.5L715 538Z" fill="#FFF500"/>
<path d="M664 627L670.062 637.5H657.938L664 627Z" fill="#FFF500"/>
<path d="M575.5 873L569.871 862.5H581.129L575.5 873Z" fill="#FFF500"/>
<path d="M540 639L530.474 622.5L549.526 622.5L540 639Z" fill="#FFF500"/>
<path d="M300 634L290.474 617.5L309.526 617.5L300 634Z" fill="#FFF500"/>
<path d="M715 523L705.474 506.5L724.526 506.5L715 523Z" fill="#FFF500"/>
<g filter="url(#filter5_i)">
<path d="M575.5 903L613.172 924.75V968.25L575.5 990L537.828 968.25V924.75L575.5 903Z" fill="#FF776E"/>
</g>
<path fill-rule="evenodd" clip-rule="evenodd" d="M572.936 949.702C573.566 949.072 574.643 949.518 574.643 950.409V981.273C574.643 981.549 574.867 981.773 575.143 981.773C575.419 981.773 575.643 981.549 575.643 981.273V950.462C575.643 949.571 576.72 949.125 577.35 949.755L588.106 960.512C588.302 960.707 588.618 960.707 588.813 960.512C589.009 960.316 589.009 960 588.813 959.805L577.85 948.841C577.22 948.211 577.666 947.134 578.557 947.134H606.388C606.664 947.134 606.888 946.91 606.888 946.634C606.888 946.358 606.664 946.134 606.388 946.134H578.918C578.027 946.134 577.581 945.057 578.211 944.427L589.02 933.618C589.215 933.422 589.215 933.106 589.02 932.911C588.825 932.715 588.508 932.715 588.313 932.911L577.35 943.874C576.72 944.504 575.643 944.058 575.643 943.167V912.692C575.643 912.416 575.419 912.192 575.143 912.192C574.867 912.192 574.643 912.416 574.643 912.692V943.22C574.643 944.111 573.566 944.557 572.936 943.927L561.92 932.911C561.725 932.716 561.408 932.716 561.213 932.911C561.018 933.106 561.018 933.423 561.213 933.618L572.022 944.427C572.652 945.057 572.206 946.134 571.315 946.134H544.595C544.319 946.134 544.095 946.358 544.095 946.634C544.095 946.91 544.319 947.134 544.595 947.134H571.675C572.566 947.134 573.012 948.211 572.382 948.841L561.419 959.804C561.224 959.999 561.224 960.316 561.419 960.511C561.615 960.707 561.931 960.707 562.127 960.511L572.936 949.702Z" fill="#FFF500"/>
<circle cx="488" cy="381" r="8" stroke="#FFF500" stroke-width="2"/>
<circle cx="540" cy="313" r="8" stroke="#FFF500" stroke-width="2"/>
<circle cx="600" cy="365" r="8" stroke="#FFF500" stroke-width="2"/>
<path fill-rule="evenodd" clip-rule="evenodd" d="M748.277 243.924C747.647 244.554 746.57 244.108 746.57 243.217V224.704C746.57 224.428 746.346 224.204 746.07 224.204C745.794 224.204 745.57 224.428 745.57 224.704V243.6C745.57 244.491 744.493 244.937 743.863 244.307L737.395 237.84C737.2 237.645 736.883 237.645 736.688 237.84C736.493 238.035 736.493 238.352 736.688 238.547L742.775 244.633C743.405 245.263 742.958 246.34 742.068 246.34H726.147C725.871 246.34 725.647 246.564 725.647 246.84C725.647 247.117 725.871 247.34 726.147 247.34H742.447C743.338 247.34 743.784 248.418 743.154 249.048L737.069 255.132C736.874 255.328 736.874 255.644 737.069 255.84C737.264 256.035 737.581 256.035 737.776 255.84L743.863 249.753C744.493 249.123 745.57 249.569 745.57 250.46V269.083C745.57 269.359 745.794 269.583 746.07 269.583C746.346 269.583 746.57 269.359 746.57 269.083V250.843C746.57 249.952 747.647 249.506 748.277 250.136L753.981 255.84C754.177 256.035 754.493 256.035 754.689 255.84C754.884 255.645 754.884 255.328 754.689 255.133L748.603 249.048C747.973 248.418 748.419 247.34 749.31 247.34H766.099C766.375 247.34 766.599 247.117 766.599 246.84C766.599 246.564 766.375 246.34 766.099 246.34H749.689C748.798 246.34 748.352 245.263 748.982 244.633L755.069 238.546C755.265 238.351 755.265 238.034 755.069 237.839C754.874 237.644 754.557 237.644 754.362 237.839L748.277 243.924Z" fill="#5B57CA"/>
<g filter="url(#filter6_i)">
<path d="M236 669L262.354 678.592L276.377 702.88L271.507 730.5L250.023 748.527H221.977L200.493 730.5L195.623 702.88L209.646 678.592L236 669Z" fill="#FDBBAB"/>
</g>
<g filter="url(#filter7_i)">
<path d="M335 712.5L338.608 697.861L348.606 686.576L362.703 681.23L377.67 683.047L390.078 691.612L397.085 704.962L397.085 720.038L390.078 733.388L377.67 741.953L362.703 743.77L348.606 738.424L338.608 727.139L335 712.5Z" fill="#00BA8D"/>
</g>
<g filter="url(#filter8_i)">
<path d="M244.5 621L258.32 626.03L265.673 638.767L263.12 653.25L251.853 662.703H237.147L225.88 653.25L223.327 638.767L230.68 626.03L244.5 621Z" fill="#FFC27A"/>
</g>
<circle cx="300" cy="673" r="8" fill="#FFF500"/>
<g filter="url(#filter9_i)">
<path d="M358.5 617L372.313 621.488L380.85 633.238V647.762L372.313 659.512L358.5 664L344.687 659.512L336.15 647.762V633.238L344.687 621.488L358.5 617Z" fill="#7A75FF"/>
</g>
<defs>
<filter id="filter0_i" x="284.111" y="242" width="495.778" height="571" filterUnits="userSpaceOnUse" color-interpolation-filters="sRGB">
<feFlood flood-opacity="0" result="BackgroundImageFix"/>
<feBlend mode="normal" in="SourceGraphic" in2="BackgroundImageFix" result="shape"/>
<feColorMatrix in="SourceAlpha" type="matrix" values="0 0 0 0 0 0 0 0 0 0 0 0 0 0 0 0 0 0 127 0" result="hardAlpha"/>
<feOffset dx="-16" dy="-16"/>
<feGaussianBlur stdDeviation="20"/>
<feComposite in2="hardAlpha" operator="arithmetic" k2="-1" k3="1"/>
<feColorMatrix type="matrix" values="0 0 0 0 1 0 0 0 0 0.96 0 0 0 0 0 0 0 0 1 0"/>
<feBlend mode="normal" in2="shape" result="effect1_innerShadow"/>
</filter>
<filter id="filter1_i" x="452.986" y="438" width="158.028" height="179" filterUnits="userSpaceOnUse" color-interpolation-filters="sRGB">
<feFlood flood-opacity="0" result="BackgroundImageFix"/>
<feBlend mode="normal" in="SourceGraphic" in2="BackgroundImageFix" result="shape"/>
<feColorMatrix in="SourceAlpha" type="matrix" values="0 0 0 0 0 0 0 0 0 0 0 0 0 0 0 0 0 0 127 0" result="hardAlpha"/>
<feOffset dx="-16" dy="-16"/>
<feGaussianBlur stdDeviation="20"/>
<feComposite in2="hardAlpha" operator="arithmetic" k2="-1" k3="1"/>
<feColorMatrix type="matrix" values="0 0 0 0 1 0 0 0 0 0.96 0 0 0 0 0 0 0 0 1 0"/>
<feBlend mode="normal" in2="shape" result="effect1_innerShadow"/>
</filter>
<filter id="filter2_i" x="247.523" y="248.42" width="205.658" height="205.658" filterUnits="userSpaceOnUse" color-interpolation-filters="sRGB">
<feFlood flood-opacity="0" result="BackgroundImageFix"/>
<feBlend mode="normal" in="SourceGraphic" in2="BackgroundImageFix" result="shape"/>
<feColorMatrix in="SourceAlpha" type="matrix" values="0 0 0 0 0 0 0 0 0 0 0 0 0 0 0 0 0 0 127 0" result="hardAlpha"/>
<feOffset dx="-8" dy="-8"/>
<feGaussianBlur stdDeviation="12"/>
<feComposite in2="hardAlpha" operator="arithmetic" k2="-1" k3="1"/>
<feColorMatrix type="matrix" values="0 0 0 0 0.477174 0 0 0 0 0.458333 0 0 0 0 1 0 0 0 1 0"/>
<feBlend mode="normal" in2="shape" result="effect1_innerShadow"/>
</filter>
<filter id="filter3_i" x="573.501" y="653" width="205.997" height="201.001" filterUnits="userSpaceOnUse" color-interpolation-filters="sRGB">
<feFlood flood-opacity="0" result="BackgroundImageFix"/>
<feBlend mode="normal" in="SourceGraphic" in2="BackgroundImageFix" result="shape"/>
<feColorMatrix in="SourceAlpha" type="matrix" values="0 0 0 0 0 0 0 0 0 0 0 0 0 0 0 0 0 0 127 0" result="hardAlpha"/>
<feOffset dx="24" dy="20"/>
<feGaussianBlur stdDeviation="14"/>
<feComposite in2="hardAlpha" operator="arithmetic" k2="-1" k3="1"/>
<feColorMatrix type="matrix" values="0 0 0 0 1 0 0 0 0 0.48 0 0 0 0 0 0 0 0 1 0"/>
<feBlend mode="normal" in2="shape" result="effect1_innerShadow"/>
</filter>
<filter id="filter4_i" x="664.31" y="165.596" width="162.444" height="178.444" filterUnits="userSpaceOnUse" color-interpolation-filters="sRGB">
<feFlood flood-opacity="0" result="BackgroundImageFix"/>
<feBlend mode="normal" in="SourceGraphic" in2="BackgroundImageFix" result="shape"/>
<feColorMatrix in="SourceAlpha" type="matrix" values="0 0 0 0 0 0 0 0 0 0 0 0 0 0 0 0 0 0 127 0" result="hardAlpha"/>
<feOffset dy="16"/>
<feGaussianBlur stdDeviation="8"/>
<feComposite in2="hardAlpha" operator="arithmetic" k2="-1" k3="1"/>
<feColorMatrix type="matrix" values="0 0 0 0 0.337255 0 0 0 0 0.8 0 0 0 0 0.94902 0 0 0 1 0"/>
<feBlend mode="normal" in2="shape" result="effect1_innerShadow"/>
</filter>
<filter id="filter5_i" x="537.828" y="903" width="99.3442" height="107" filterUnits="userSpaceOnUse" color-interpolation-filters="sRGB">
<feFlood flood-opacity="0" result="BackgroundImageFix"/>
<feBlend mode="normal" in="SourceGraphic" in2="BackgroundImageFix" result="shape"/>
<feColorMatrix in="SourceAlpha" type="matrix" values="0 0 0 0 0 0 0 0 0 0 0 0 0 0 0 0 0 0 127 0" result="hardAlpha"/>
<feOffset dx="24" dy="20"/>
<feGaussianBlur stdDeviation="14"/>
<feComposite in2="hardAlpha" operator="arithmetic" k2="-1" k3="1"/>
<feColorMatrix type="matrix" values="0 0 0 0 1 0 0 0 0 0.48 0 0 0 0 0 0 0 0 1 0"/>
<feBlend mode="normal" in2="shape" result="effect1_innerShadow"/>
</filter>
<filter id="filter6_i" x="195.623" y="669" width="88.7542" height="87.5274" filterUnits="userSpaceOnUse" color-interpolation-filters="sRGB">
<feFlood flood-opacity="0" result="BackgroundImageFix"/>
<feBlend mode="normal" in="SourceGraphic" in2="BackgroundImageFix" result="shape"/>
<feColorMatrix in="SourceAlpha" type="matrix" values="0 0 0 0 0 0 0 0 0 0 0 0 0 0 0 0 0 0 127 0" result="hardAlpha"/>
<feOffset dx="8" dy="8"/>
<feGaussianBlur stdDeviation="4"/>
<feComposite in2="hardAlpha" operator="arithmetic" k2="-1" k3="1"/>
<feColorMatrix type="matrix" values="0 0 0 0 0.952941 0 0 0 0 0.913725 0 0 0 0 0 0 0 0 1 0"/>
<feBlend mode="normal" in2="shape" result="effect1_innerShadow"/>
</filter>
<filter id="filter7_i" x="315" y="681.23" width="82.0847" height="66.5407" filterUnits="userSpaceOnUse" color-interpolation-filters="sRGB">
<feFlood flood-opacity="0" result="BackgroundImageFix"/>
<feBlend mode="normal" in="SourceGraphic" in2="BackgroundImageFix" result="shape"/>
<feColorMatrix in="SourceAlpha" type="matrix" values="0 0 0 0 0 0 0 0 0 0 0 0 0 0 0 0 0 0 127 0" result="hardAlpha"/>
<feOffset dx="-20" dy="4"/>
<feGaussianBlur stdDeviation="10"/>
<feComposite in2="hardAlpha" operator="arithmetic" k2="-1" k3="1"/>
<feColorMatrix type="matrix" values="0 0 0 0 1 0 0 0 0 0.96 0 0 0 0 0 0 0 0 1 0"/>
<feBlend mode="normal" in2="shape" result="effect1_innerShadow"/>
</filter>
<filter id="filter8_i" x="216.327" y="621" width="49.3467" height="45.7034" filterUnits="userSpaceOnUse" color-interpolation-filters="sRGB">
<feFlood flood-opacity="0" result="BackgroundImageFix"/>
<feBlend mode="normal" in="SourceGraphic" in2="BackgroundImageFix" result="shape"/>
<feColorMatrix in="SourceAlpha" type="matrix" values="0 0 0 0 0 0 0 0 0 0 0 0 0 0 0 0 0 0 127 0" result="hardAlpha"/>
<feOffset dx="-8" dy="4"/>
<feGaussianBlur stdDeviation="3.5"/>
<feComposite in2="hardAlpha" operator="arithmetic" k2="-1" k3="1"/>
<feColorMatrix type="matrix" values="0 0 0 0 1 0 0 0 0 0.48 0 0 0 0 0 0 0 0 1 0"/>
<feBlend mode="normal" in2="shape" result="effect1_innerShadow"/>
</filter>
<filter id="filter9_i" x="328.15" y="609" width="52.6997" height="55" filterUnits="userSpaceOnUse" color-interpolation-filters="sRGB">
<feFlood flood-opacity="0" result="BackgroundImageFix"/>
<feBlend mode="normal" in="SourceGraphic" in2="BackgroundImageFix" result="shape"/>
<feColorMatrix in="SourceAlpha" type="matrix" values="0 0 0 0 0 0 0 0 0 0 0 0 0 0 0 0 0 0 127 0" result="hardAlpha"/>
<feOffset dx="-8" dy="-8"/>
<feGaussianBlur stdDeviation="12"/>
<feComposite in2="hardAlpha" operator="arithmetic" k2="-1" k3="1"/>
<feColorMatrix type="matrix" values="0 0 0 0 1 0 0 0 0 0.48 0 0 0 0 0 0 0 0 1 0"/>
<feBlend mode="normal" in2="shape" result="effect1_innerShadow"/>
</filter>
</defs>
</svg>
