<svg width="1080" height="1080" viewBox="0 0 1080 1080" fill="none" xmlns="http://www.w3.org/2000/svg">
<rect width="1080" height="1080" fill="#5B57CA"/>
<g filter="url(#filter0_i)">
<path d="M539.5 652L652.516 717.25V847.75L539.5 913L426.484 847.75V717.25L539.5 652Z" fill="#FFF500"/>
</g>
<g filter="url(#filter1_i)">
<path d="M570.931 232.094L627.868 216.837L684.806 232.094L726.487 273.775L741.744 330.712L726.487 387.65L684.806 429.331L627.868 444.588L570.931 429.331L529.25 387.65L513.993 330.712L529.25 273.775L570.931 232.094Z" fill="#5B57CA"/>
</g>
<rect width="4" height="2" transform="matrix(1 0 0 -1 626 242)" fill="#FFF500"/>
<rect x="626" y="271" width="4" height="13" fill="white"/>
<rect x="626" y="242" width="4" height="29" fill="#FFC27A"/>
<path d="M597 376L616.053 387.25V409.75L597 421L577.947 409.75V387.25L597 376Z" fill="#FFF500"/>
<g filter="url(#filter2_i)">
<path d="M665 599.5L676.855 551.401L709.705 514.321L756.024 496.755L805.202 502.726L845.971 530.867L868.992 574.731L868.992 624.269L845.971 668.133L805.202 696.274L756.024 702.245L709.705 684.679L676.855 647.599L665 599.5Z" fill="#00BA8D"/>
</g>
<rect x="869" y="574" width="8" height="24" fill="#7A75FF"/>
<rect x="869" y="598" width="8" height="13" fill="#503521"/>
<rect x="869" y="611" width="8" height="13" fill="#FFF500"/>
<path d="M762.5 580L781.986 591.25V613.75L762.5 625L743.014 613.75V591.25L762.5 580Z" fill="#FFF500"/>
<g filter="url(#filter3_i)">
<path d="M861 315L906.259 329.61L934.231 367.86V415.14L906.259 453.39L861 468L815.741 453.39L787.769 415.14V367.86L815.741 329.61L861 315Z" fill="#7A75FF"/>
</g>
<path d="M850 369L862.124 376.5V391.5L850 399L837.876 391.5V376.5L850 369Z" fill="#FFF500"/>
<rect x="923" y="414" width="15" height="7" transform="rotate(-90 923 414)" fill="#0000FF"/>
<rect x="923" y="399" width="30" height="7" transform="rotate(-90 923 399)" fill="#FDBBAB"/>
<g filter="url(#filter4_i)">
<path d="M319.5 399L405.312 430.35L450.972 509.731L435.114 600L365.16 658.919H273.84L203.886 600L188.028 509.731L233.688 430.35L319.5 399Z" fill="#FF776E"/>
</g>
<rect x="342" y="529" width="13" height="44" transform="rotate(90 342 529)" fill="#00BA8D"/>
<rect width="3" height="12" transform="matrix(-4.37114e-08 1 1 4.37114e-08 304 534)" fill="#FDBBAB"/>
<rect x="337" y="534" width="3" height="21" transform="rotate(90 337 534)" fill="white"/>
<path d="M359 521L371.124 528.25V542.75L359 550L346.876 542.75V528.25L359 521Z" fill="#FFF500"/>
<g filter="url(#filter5_i)">
<path d="M402 157L446.995 173.377L470.937 214.845L462.622 262L425.941 292.778H378.059L341.378 262L333.063 214.845L357.005 173.377L402 157Z" fill="#56CCF2"/>
</g>
<rect x="376" y="204" width="8" height="17" fill="#00BA8D"/>
<rect x="376" y="221" width="8" height="17" fill="#7A75FF"/>
<rect x="376" y="238" width="8" height="11" fill="white"/>
<path d="M417 257L429.99 264.5V279.5L417 287L404.01 279.5V264.5L417 257Z" fill="#FFF500"/>
<line x1="418.027" y1="271.323" x2="539.91" y2="534.638" stroke="#FFF500" stroke-width="2"/>
<line x1="358" y1="534" x2="539" y2="534" stroke="#FFF500" stroke-width="2"/>
<line x1="761.782" y1="603.856" x2="538.712" y2="536.015" stroke="#FFF500" stroke-width="2"/>
<line x1="849.898" y1="385.328" x2="539.44" y2="535.958" stroke="#FFF500" stroke-width="2"/>
<line x1="597.416" y1="399.766" x2="539.924" y2="535.448" stroke="#FFF500" stroke-width="2"/>
<path d="M225 291L337 230" stroke="#FFF500" stroke-width="2" stroke-linecap="round"/>
<path d="M198 367L240 432" stroke="#FFF500" stroke-width="2" stroke-linecap="round"/>
<path d="M472 213L530 272" stroke="#FFF500" stroke-width="2" stroke-linecap="round"/>
<path d="M740 326L816 330" stroke="#FFF500" stroke-width="2" stroke-linecap="round"/>
<path d="M815.5 452.5L806 503" stroke="#FFF500" stroke-width="2" stroke-linecap="round"/>
<path d="M435 599.5L500.611 565.21" stroke="#FFF500" stroke-width="2" stroke-linecap="round"/>
<line x1="675.592" y1="645.692" x2="574.897" y2="575.545" stroke="#FFF500" stroke-width="2" stroke-linecap="round"/>
<g filter="url(#filter6_i)">
<path d="M151.426 293.427L178.324 277.897H209.382L236.279 293.427L251.808 320.324V351.382L236.279 378.279L209.382 393.809H178.324L151.426 378.279L135.897 351.382V320.324L151.426 293.427Z" fill="#FF7A00"/>
</g>
<path d="M225 350L540 536" stroke="#FFF500" stroke-width="2"/>
<path d="M225.5 339L234.593 344.25V354.75L225.5 360L216.407 354.75V344.25L225.5 339Z" fill="#FFF500"/>
<rect x="172" y="344" width="8" height="7" transform="rotate(-30 172 344)" fill="#C4C4C4"/>
<rect x="204.909" y="325" width="8" height="7" transform="rotate(-30 204.909 325)" fill="#C4C4C4"/>
<rect x="178.928" y="340" width="30" height="7" transform="rotate(-30 178.928 340)" fill="#FFF500"/>
<path d="M538.841 478.714C570.588 478.714 596.324 504.45 596.324 536.197C596.324 567.944 570.588 593.68 538.841 593.68C507.094 593.68 481.358 567.944 481.358 536.197C481.358 504.45 507.094 478.714 538.841 478.714Z" fill="#FFF500"/>
<path fill-rule="evenodd" clip-rule="evenodd" d="M541.201 531.982C540.571 532.612 539.494 532.165 539.494 531.275L539.494 503.424C539.494 503.148 539.27 502.924 538.994 502.924C538.718 502.924 538.494 503.148 538.494 503.424L538.494 531.139C538.494 532.03 537.417 532.477 536.787 531.847L527.274 522.334C527.079 522.139 526.763 522.139 526.567 522.334C526.372 522.529 526.372 522.846 526.567 523.041L536.33 532.804C536.96 533.433 536.513 534.511 535.623 534.511L510.51 534.511C510.234 534.511 510.01 534.734 510.01 535.011C510.01 535.287 510.234 535.511 510.51 535.511L535.258 535.511C536.149 535.511 536.595 536.588 535.965 537.218L526.318 546.865C526.122 547.061 526.122 547.377 526.318 547.572C526.513 547.768 526.829 547.768 527.025 547.572L536.787 537.81C537.417 537.18 538.494 537.626 538.494 538.517L538.494 566.046C538.494 566.323 538.718 566.546 538.994 566.546C539.27 566.546 539.494 566.323 539.494 566.046L539.494 538.382C539.494 537.491 540.571 537.045 541.201 537.675L551.097 547.571C551.293 547.766 551.609 547.766 551.804 547.571C552 547.376 552 547.059 551.804 546.864L542.158 537.218C541.528 536.588 541.974 535.511 542.865 535.511L566.926 535.511C567.202 535.511 567.426 535.287 567.426 535.011C567.426 534.734 567.202 534.511 566.926 534.511L542.501 534.511C541.61 534.511 541.164 533.433 541.794 532.804L551.555 523.042C551.75 522.847 551.75 522.531 551.555 522.335C551.359 522.14 551.043 522.14 550.847 522.335L541.201 531.982Z" fill="#FF776E"/>
<path d="M542 587L542 613.691C542 620.743 538.285 627.275 532.224 630.88L519.776 638.283C513.715 641.889 510 648.42 510 655.473L510 683" stroke="#FFF500" stroke-width="2" stroke-linecap="round"/>
<path d="M549 590L549 616.691C549 623.743 545.285 630.275 539.224 633.88L526.776 641.283C520.715 644.889 517 651.42 517 658.473V672" stroke="#FFF500" stroke-width="4" stroke-linecap="round"/>
<path d="M651 805L639.6 805C632.65 805 626.199 801.393 622.56 795.472L621.98 794.528C618.341 788.607 611.89 785 604.941 785L591 785" stroke="white" stroke-linecap="round"/>
<path d="M651 788L639.6 788C632.65 788 626.199 784.393 622.56 778.472L621.98 777.528C618.341 771.607 611.89 768 604.941 768L591 768" stroke="white" stroke-linecap="round"/>
<path d="M650 812L637.576 812C630.629 812 624.18 808.395 620.54 802.478L619.952 801.522C616.312 795.605 609.863 792 602.916 792L590 792" stroke="white" stroke-width="3" stroke-linecap="round"/>
<path d="M650 795L637.576 795C630.629 795 624.18 791.395 620.54 785.478L619.952 784.522C616.312 778.605 609.863 775 602.916 775L590 775" stroke="white" stroke-width="3" stroke-linecap="round"/>
<mask id="mask0" mask-type="alpha" maskUnits="userSpaceOnUse" x="482" y="727" width="117" height="117">
<circle cx="540.067" cy="785.067" r="58.0673" transform="rotate(-90 540.067 785.067)" fill="#FFF500"/>
</mask>
<g mask="url(#mask0)">
<rect x="481.66" y="727" width="23.363" height="44.6671" fill="#00BA8D"/>
<rect x="481.66" y="771.667" width="23.363" height="44.6671" fill="#7A75FF"/>
<rect x="481.66" y="816.334" width="23.363" height="26.8003" fill="white"/>
<rect x="505.023" y="732.956" width="11.6815" height="74.4452" fill="#FFC27A"/>
<rect width="11.6815" height="5.95561" transform="matrix(1 0 0 -1 505.023 732.956)" fill="#FFF500"/>
<rect x="505.023" y="807.401" width="11.6815" height="35.7337" fill="white"/>
<rect x="516.704" y="727" width="37.9648" height="116.134" fill="#00BA8D"/>
<rect width="11.6815" height="29.7781" transform="matrix(1 0 0 -1 528.386 825.267)" fill="#FDBBAB"/>
<rect x="528.386" y="741.889" width="11.6815" height="53.6005" fill="white"/>
<rect x="575.112" y="727" width="23.363" height="56.5783" fill="#7A75FF"/>
<rect x="575.112" y="783.578" width="23.363" height="29.7781" fill="#503521"/>
<rect x="575.112" y="813.356" width="23.363" height="29.7781" fill="#FFF500"/>
<rect x="554.669" y="843.135" width="38.7115" height="20.4426" transform="rotate(-90 554.669 843.135)" fill="#0000FF"/>
<rect x="554.669" y="804.423" width="77.423" height="20.4426" transform="rotate(-90 554.669 804.423)" fill="#FDBBAB"/>
</g>
<defs>
<filter id="filter0_i" x="426.484" y="638" width="230.033" height="275" filterUnits="userSpaceOnUse" color-interpolation-filters="sRGB">
<feFlood flood-opacity="0" result="BackgroundImageFix"/>
<feBlend mode="normal" in="SourceGraphic" in2="BackgroundImageFix" result="shape"/>
<feColorMatrix in="SourceAlpha" type="matrix" values="0 0 0 0 0 0 0 0 0 0 0 0 0 0 0 0 0 0 127 0" result="hardAlpha"/>
<feOffset dx="4" dy="-14"/>
<feGaussianBlur stdDeviation="20"/>
<feComposite in2="hardAlpha" operator="arithmetic" k2="-1" k3="1"/>
<feColorMatrix type="matrix" values="0 0 0 0 1 0 0 0 0 1 0 0 0 0 1 0 0 0 1 0"/>
<feBlend mode="normal" in2="shape" result="effect1_innerShadow"/>
</filter>
<filter id="filter1_i" x="513.993" y="216.837" width="227.75" height="243.75" filterUnits="userSpaceOnUse" color-interpolation-filters="sRGB">
<feFlood flood-opacity="0" result="BackgroundImageFix"/>
<feBlend mode="normal" in="SourceGraphic" in2="BackgroundImageFix" result="shape"/>
<feColorMatrix in="SourceAlpha" type="matrix" values="0 0 0 0 0 0 0 0 0 0 0 0 0 0 0 0 0 0 127 0" result="hardAlpha"/>
<feOffset dy="16"/>
<feGaussianBlur stdDeviation="8"/>
<feComposite in2="hardAlpha" operator="arithmetic" k2="-1" k3="1"/>
<feColorMatrix type="matrix" values="0 0 0 0 0.337255 0 0 0 0 0.8 0 0 0 0 0.94902 0 0 0 1 0"/>
<feBlend mode="normal" in2="shape" result="effect1_innerShadow"/>
</filter>
<filter id="filter2_i" x="645" y="496.755" width="223.992" height="209.491" filterUnits="userSpaceOnUse" color-interpolation-filters="sRGB">
<feFlood flood-opacity="0" result="BackgroundImageFix"/>
<feBlend mode="normal" in="SourceGraphic" in2="BackgroundImageFix" result="shape"/>
<feColorMatrix in="SourceAlpha" type="matrix" values="0 0 0 0 0 0 0 0 0 0 0 0 0 0 0 0 0 0 127 0" result="hardAlpha"/>
<feOffset dx="-20" dy="4"/>
<feGaussianBlur stdDeviation="10"/>
<feComposite in2="hardAlpha" operator="arithmetic" k2="-1" k3="1"/>
<feColorMatrix type="matrix" values="0 0 0 0 1 0 0 0 0 0.96 0 0 0 0 0 0 0 0 1 0"/>
<feBlend mode="normal" in2="shape" result="effect1_innerShadow"/>
</filter>
<filter id="filter3_i" x="779.769" y="307" width="154.463" height="161" filterUnits="userSpaceOnUse" color-interpolation-filters="sRGB">
<feFlood flood-opacity="0" result="BackgroundImageFix"/>
<feBlend mode="normal" in="SourceGraphic" in2="BackgroundImageFix" result="shape"/>
<feColorMatrix in="SourceAlpha" type="matrix" values="0 0 0 0 0 0 0 0 0 0 0 0 0 0 0 0 0 0 127 0" result="hardAlpha"/>
<feOffset dx="-8" dy="-8"/>
<feGaussianBlur stdDeviation="12"/>
<feComposite in2="hardAlpha" operator="arithmetic" k2="-1" k3="1"/>
<feColorMatrix type="matrix" values="0 0 0 0 1 0 0 0 0 0.48 0 0 0 0 0 0 0 0 1 0"/>
<feBlend mode="normal" in2="shape" result="effect1_innerShadow"/>
</filter>
<filter id="filter4_i" x="188.028" y="399" width="283.944" height="267.919" filterUnits="userSpaceOnUse" color-interpolation-filters="sRGB">
<feFlood flood-opacity="0" result="BackgroundImageFix"/>
<feBlend mode="normal" in="SourceGraphic" in2="BackgroundImageFix" result="shape"/>
<feColorMatrix in="SourceAlpha" type="matrix" values="0 0 0 0 0 0 0 0 0 0 0 0 0 0 0 0 0 0 127 0" result="hardAlpha"/>
<feOffset dx="21" dy="8"/>
<feGaussianBlur stdDeviation="12"/>
<feComposite in2="hardAlpha" operator="arithmetic" k2="-1" k3="1"/>
<feColorMatrix type="matrix" values="0 0 0 0 0.952941 0 0 0 0 0.913725 0 0 0 0 0 0 0 0 1 0"/>
<feBlend mode="normal" in2="shape" result="effect1_innerShadow"/>
</filter>
<filter id="filter5_i" x="318.063" y="157" width="152.873" height="139.778" filterUnits="userSpaceOnUse" color-interpolation-filters="sRGB">
<feFlood flood-opacity="0" result="BackgroundImageFix"/>
<feBlend mode="normal" in="SourceGraphic" in2="BackgroundImageFix" result="shape"/>
<feColorMatrix in="SourceAlpha" type="matrix" values="0 0 0 0 0 0 0 0 0 0 0 0 0 0 0 0 0 0 127 0" result="hardAlpha"/>
<feOffset dx="-20" dy="4"/>
<feGaussianBlur stdDeviation="7.5"/>
<feComposite in2="hardAlpha" operator="arithmetic" k2="-1" k3="1"/>
<feColorMatrix type="matrix" values="0 0 0 0 1 0 0 0 0 0.48 0 0 0 0 0 0 0 0 1 0"/>
<feBlend mode="normal" in2="shape" result="effect1_innerShadow"/>
</filter>
<filter id="filter6_i" x="127.897" y="269.897" width="123.911" height="123.911" filterUnits="userSpaceOnUse" color-interpolation-filters="sRGB">
<feFlood flood-opacity="0" result="BackgroundImageFix"/>
<feBlend mode="normal" in="SourceGraphic" in2="BackgroundImageFix" result="shape"/>
<feColorMatrix in="SourceAlpha" type="matrix" values="0 0 0 0 0 0 0 0 0 0 0 0 0 0 0 0 0 0 127 0" result="hardAlpha"/>
<feOffset dx="-8" dy="-8"/>
<feGaussianBlur stdDeviation="12"/>
<feComposite in2="hardAlpha" operator="arithmetic" k2="-1" k3="1"/>
<feColorMatrix type="matrix" values="0 0 0 0 0.477174 0 0 0 0 0.458333 0 0 0 0 1 0 0 0 1 0"/>
<feBlend mode="normal" in2="shape" result="effect1_innerShadow"/>
</filter>
</defs>
</svg>
