<svg width="420" height="420" viewBox="0 0 420 420" fill="none" xmlns="http://www.w3.org/2000/svg">
<rect width="420" height="420" fill="#FDBBAB"/>
<path d="M185.21 241.772L192.66 221.667C193.615 219.09 196.478 217.776 199.054 218.734C201.108 219.497 202.42 221.515 202.285 223.702L200.982 244.724C200.383 254.388 206.793 263.093 216.2 265.39L232.662 269.411C237.267 270.535 240.45 274.738 240.284 279.475L239.286 308L193.527 271.597C184.602 264.497 181.247 252.467 185.21 241.772Z" fill="#0D06C1"/>
<path d="M166.348 239.806L181.405 198.354C182.479 195.399 185.747 193.875 188.701 194.954C191.096 195.828 192.616 198.189 192.421 200.73L189.568 237.982C188.446 252.625 198.09 265.927 212.356 269.415L239.611 276.077C246.089 277.661 249.231 285.02 245.895 290.794L232.487 314L177.113 274.464C166.152 266.638 161.75 252.465 166.348 239.806Z" fill="#241ED3"/>
<path d="M151.653 79.6526C183.426 47.8789 234.942 47.8789 266.715 79.6526L268.837 77.5313C235.891 44.586 182.477 44.586 149.531 77.5313L151.653 79.6526ZM151.653 194.715C119.879 162.942 119.879 111.426 151.653 79.6526L149.531 77.5313C116.586 110.476 116.586 163.891 149.531 196.837L151.653 194.715ZM209.538 252.6L151.653 194.715L149.531 196.837L207.416 254.721L209.538 252.6ZM266.715 194.715L208.83 252.6L210.952 254.721L268.837 196.837L266.715 194.715ZM266.715 79.6526C298.489 111.426 298.489 162.942 266.715 194.715L268.837 196.837C301.782 163.891 301.782 110.476 268.837 77.5313L266.715 79.6526ZM207.416 254.721C208.393 255.698 209.975 255.698 210.952 254.721L208.83 252.6C209.026 252.405 209.342 252.405 209.538 252.6L207.416 254.721Z" fill="white"/>
<path d="M162.974 248.283L160.821 193.447C160.683 189.928 163.499 187 167.02 187C169.96 187 172.497 189.064 173.094 191.943L183.987 244.439C186.334 255.748 194.965 264.705 206.178 267.471L239.802 275.763C246.22 277.345 249.364 284.61 246.124 290.373L233.402 313L175.477 271.492C167.951 266.099 163.337 257.534 162.974 248.283Z" fill="#403ADD"/>
<path fill-rule="evenodd" clip-rule="evenodd" d="M173.064 158.786C173.054 158.775 173.043 158.764 173.032 158.753C163.08 148.744 163.08 132.516 173.032 122.507C182.983 112.499 199.116 112.498 209.068 122.503C219.021 112.498 235.153 112.499 245.104 122.507C255.055 132.515 255.056 148.74 245.108 158.75L245.112 158.753L209.072 195L173.064 158.786Z" fill="#FF6666"/>
<path d="M213.174 71L205.568 77.5L213.174 84" stroke="#FFF500" stroke-width="2" stroke-linecap="round" stroke-linejoin="round"/>
<path d="M231.963 71L239.568 77.5L231.963 84" stroke="#FFF500" stroke-width="2" stroke-linecap="round" stroke-linejoin="round"/>
<line x1="1" y1="-1" x2="14.1848" y2="-1" transform="matrix(-0.559771 0.828647 -0.896766 -0.442504 226.063 71)" stroke="#FFF500" stroke-width="2" stroke-linecap="round" stroke-linejoin="round"/>
<path d="M141.713 130L136.568 134.5L141.713 139" stroke="#FFF500" stroke-width="2" stroke-linecap="round" stroke-linejoin="round"/>
<path d="M154.424 130L159.568 134.5L154.424 139" stroke="#FFF500" stroke-width="2" stroke-linecap="round" stroke-linejoin="round"/>
<line x1="1" y1="-1" x2="9.43779" y2="-1" transform="matrix(-0.550883 0.834582 -0.892636 -0.450778 150.433 130)" stroke="#FFF500" stroke-width="2" stroke-linecap="round" stroke-linejoin="round"/>
<path d="M261.713 153L256.568 158L261.713 163" stroke="#FFF500" stroke-width="2" stroke-linecap="round" stroke-linejoin="round"/>
<path d="M274.424 153L279.568 158L274.424 163" stroke="#FFF500" stroke-width="2" stroke-linecap="round" stroke-linejoin="round"/>
<line x1="1" y1="-1" x2="10.2582" y2="-1" transform="matrix(-0.510738 0.859736 -0.872094 -0.489338 270.433 153)" stroke="#FFF500" stroke-width="2" stroke-linecap="round" stroke-linejoin="round"/>
<path d="M157.246 252.13L143.568 195.308C142.549 191.073 145.758 187 150.114 187C152.757 187 155.156 188.547 156.246 190.955L178.503 240.09C182.304 248.482 189.751 254.663 198.7 256.852L234.455 265.6C241.946 267.433 247.949 259.348 244.029 252.707L224.45 219.546C221.499 214.548 223.604 208.095 228.933 205.797C232.481 204.267 236.599 205.004 239.396 207.668L282.894 249.101C301.828 267.979 313.947 292.617 317.343 319.138L322.299 357.844C325.094 379.675 308.086 399 286.076 399C277.611 399 270.036 393.744 267.072 385.815L253.349 349.095C249.63 339.144 243.336 330.359 235.109 323.638L167.431 268.34C162.357 264.194 158.78 258.501 157.246 252.13Z" fill="#5B57CA"/>
<path d="M261.683 110.999C261.683 110.447 261.236 109.999 260.683 109.999C260.131 109.999 259.683 110.447 259.683 110.999L261.683 110.999ZM259.683 119.583C259.683 120.136 260.131 120.583 260.683 120.583C261.236 120.583 261.683 120.136 261.683 119.583L259.683 119.583ZM259.683 110.999L259.683 119.583L261.683 119.583L261.683 110.999L259.683 110.999Z" fill="#F55C5C"/>
<path d="M264.975 116.291C265.528 116.291 265.975 115.843 265.975 115.291C265.975 114.739 265.528 114.291 264.975 114.291L264.975 116.291ZM256.391 114.291C255.839 114.291 255.391 114.739 255.391 115.291C255.391 115.843 255.839 116.291 256.391 116.291L256.391 114.291ZM264.975 114.291L256.391 114.291L256.391 116.291L264.975 116.291L264.975 114.291Z" fill="#F55C5C"/>
<path d="M217.045 207.142C217.045 206.59 216.598 206.142 216.045 206.142C215.493 206.142 215.045 206.59 215.045 207.142L217.045 207.142ZM215.045 213.151C215.045 213.704 215.493 214.151 216.045 214.151C216.598 214.151 217.045 213.704 217.045 213.151L215.045 213.151ZM215.045 207.142L215.045 213.151L217.045 213.151L217.045 207.142L215.045 207.142Z" fill="#F55C5C"/>
<path d="M219.05 211.147C219.602 211.147 220.05 210.699 220.05 210.147C220.05 209.595 219.602 209.147 219.05 209.147L219.05 211.147ZM213.041 209.147C212.488 209.147 212.041 209.595 212.041 210.147C212.041 210.699 212.488 211.147 213.041 211.147L213.041 209.147ZM219.05 209.147L213.041 209.147L213.041 211.147L219.05 211.147L219.05 209.147Z" fill="#F55C5C"/>
<path d="M162.535 109.282C162.535 108.73 162.088 108.282 161.535 108.282C160.983 108.282 160.535 108.73 160.535 109.282L162.535 109.282ZM160.535 115.291C160.535 115.843 160.983 116.291 161.535 116.291C162.088 116.291 162.535 115.843 162.535 115.291L160.535 115.291ZM160.535 109.282L160.535 115.291L162.535 115.291L162.535 109.282L160.535 109.282Z" fill="#F55C5C"/>
<path d="M164.54 113.287C165.092 113.287 165.54 112.839 165.54 112.287C165.54 111.734 165.092 111.287 164.54 111.287L164.54 113.287ZM158.531 111.287C157.979 111.287 157.531 111.734 157.531 112.287C157.531 112.839 157.979 113.287 158.531 113.287L158.531 111.287ZM164.54 111.287L158.531 111.287L158.531 113.287L164.54 113.287L164.54 111.287Z" fill="#F55C5C"/>
<path d="M186.571 77.5205C186.571 76.9682 186.124 76.5205 185.571 76.5205C185.019 76.5205 184.571 76.9682 184.571 77.5205L186.571 77.5205ZM184.571 92.1137C184.571 92.666 185.019 93.1137 185.571 93.1137C186.124 93.1137 186.571 92.666 186.571 92.1137L184.571 92.1137ZM184.571 77.5205L184.571 92.1137L186.571 92.1137L186.571 77.5205L184.571 77.5205Z" fill="#F55C5C"/>
<path d="M192.868 85.8171C193.42 85.8171 193.868 85.3694 193.868 84.8171C193.868 84.2648 193.42 83.8171 192.868 83.8171L192.868 85.8171ZM178.275 83.8171C177.722 83.8171 177.275 84.2648 177.275 84.8171C177.275 85.3694 177.722 85.8171 178.275 85.8171L178.275 83.8171ZM192.868 83.8171L178.275 83.8171L178.275 85.8171L192.868 85.8171L192.868 83.8171Z" fill="#F55C5C"/>
<path d="M153.522 153.92C153.522 153.368 153.074 152.92 152.522 152.92C151.97 152.92 151.522 153.368 151.522 153.92L153.522 153.92ZM151.522 162.504C151.522 163.057 151.97 163.504 152.522 163.504C153.074 163.504 153.522 163.057 153.522 162.504L151.522 162.504ZM151.522 153.92L151.522 162.504L153.522 162.504L153.522 153.92L151.522 153.92Z" fill="#F55C5C"/>
<path d="M156.814 159.212C157.366 159.212 157.814 158.765 157.814 158.212C157.814 157.66 157.366 157.212 156.814 157.212L156.814 159.212ZM148.23 157.212C147.677 157.212 147.23 157.66 147.23 158.212C147.23 158.765 147.677 159.212 148.23 159.212L148.23 157.212ZM156.814 157.212L148.23 157.212L148.23 159.212L156.814 159.212L156.814 157.212Z" fill="#F55C5C"/>
<path d="M136.353 89.5385C136.353 88.9862 135.906 88.5385 135.353 88.5385C134.801 88.5385 134.353 88.9862 134.353 89.5385L136.353 89.5385ZM134.353 106.707C134.353 107.259 134.801 107.707 135.353 107.707C135.906 107.707 136.353 107.259 136.353 106.707L134.353 106.707ZM134.353 89.5385L134.353 106.707L136.353 106.707L136.353 89.5385L134.353 89.5385Z" fill="#F55C5C"/>
<path d="M143.938 99.1227C144.49 99.1227 144.938 98.675 144.938 98.1227C144.938 97.5704 144.49 97.1227 143.938 97.1227L143.938 99.1227ZM126.769 97.1227C126.217 97.1227 125.769 97.5704 125.769 98.1227C125.769 98.675 126.217 99.1227 126.769 99.1227L126.769 97.1227ZM143.938 97.1227L126.769 97.1227L126.769 99.1227L143.938 99.1227L143.938 97.1227Z" fill="#F55C5C"/>
<path d="M261.254 186.54C261.254 185.988 260.806 185.54 260.254 185.54C259.702 185.54 259.254 185.988 259.254 186.54L261.254 186.54ZM259.254 197.7C259.254 198.252 259.702 198.7 260.254 198.7C260.806 198.7 261.254 198.252 261.254 197.7L259.254 197.7ZM259.254 186.54L259.254 197.7L261.254 197.7L261.254 186.54L259.254 186.54Z" fill="#F55C5C"/>
<path d="M265.834 193.12C266.386 193.12 266.834 192.672 266.834 192.12C266.834 191.568 266.386 191.12 265.834 191.12L265.834 193.12ZM254.674 191.12C254.122 191.12 253.674 191.568 253.674 192.12C253.674 192.672 254.122 193.12 254.674 193.12L254.674 191.12ZM265.834 191.12L254.674 191.12L254.674 193.12L265.834 193.12L265.834 191.12Z" fill="#F55C5C"/>
<path d="M168.544 50.051C168.544 49.4987 168.097 49.051 167.544 49.051C166.992 49.051 166.544 49.4987 166.544 50.051L168.544 50.051ZM166.544 61.2105C166.544 61.7628 166.992 62.2105 167.544 62.2105C168.097 62.2105 168.544 61.7628 168.544 61.2105L166.544 61.2105ZM166.544 50.051L166.544 61.2105L168.544 61.2105L168.544 50.051L166.544 50.051Z" fill="#F55C5C"/>
<path d="M173.124 56.6307C173.676 56.6307 174.124 56.183 174.124 55.6307C174.124 55.0785 173.676 54.6307 173.124 54.6307L173.124 56.6307ZM161.965 54.6307C161.412 54.6307 160.965 55.0785 160.965 55.6307C160.965 56.183 161.412 56.6307 161.965 56.6307L161.965 54.6307ZM173.124 54.6307L161.965 54.6307L161.965 56.6307L173.124 56.6307L173.124 54.6307Z" fill="#F55C5C"/>
<path d="M211.465 98.1227C211.465 97.5704 211.018 97.1227 210.465 97.1227C209.913 97.1227 209.465 97.5704 209.465 98.1227L211.465 98.1227ZM209.465 109.282C209.465 109.834 209.913 110.282 210.465 110.282C211.018 110.282 211.465 109.834 211.465 109.282L209.465 109.282ZM209.465 98.1227L209.465 109.282L211.465 109.282L211.465 98.1227L209.465 98.1227Z" fill="#F55C5C"/>
<path d="M216.045 104.702C216.598 104.702 217.045 104.255 217.045 103.702C217.045 103.15 216.598 102.702 216.045 102.702L216.045 104.702ZM204.886 102.702C204.333 102.702 203.886 103.15 203.886 103.702C203.886 104.255 204.333 104.702 204.886 104.702L204.886 102.702ZM216.045 102.702L204.886 102.702L204.886 104.702L216.045 104.702L216.045 102.702Z" fill="#F55C5C"/>
<ellipse cx="209.068" cy="154" rx="16.5" ry="16" fill="#FFF500"/>
<path d="M210.178 149.628C210.178 149.076 209.73 148.628 209.178 148.628C208.626 148.628 208.178 149.076 208.178 149.628L210.178 149.628ZM208.178 158.212C208.178 158.765 208.626 159.212 209.178 159.212C209.73 159.212 210.178 158.765 210.178 158.212L208.178 158.212ZM208.178 149.628L208.178 158.212L210.178 158.212L210.178 149.628L208.178 149.628Z" fill="#FF0F00"/>
<path d="M213.47 154.92C214.022 154.92 214.47 154.472 214.47 153.92C214.47 153.368 214.022 152.92 213.47 152.92L213.47 154.92ZM204.886 152.92C204.333 152.92 203.886 153.368 203.886 153.92C203.886 154.472 204.333 154.92 204.886 154.92L204.886 152.92ZM213.47 152.92L204.886 152.92L204.886 154.92L213.47 154.92L213.47 152.92Z" fill="#FF0F00"/>
</svg>
