<svg width="420" height="420" viewBox="0 0 420 420" fill="none" xmlns="http://www.w3.org/2000/svg">
<rect width="420" height="420" fill="#00BA8D"/>
<path fill-rule="evenodd" clip-rule="evenodd" d="M80.8932 78.08C82.8931 76.916 85.4022 78.3588 85.4022 80.6728V94.8445C85.4022 95.8649 85.9103 96.8399 86.8333 97.275C90.1926 98.8584 94.0924 98.8584 97.4517 97.275C98.3747 96.8399 98.8828 95.8649 98.8828 94.8444V80.8387C98.8828 78.5246 101.392 77.0819 103.392 78.2458L109.509 81.806C110.432 82.3433 111 83.3308 111 84.3989V103.064C111 104.132 110.432 105.12 109.509 105.657L105.18 108.177C102.103 109.968 100.21 113.259 100.21 116.82L100.21 201.79C100.21 206.324 96.5342 210 92 210C87.4658 210 83.7901 206.324 83.7901 201.79L83.7901 116.82C83.7901 113.259 81.8972 109.968 78.8202 108.177L74.491 105.657C73.5679 105.12 73 104.132 73 103.064V84.3989C73 83.3308 73.5679 82.3433 74.491 81.806L80.8932 78.08Z" fill="#FFF500"/>
<rect x="87.5432" y="111.805" width="9.38272" height="94.6456" rx="4.69136" fill="#F3E900"/>
<path d="M243.644 92.6538H275.724V197.527C275.724 200.288 273.485 202.527 270.724 202.527H248.644C245.882 202.527 243.644 200.288 243.644 197.527V92.6538Z" fill="#F3E900"/>
<rect x="226" y="75.0099" width="66.5654" height="17.6438" rx="1" fill="#F3E900"/>
<rect x="240.436" y="75.0099" width="38.4957" height="17.6438" rx="1" fill="#FFF500"/>
<path d="M312.084 93.4152L342.787 102.805L312.224 202.745C311.416 205.385 308.621 206.871 305.98 206.064L284.839 199.599C282.198 198.791 280.712 195.996 281.52 193.355L312.084 93.4152Z" fill="#FFF500"/>
<rect x="300.833" y="71.3883" width="66.508" height="17.7737" rx="1" transform="rotate(17.0048 300.833 71.3883)" fill="#FFF500"/>
<rect x="317.282" y="76.4186" width="32.1073" height="17.7737" rx="1" transform="rotate(17.0048 317.282 76.4186)" fill="#F3EA00"/>
<mask id="path-9-inside-1" fill="white">
<path fill-rule="evenodd" clip-rule="evenodd" d="M177.216 308.98C177.41 308.661 177.41 308.261 177.216 307.942L156.898 274.481C156.717 274.182 156.393 274 156.043 274L115.318 274C114.969 274 114.645 274.182 114.463 274.481L94.1452 307.942C93.9516 308.261 93.9516 308.661 94.1452 308.98L114.463 342.442C114.645 342.74 114.969 342.923 115.318 342.923H156.043C156.393 342.923 156.717 342.74 156.898 342.442L177.216 308.98ZM136.367 330.416C148.492 330.416 158.321 320.586 158.321 308.461C158.321 296.336 148.492 286.507 136.367 286.507C124.241 286.507 114.412 296.336 114.412 308.461C114.412 320.586 124.241 330.416 136.367 330.416Z"/>
</mask>
<path fill-rule="evenodd" clip-rule="evenodd" d="M177.216 308.98C177.41 308.661 177.41 308.261 177.216 307.942L156.898 274.481C156.717 274.182 156.393 274 156.043 274L115.318 274C114.969 274 114.645 274.182 114.463 274.481L94.1452 307.942C93.9516 308.261 93.9516 308.661 94.1452 308.98L114.463 342.442C114.645 342.74 114.969 342.923 115.318 342.923H156.043C156.393 342.923 156.717 342.74 156.898 342.442L177.216 308.98ZM136.367 330.416C148.492 330.416 158.321 320.586 158.321 308.461C158.321 296.336 148.492 286.507 136.367 286.507C124.241 286.507 114.412 296.336 114.412 308.461C114.412 320.586 124.241 330.416 136.367 330.416Z" fill="#5B57CA"/>
<path d="M177.216 307.942L178.926 306.904L178.926 306.904L177.216 307.942ZM177.216 308.98L178.926 310.018L178.926 310.018L177.216 308.98ZM156.898 274.481L158.608 273.443V273.443L156.898 274.481ZM156.043 274V276V274ZM115.318 274V272V274ZM114.463 274.481L112.754 273.443V273.443L114.463 274.481ZM94.1452 307.942L92.4357 306.904H92.4357L94.1452 307.942ZM94.1452 308.98L92.4357 310.018H92.4357L94.1452 308.98ZM114.463 342.442L116.173 341.404L116.173 341.404L114.463 342.442ZM156.898 342.442L155.189 341.404L155.189 341.404L156.898 342.442ZM175.507 308.98C175.313 308.661 175.313 308.261 175.507 307.942L178.926 310.018C179.507 309.062 179.507 307.861 178.926 306.904L175.507 308.98ZM155.189 275.519L175.507 308.98L178.926 306.904L158.608 273.443L155.189 275.519ZM156.043 276C155.694 276 155.37 275.818 155.189 275.519L158.608 273.443C158.064 272.547 157.092 272 156.043 272V276ZM115.318 276L156.043 276V272L115.318 272V276ZM116.173 275.519C115.992 275.818 115.668 276 115.318 276V272C114.27 272 113.298 272.547 112.754 273.443L116.173 275.519ZM95.8548 308.98L116.173 275.519L112.754 273.443L92.4357 306.904L95.8548 308.98ZM95.8548 307.942C96.0484 308.261 96.0484 308.661 95.8548 308.98L92.4357 306.904C91.8548 307.861 91.8548 309.062 92.4357 310.018L95.8548 307.942ZM116.173 341.404L95.8548 307.942L92.4357 310.018L112.754 343.48L116.173 341.404ZM115.318 340.923C115.668 340.923 115.992 341.105 116.173 341.404L112.754 343.48C113.298 344.376 114.27 344.923 115.318 344.923V340.923ZM156.043 340.923H115.318V344.923H156.043V340.923ZM155.189 341.404C155.37 341.105 155.694 340.923 156.043 340.923V344.923C157.092 344.923 158.064 344.376 158.608 343.48L155.189 341.404ZM175.507 307.942L155.189 341.404L158.608 343.48L178.926 310.018L175.507 307.942ZM156.321 308.461C156.321 319.482 147.387 328.416 136.367 328.416V332.416C149.596 332.416 160.321 321.691 160.321 308.461H156.321ZM136.367 288.507C147.387 288.507 156.321 297.441 156.321 308.461H160.321C160.321 295.232 149.596 284.507 136.367 284.507V288.507ZM116.412 308.461C116.412 297.441 125.346 288.507 136.367 288.507V284.507C123.137 284.507 112.412 295.232 112.412 308.461H116.412ZM136.367 328.416C125.346 328.416 116.412 319.482 116.412 308.461H112.412C112.412 321.691 123.137 332.416 136.367 332.416V328.416Z" fill="#5B57CA" mask="url(#path-9-inside-1)"/>
<path fill-rule="evenodd" clip-rule="evenodd" d="M188.216 308.98C188.41 308.661 188.41 308.261 188.216 307.942L167.898 274.481C167.717 274.182 167.393 274 167.043 274L126.318 274C125.969 274 125.645 274.182 125.463 274.481L105.145 307.942C104.952 308.261 104.952 308.661 105.145 308.98L125.463 342.442C125.645 342.74 125.969 342.923 126.318 342.923H167.043C167.393 342.923 167.717 342.74 167.898 342.442L188.216 308.98ZM147.367 330.416C159.492 330.416 169.321 320.586 169.321 308.461C169.321 296.336 159.492 286.507 147.367 286.507C135.241 286.507 125.412 296.336 125.412 308.461C125.412 320.586 135.241 330.416 147.367 330.416Z" fill="#241ED3"/>
<rect x="60" y="321" width="83" height="22" rx="1" fill="#5B57CA"/>
<rect x="82" y="321" width="40" height="22" rx="1" fill="#0D06C1"/>
<path d="M39 302.5L40 302.5L39 302.5ZM39 385L38 385L38 386L39 386L39 385ZM121.5 221C166.511 221 203 257.489 203 302.5L205 302.5C205 256.384 167.616 219 121.5 219L121.5 221ZM40 302.5C40 257.489 76.4888 221 121.5 221L121.5 219C75.3842 219 38 256.384 38 302.5L40 302.5ZM40 385L40 302.5L38 302.5L38 385L40 385ZM121.5 384L39 384L39 386L121.5 386L121.5 384ZM203 302.5C203 347.511 166.511 384 121.5 384L121.5 386C167.616 386 205 348.616 205 302.5L203 302.5Z" fill="white"/>
<circle cx="274" cy="329" r="55" stroke="#FFF500" stroke-width="2"/>
<path d="M246.903 326.29V331.54C246.903 346.599 259.035 358.806 274 358.806C288.965 358.806 301.097 346.599 301.097 331.54V326.29" stroke="#FFF500" stroke-width="2"/>
<line x1="246.5" y1="313" x2="246.5" y2="309" stroke="#FFF500" stroke-width="3"/>
<line x1="300.5" y1="313" x2="300.5" y2="309" stroke="#FFF500" stroke-width="3"/>
<path d="M395 29L396 29L396 28L395 28L395 29ZM282 254C220.144 254 170 203.856 170 142L168 142C168 204.96 219.04 256 282 256L282 254ZM394 142C394 203.856 343.856 254 282 254L282 256C344.96 256 396 204.96 396 142L394 142ZM394 29L394 142L396 142L396 29L394 29ZM282 30L395 30L395 28L282 28L282 30ZM170 142C170 80.1441 220.144 30 282 30L282 28C219.04 28 168 79.0395 168 142L170 142Z" fill="white"/>
<path d="M139 77C145.477 77 150.727 82.2505 150.727 88.7273L150.727 143.776L127.273 143.776L127.273 88.7273C127.273 82.2505 132.523 77 139 77V77Z" fill="#FFF500"/>
<rect x="145.818" y="138.809" width="2.72727" height="51.8755" rx="1.36364" transform="rotate(180 145.818 138.809)" fill="#F3EA00"/>
<rect x="134.909" y="138.809" width="2.72727" height="51.8755" rx="1.36364" transform="rotate(180 134.909 138.809)" fill="#F3EA00"/>
<rect x="140.364" y="138.809" width="2.72727" height="51.8755" rx="1.36364" transform="rotate(180 140.364 138.809)" fill="#F3EA00"/>
<path d="M143.454 208.844C143.55 209.451 143.08 210 142.466 210L134.989 210C134.374 210 133.905 209.451 134.001 208.844L135.988 196.281C135.996 196.229 136 196.177 136 196.125L136 147.055C136 145.549 137.221 144.328 138.727 144.328V144.328C140.233 144.328 141.455 145.549 141.455 147.055L141.455 196.125C141.455 196.177 141.459 196.229 141.467 196.281L143.454 208.844Z" fill="#E6E6E6"/>
<path d="M143.454 208.844C143.55 209.451 143.08 210 142.466 210L134.989 210C134.374 210 133.905 209.451 134.001 208.844L135.867 197.047C135.943 196.561 136.362 196.203 136.854 196.203L140.6 196.203C141.092 196.203 141.511 196.561 141.588 197.047L143.454 208.844Z" fill="white"/>
<rect x="154" y="147.087" width="30" height="4.9668" rx="2.4834" transform="rotate(180 154 147.087)" fill="#F3EA00"/>
</svg>
