<svg width="420" height="420" viewBox="0 0 420 420" fill="none" xmlns="http://www.w3.org/2000/svg">
<rect width="420" height="420" fill="#5B57CA"/>
<rect x="332" y="154" width="11" height="3" fill="white"/>
<rect x="333" y="155" width="9" height="1" fill="black"/>
<path d="M124 184.5H126.25V183.5H124V184.5ZM139 171.75V169.25H138V171.75H139ZM153.25 155H171V154H153.25V155ZM139 169.25C139 161.38 145.38 155 153.25 155V154C144.828 154 138 160.828 138 169.25H139ZM126.25 184.5C133.292 184.5 139 178.792 139 171.75H138C138 178.239 132.739 183.5 126.25 183.5V184.5ZM114.5 194C114.5 188.753 118.753 184.5 124 184.5V183.5C118.201 183.5 113.5 188.201 113.5 194H114.5Z" fill="#FFF500"/>
<path d="M265.083 29.9632L264.722 29.6174L265.083 29.9632ZM137.5 81.5V116.5H138.5V81.5H137.5ZM216.406 58H161V59H216.406V58ZM264.722 29.6174L252.153 42.7399L252.875 43.4317L265.445 30.3091L264.722 29.6174ZM338 156V59.0496H337V156H338ZM216.406 59C230.176 59 243.35 53.3764 252.875 43.4317L252.153 42.7399C242.816 52.4878 229.904 58 216.406 58V59ZM137.5 116.5C137.5 129.479 148.021 140 161 140V139C148.574 139 138.5 128.926 138.5 116.5H137.5ZM138.5 81.5C138.5 69.0736 148.574 59 161 59V58C148.021 58 137.5 68.5213 137.5 81.5H138.5ZM295.45 16.5C283.848 16.5 272.748 21.2382 264.722 29.6174L265.445 30.3091C273.282 22.1269 284.12 17.5 295.45 17.5V16.5ZM295.45 17.5C318.398 17.5 337 36.1024 337 59.0496H338C338 35.5501 318.95 16.5 295.45 16.5V17.5Z" fill="#FFF500"/>
<path d="M358.5 115.125C358.5 114.849 358.276 114.625 358 114.625C357.724 114.625 357.5 114.849 357.5 115.125H358.5ZM340.5 156V142.375H339.5V156H340.5ZM340.5 142.375V137.75H339.5V142.375H340.5ZM358.5 119.75V115.125H357.5V119.75H358.5ZM349 129.25C354.247 129.25 358.5 124.997 358.5 119.75H357.5C357.5 124.444 353.694 128.25 349 128.25V129.25ZM340.5 137.75C340.5 133.056 344.306 129.25 349 129.25V128.25C343.753 128.25 339.5 132.503 339.5 137.75H340.5Z" fill="#FFF500"/>
<path d="M323.5 133.5C323.5 133.224 323.276 133 323 133C322.724 133 322.5 133.224 322.5 133.5H323.5ZM323.5 143V133.5H322.5V143H323.5ZM335.5 156V155H334.5V156H335.5ZM329 148.5C325.962 148.5 323.5 146.038 323.5 143H322.5C322.5 146.59 325.41 149.5 329 149.5V148.5ZM329 149.5C332.038 149.5 334.5 151.962 334.5 155H335.5C335.5 151.41 332.59 148.5 329 148.5V149.5Z" fill="#FFF500"/>
<rect x="171" y="323" width="135" height="6" fill="black"/>
<rect x="161" y="241" width="155" height="82" fill="#C4C4C4"/>
<rect x="161" y="73" width="155" height="162" fill="#C4C4C4"/>
<rect x="167" y="266" width="144" height="4" rx="2" fill="black"/>
<circle cx="238.5" cy="82.5" r="3.5" fill="black"/>
<circle cx="238.5" cy="82.5" r="1.5" fill="#56CCF2"/>
<mask id="mask0" mask-type="alpha" maskUnits="userSpaceOnUse" x="167" y="266" width="144" height="92">
<rect x="167" y="266" width="144" height="92" fill="#C4C4C4"/>
</mask>
<g mask="url(#mask0)">
<path fill-rule="evenodd" clip-rule="evenodd" d="M239 356C273.242 356 301 328.242 301 294C301 259.758 273.242 232 239 232C204.758 232 177 259.758 177 294C177 328.242 204.758 356 239 356ZM239 301C242.866 301 246 297.866 246 294C246 290.134 242.866 287 239 287C235.134 287 232 290.134 232 294C232 297.866 235.134 301 239 301Z" fill="#FFF500"/>
<circle cx="239" cy="294" r="13" stroke="#5B57CA"/>
<path d="M209 291V296.812C209 313.485 222.431 327 239 327C255.569 327 269 313.485 269 296.812V291" stroke="#5B57CA"/>
<line x1="209" y1="274" x2="209" y2="272" stroke="#5B57CA" stroke-width="2"/>
<line x1="268" y1="274" x2="268" y2="272" stroke="#5B57CA" stroke-width="2"/>
</g>
<circle cx="308.5" cy="254.5" r="2.5" fill="#00BA8D"/>
<rect x="176" y="93" width="125" height="97" rx="14" fill="black"/>
<rect x="173" y="90" width="131" height="103" rx="17" stroke="#9F9F9F"/>
<rect x="199" y="235" width="80" height="6" fill="black"/>
<rect x="329" y="169" width="17" height="39" fill="#F55C5C"/>
<rect x="329" y="164" width="17" height="5" fill="#D95047"/>
<rect x="332" y="157" width="11" height="10" fill="#C4C4C4"/>
<rect x="334" y="161" width="2" height="3" fill="black"/>
<rect x="339" y="161" width="2" height="3" fill="black"/>
<line x1="357.939" y1="96" x2="357.939" y2="112" stroke="#FFF500"/>
<line x1="364.854" y1="104.305" x2="350.415" y2="104.305" stroke="#FFF500"/>
<line x1="360.701" y1="107.383" x2="354.354" y2="101.036" stroke="#FFF500"/>
<line x1="361.017" y1="101.036" x2="354.671" y2="107.383" stroke="#FFF500"/>
<line x1="322.524" y1="114" x2="322.524" y2="130" stroke="#FFF500"/>
<line x1="329.439" y1="122.305" x2="315" y2="122.305" stroke="#FFF500"/>
<line x1="325.286" y1="125.383" x2="318.939" y2="119.036" stroke="#FFF500"/>
<line x1="325.603" y1="119.036" x2="319.256" y2="125.383" stroke="#FFF500"/>
<line x1="300.793" y1="282" x2="300.793" y2="310" stroke="white"/>
<line x1="313.268" y1="296.159" x2="288" y2="296.159" stroke="white"/>
<line x1="306.265" y1="301.655" x2="295.159" y2="290.549" stroke="white"/>
<line x1="306.289" y1="290.549" x2="295.183" y2="301.655" stroke="white"/>
<line x1="75" y1="127" x2="75" y2="155" stroke="#FFF500"/>
<line x1="88" y1="141.554" x2="62" y2="141.554" stroke="#FFF500"/>
<line x1="80.8045" y1="147.214" x2="69.3762" y2="135.786" stroke="#FFF500"/>
<line x1="80.8089" y1="135.786" x2="69.3805" y2="147.214" stroke="#FFF500"/>
<line x1="138" y1="80" x2="138" y2="108" stroke="#FFF500"/>
<line x1="151" y1="94.5541" x2="125" y2="94.5541" stroke="#FFF500"/>
<line x1="143.805" y1="100.214" x2="132.376" y2="88.786" stroke="#FFF500"/>
<line x1="143.809" y1="88.7859" x2="132.38" y2="100.214" stroke="#FFF500"/>
<path d="M75.5 194V111.268H74.5V194H75.5ZM112.035 111.268V119.5H113.035V111.268H112.035ZM135.535 143H161V142H135.535V143ZM112.035 119.5C112.035 132.479 122.556 143 135.535 143V142C123.109 142 113.035 131.926 113.035 119.5H112.035ZM93.7675 93C103.856 93 112.035 101.179 112.035 111.268H113.035C113.035 100.626 104.409 92 93.7675 92V93ZM75.5 111.268C75.5 101.179 83.6787 93 93.7675 93V92C83.1264 92 74.5 100.626 74.5 111.268H75.5Z" fill="#FFF500"/>
<path d="M104.5 194V184.553H103.5V194H104.5ZM116.25 172.803H118.099V171.803H116.25V172.803ZM138.901 152H161V151H138.901V152ZM129 161.901C129 156.433 133.433 152 138.901 152V151C132.881 151 128 155.881 128 161.901H129ZM118.099 172.803C124.119 172.803 129 167.922 129 161.901H128C128 167.37 123.567 171.803 118.099 171.803V172.803ZM104.5 184.553C104.5 178.063 109.761 172.803 116.25 172.803V171.803C109.208 171.803 103.5 177.511 103.5 184.553H104.5Z" fill="#FFF500"/>
<path d="M84.5 194V183.521H83.5V194H84.5ZM98.75 169.271H101.865V168.271H98.75V169.271ZM125.135 146H161V145H125.135V146ZM114 157.135C114 150.985 118.985 146 125.135 146V145C118.433 145 113 150.433 113 157.135H114ZM101.865 169.271C108.567 169.271 114 163.837 114 157.135H113C113 163.285 108.015 168.271 101.865 168.271V169.271ZM84.5 183.521C84.5 175.651 90.8799 169.271 98.75 169.271V168.271C90.3277 168.271 83.5 175.098 83.5 183.521H84.5Z" fill="#FFF500"/>
<path d="M94 194V188.126H93V194H94ZM122.5 172.874V162.967H121.5V172.874H122.5ZM136.467 149H161V148H136.467V149ZM122.5 162.967C122.5 155.253 128.753 149 136.467 149V148C128.201 148 121.5 154.701 121.5 162.967H122.5ZM107.473 180.916C113.896 185.198 122.5 180.594 122.5 172.874H121.5C121.5 179.795 113.786 183.923 108.027 180.084L107.473 180.916ZM94 188.126C94 181.205 101.714 177.077 107.473 180.916L108.027 180.084C101.604 175.802 93 180.406 93 188.126H94Z" fill="#FFF500"/>
<rect x="334.659" y="130" width="17" height="5" transform="rotate(15 334.659 130)" fill="#D95047"/>
<rect x="333.365" y="134.83" width="17" height="13" transform="rotate(15 333.365 134.83)" fill="#F55C5C"/>
<circle cx="238.5" cy="141.274" r="36.2103" fill="black" stroke="white"/>
<ellipse cx="238.645" cy="141.274" rx="18.1052" ry="36.2103" stroke="white"/>
<path d="M264.422 115.707C250.224 129.905 227.206 129.905 213.008 115.707" stroke="white"/>
<path d="M213.008 166.981C227.205 152.783 250.224 152.783 264.422 166.981" stroke="white"/>
<line x1="239" y1="104.774" x2="239" y2="177.774" stroke="white"/>
<line x1="275" y1="141.774" x2="202" y2="141.774" stroke="white"/>
<circle cx="69" cy="326" r="3" fill="black"/>
<circle cx="138" cy="326" r="3" fill="black"/>
<rect x="56" y="193" width="95" height="133" fill="#F3E900"/>
<circle cx="103.5" cy="314.5" r="1.5" fill="white"/>
<rect x="64.5" y="203.5" width="78" height="96" rx="9.5" stroke="#FFF500"/>
<path d="M224.287 127.382C223.117 125.843 220.921 125.544 219.382 126.713C217.843 127.883 217.544 130.079 218.713 131.618L224.287 127.382ZM240.296 159.608L237.164 158.046L237.164 158.046L240.296 159.608ZM273.202 111.72C274.705 110.504 274.937 108.3 273.72 106.798C272.504 105.295 270.3 105.063 268.798 106.28L273.202 111.72ZM218.713 131.618C223.107 137.398 226.436 146.592 229.506 154.025C230.249 155.821 230.982 157.521 231.705 158.975C232.404 160.38 233.202 161.784 234.124 162.84C234.916 163.749 236.714 165.428 239.278 164.892C241.576 164.412 242.797 162.435 243.428 161.17L237.164 158.046C236.649 159.079 236.72 158.275 237.846 158.04C239.237 157.749 239.84 158.745 239.398 158.238C239.085 157.88 238.608 157.136 237.973 155.859C237.362 154.63 236.703 153.112 235.976 151.352C233.17 144.558 229.393 134.102 224.287 127.382L218.713 131.618ZM243.428 161.17C250.201 147.589 252.987 128.085 273.202 111.72L268.798 106.28C247.013 123.915 242.88 146.584 237.164 158.046L243.428 161.17Z" fill="#FF0F00"/>
<rect x="346" y="307.647" width="17" height="99.6471" transform="rotate(-180 346 307.647)" fill="#F55C5C"/>
<path d="M337.5 329L329 307.647L346 307.647L337.5 329Z" fill="white"/>
<path d="M337.5 329L333.25 318.324L341.75 318.324L337.5 329Z" fill="#FF0F00"/>
<line x1="337.793" y1="247" x2="337.793" y2="275" stroke="#FFF500"/>
<line x1="350.268" y1="261.159" x2="325" y2="261.159" stroke="#FFF500"/>
<line x1="343.265" y1="266.655" x2="332.159" y2="255.549" stroke="#FFF500"/>
<line x1="343.289" y1="255.549" x2="332.183" y2="266.655" stroke="#FFF500"/>
</svg>
